{"glyphs":{"0":{"ha":984,"x_min":58,"x_max":926,"o":"m 58 872 q 150 1078 58 998 q 376 1157 242 1157 l 608 1157 q 835 1079 745 1157 q 926 870 924 1000 l 926 289 q 825 74 926 153 q 608 0 735 0 l 376 0 q 88 158 174 0 q 58 260 68 200 l 58 399 q 114 339 107 350 l 116 339 l 116 291 q 190 120 116 182 q 376 58 263 58 l 608 58 q 791 120 715 58 q 868 289 868 182 l 868 868 q 795 1037 868 975 q 608 1100 722 1100 l 376 1100 q 192 1037 268 1100 q 116 867 116 975 l 116 521 q 127 495 116 509 l 165 456 q 231 349 231 389 q 276 210 231 246 q 434 174 321 174 l 550 174 q 707 210 663 174 q 752 349 752 246 l 752 810 q 703 953 752 917 q 550 984 660 984 l 434 984 q 276 948 320 984 q 231 810 231 913 l 231 470 l 205 496 q 174 531 178 524 l 174 816 q 239 992 174 943 q 434 1042 304 1042 l 550 1042 q 746 992 681 1042 q 810 810 810 942 l 810 349 q 746 166 810 217 q 550 116 681 116 l 434 116 q 243 161 313 116 q 174 318 174 205 l 174 347 q 145 391 174 362 q 87 455 116 420 q 58 521 58 490 l 58 872 z "},"1":{"ha":521,"x_min":58,"x_max":463,"o":"m 405 347 q 347 422 405 363 q 289 521 289 482 l 289 888 q 240 810 240 812 l 58 810 l 58 848 l 256 1157 l 463 1157 l 463 470 q 405 531 417 516 l 405 1100 l 286 1100 l 140 868 l 208 868 l 318 1042 l 347 1042 l 347 521 q 405 447 347 506 q 463 347 463 388 l 463 0 l 289 0 l 289 399 l 315 373 q 347 339 343 346 l 347 58 l 405 58 l 405 347 z "},"2":{"ha":984,"x_min":58,"x_max":926,"o":"m 231 347 q 276 209 231 245 q 434 174 320 174 l 926 174 l 926 0 l 58 0 l 58 291 q 81 391 58 344 l 97 370 q 122 336 114 347 q 116 291 116 317 l 116 58 l 868 58 l 868 116 l 434 116 q 238 166 302 116 q 174 347 174 216 q 130 425 174 363 q 87 519 87 486 q 155 629 90 576 q 376 694 234 692 l 547 694 q 707 725 661 694 q 752 839 752 755 q 708 951 752 917 q 547 984 664 984 l 459 984 q 305 952 346 984 q 260 810 260 916 l 87 810 l 87 868 q 119 1010 87 951 q 202 1099 150 1069 q 303 1142 253 1128 q 405 1157 353 1156 l 608 1157 q 825 1084 726 1157 q 926 868 926 1008 l 926 810 q 838 602 926 683 q 608 521 749 521 l 434 521 q 247 462 318 521 l 247 463 q 216 511 229 488 q 434 579 292 579 l 608 579 q 796 641 723 579 q 868 810 868 703 l 868 868 q 798 1032 868 972 q 608 1100 728 1091 l 401 1100 q 320 1089 360 1100 q 239 1055 281 1079 q 172 983 198 1032 q 145 868 146 935 l 203 868 q 276 1001 216 961 q 459 1042 337 1042 l 547 1042 q 744 996 679 1042 q 810 839 810 951 q 734 673 810 728 q 547 637 680 637 l 376 637 q 192 584 262 637 q 145 519 145 550 q 188 444 145 503 q 231 347 231 385 z "},"3":{"ha":984,"x_min":58,"x_max":926,"o":"m 58 868 q 150 1078 58 998 q 376 1157 242 1157 l 608 1157 q 836 1078 747 1157 q 926 871 926 998 l 926 806 q 843 608 926 670 q 910 503 888 566 q 862 550 887 531 l 815 583 l 761 615 l 797 644 q 868 809 868 700 l 868 868 q 794 1039 868 978 q 608 1100 719 1100 l 376 1100 q 190 1037 263 1100 q 116 868 117 974 l 174 868 q 247 1000 185 955 q 434 1042 305 1042 l 551 1042 q 746 999 680 1042 q 812 846 812 956 l 812 843 q 749 685 812 729 q 579 637 687 641 l 579 579 l 612 579 q 830 503 735 579 q 926 291 926 427 l 926 288 q 835 80 926 161 q 608 0 744 0 l 372 0 q 148 80 237 0 q 58 289 58 159 l 58 347 l 231 347 q 281 204 231 240 q 434 174 324 174 l 550 174 q 680 191 634 174 q 744 265 726 208 q 752 347 749 295 q 765 405 752 370 q 809 314 802 370 q 739 160 800 204 q 550 116 677 116 l 434 116 q 251 156 314 116 q 174 289 188 195 l 116 289 q 190 120 116 182 q 372 58 263 58 l 608 58 q 791 119 715 58 q 868 289 868 179 l 868 291 q 791 459 868 398 q 612 521 715 521 l 521 521 l 521 694 l 579 694 q 714 733 674 694 q 754 843 754 771 l 754 846 q 710 953 754 923 q 551 984 666 984 l 434 984 q 281 953 324 984 q 231 810 231 917 l 58 810 l 58 868 z "},"4":{"ha":984,"x_min":58,"x_max":926,"o":"m 810 347 q 752 422 810 365 q 694 521 694 480 l 694 1157 l 868 1157 l 868 469 q 841 497 867 472 q 810 530 816 522 l 810 1100 l 752 1100 l 752 521 q 810 446 752 503 q 868 347 868 388 l 926 347 l 926 174 l 868 174 l 868 0 l 694 0 l 694 174 l 58 174 l 58 289 l 407 1157 l 595 1157 l 268 347 l 694 347 l 694 399 l 720 373 q 752 337 749 341 l 752 289 l 182 289 l 508 1100 l 446 1100 l 116 278 l 116 231 l 752 231 l 752 58 l 810 58 l 810 231 l 868 231 l 868 289 l 810 289 l 810 347 z "},"5":{"ha":984,"x_min":58,"x_max":926,"o":"m 868 349 q 841 462 868 414 q 772 533 815 509 q 689 568 729 557 q 612 579 650 579 l 58 579 l 58 1157 l 926 1157 l 926 984 l 231 984 l 231 752 l 612 752 q 799 700 718 752 q 910 561 880 647 q 778 657 862 619 q 612 694 693 694 l 174 694 l 174 1042 l 868 1042 l 868 1100 l 116 1100 l 116 637 l 612 637 q 760 606 690 637 q 877 509 829 576 q 926 349 926 441 l 926 288 q 835 80 926 161 q 608 0 744 0 l 372 0 q 148 80 237 0 q 58 289 58 159 l 58 347 l 231 347 q 281 204 231 240 q 434 174 324 174 l 550 174 q 703 204 663 174 q 752 405 752 240 q 765 463 752 428 q 798 415 786 444 q 810 367 810 386 q 736 158 810 207 q 550 116 666 116 l 434 116 q 251 156 314 116 q 174 289 188 195 l 116 289 q 190 120 116 182 q 372 58 263 58 l 608 58 q 791 119 715 58 q 868 289 868 179 l 868 349 z "},"6":{"ha":984,"x_min":58,"x_max":926,"o":"m 58 868 q 150 1080 58 1003 q 376 1157 243 1157 l 608 1157 q 833 1079 741 1157 q 926 868 924 1001 l 926 810 l 752 810 q 703 953 752 917 q 550 984 660 984 l 434 984 q 276 948 320 984 q 231 812 231 911 l 231 470 l 205 496 q 174 531 178 524 l 174 810 q 238 992 174 942 q 434 1042 302 1042 l 554 1042 q 733 1003 673 1042 q 806 868 793 964 l 868 868 q 794 1037 867 974 q 608 1100 720 1100 l 372 1100 q 190 1038 265 1100 q 116 868 116 977 l 116 521 q 127 495 116 509 l 165 456 q 231 349 231 389 q 276 210 231 246 q 434 174 321 174 l 550 174 q 703 205 661 174 q 752 376 752 242 q 703 548 752 512 q 550 579 660 579 l 289 579 l 289 752 l 612 752 q 838 672 751 752 q 926 463 926 592 l 926 289 q 836 80 926 159 q 612 0 747 0 l 376 0 q 150 80 242 0 q 58 289 59 159 l 58 399 l 84 373 q 116 339 111 346 l 116 292 q 192 119 116 181 q 376 58 269 58 l 612 58 q 794 120 720 58 q 868 289 868 182 l 868 463 q 797 632 868 569 q 612 694 726 694 l 347 694 l 347 637 l 550 637 q 736 595 679 637 q 810 376 810 541 q 736 158 810 211 q 550 116 679 116 l 434 116 q 247 158 298 116 q 174 347 174 220 q 116 422 174 365 q 58 521 58 480 l 58 868 z "},"7":{"ha":984,"x_min":58,"x_max":926,"o":"m 637 926 q 550 984 637 984 l 58 984 l 58 1157 l 926 1157 l 926 984 l 579 550 l 579 470 l 553 496 q 521 531 532 516 l 521 569 l 868 1004 l 868 1100 l 116 1100 l 116 1042 l 550 1042 q 657 1012 616 1042 q 697 923 697 982 q 667 843 697 885 l 463 590 l 463 521 q 521 447 463 506 q 579 347 579 388 l 579 0 l 405 0 l 405 399 l 431 373 q 463 339 459 346 l 463 58 l 521 58 l 521 347 q 463 422 521 363 q 405 521 405 482 l 405 609 l 618 875 q 637 926 637 898 z "},"8":{"ha":984,"x_min":58,"x_max":926,"o":"m 58 868 q 150 1078 58 998 q 376 1157 242 1157 l 608 1157 q 833 1079 741 1157 q 926 868 926 1001 l 926 810 q 842 609 926 689 q 926 405 926 530 l 926 291 q 836 81 926 162 q 608 0 745 0 l 372 0 q 152 76 246 0 q 58 260 58 152 l 58 399 q 89 367 67 396 q 114 339 111 339 q 116 337 116 339 l 116 289 q 190 120 116 182 q 372 58 263 58 l 608 58 q 794 122 720 58 q 868 288 868 185 l 868 405 q 796 573 868 503 l 758 609 l 796 645 q 868 810 868 715 l 868 868 q 791 1038 868 977 q 608 1100 715 1100 l 376 1100 q 190 1035 263 1100 q 116 868 116 971 l 116 810 q 188 645 116 715 l 226 609 q 145 521 152 537 q 188 444 145 503 q 231 347 231 385 q 276 209 231 245 q 434 174 320 174 l 550 174 q 703 204 660 174 q 752 347 752 240 q 708 485 752 450 q 550 521 664 521 l 405 521 l 405 694 l 550 694 q 702 726 652 694 q 752 839 752 757 q 706 953 752 923 q 550 984 660 984 l 434 984 q 281 953 330 984 q 231 839 231 922 q 258 746 231 778 q 341 700 285 713 l 347 694 l 347 521 l 298 521 q 243 467 259 505 l 227 486 q 207 519 217 501 q 289 580 233 560 l 289 655 q 174 839 174 697 q 247 1000 174 946 q 434 1042 305 1042 l 550 1042 q 745 998 680 1042 q 810 839 810 953 q 744 683 809 729 q 550 637 679 637 l 463 637 l 463 579 l 550 579 q 746 529 681 579 q 810 347 810 479 q 746 166 810 216 q 550 116 681 116 l 434 116 q 243 161 305 116 q 175 318 181 207 l 174 318 l 174 347 q 130 424 174 365 q 87 521 87 483 q 142 609 113 580 q 58 810 59 689 l 58 868 z "},"9":{"ha":984,"x_min":58,"x_max":926,"o":"m 58 868 q 146 1078 58 998 q 376 1157 234 1157 l 608 1157 q 836 1078 747 1157 q 926 868 926 998 l 926 470 l 900 496 q 868 531 872 524 l 868 868 q 796 1036 868 972 q 608 1100 725 1100 l 376 1100 q 187 1037 259 1100 q 116 868 116 975 l 116 694 q 191 524 116 586 q 376 463 266 463 l 637 463 l 637 521 l 434 521 q 247 564 307 521 q 174 810 174 619 q 190 927 174 884 q 247 1001 205 969 q 434 1042 301 1042 l 550 1042 q 745 995 680 1042 q 810 810 810 948 l 810 521 q 868 447 810 506 q 926 347 926 388 l 926 275 q 896 161 926 217 q 826 74 867 104 q 608 0 726 0 l 376 0 q 152 79 245 0 q 58 289 59 158 l 58 347 l 231 347 q 276 210 231 246 q 434 174 321 174 l 550 174 q 707 211 663 174 q 752 349 752 247 l 752 399 l 777 375 q 810 339 793 359 l 810 318 q 736 159 810 214 q 550 116 677 116 l 434 116 q 241 164 297 116 q 174 289 185 213 l 116 289 q 193 120 119 182 q 376 58 268 58 l 608 58 q 791 119 715 58 q 868 289 868 181 l 868 347 q 810 422 868 363 q 752 521 752 482 l 752 810 q 708 948 752 913 q 550 984 664 984 l 434 984 q 276 948 320 984 q 231 810 231 913 q 281 611 231 647 q 434 579 326 579 l 694 579 l 694 405 l 376 405 q 149 485 239 405 q 58 694 59 564 l 58 868 z "},"\u0000":{"ha":833,"x_min":0,"x_max":0,"o":""},"\r":{"ha":833,"x_min":0,"x_max":0,"o":""},"\u0001":{"ha":833,"x_min":0,"x_max":0,"o":""},"\u0002":{"ha":833,"x_min":0,"x_max":0,"o":""},"\u0003":{"ha":833,"x_min":0,"x_max":0,"o":""},"\u0004":{"ha":833,"x_min":0,"x_max":0,"o":""},"\u0005":{"ha":833,"x_min":0,"x_max":0,"o":""},"\u0006":{"ha":833,"x_min":0,"x_max":0,"o":""},"\u0007":{"ha":833,"x_min":0,"x_max":0,"o":""},"\b":{"ha":833,"x_min":0,"x_max":0,"o":""},"\t":{"ha":833,"x_min":0,"x_max":0,"o":""},"\n":{"ha":833,"x_min":0,"x_max":0,"o":""},"\u000b":{"ha":833,"x_min":0,"x_max":0,"o":""},"\f":{"ha":833,"x_min":0,"x_max":0,"o":""},"\u000e":{"ha":833,"x_min":0,"x_max":0,"o":""},"\u000f":{"ha":833,"x_min":0,"x_max":0,"o":""},"\u0010":{"ha":833,"x_min":0,"x_max":0,"o":""},"\u0011":{"ha":833,"x_min":0,"x_max":0,"o":""},"\u0014":{"ha":833,"x_min":0,"x_max":0,"o":""},"\u0015":{"ha":833,"x_min":0,"x_max":0,"o":""},"\u0016":{"ha":833,"x_min":0,"x_max":0,"o":""},"\u0017":{"ha":833,"x_min":0,"x_max":0,"o":""},"\u0018":{"ha":833,"x_min":0,"x_max":0,"o":""},"\u0019":{"ha":833,"x_min":0,"x_max":0,"o":""},"\u001a":{"ha":833,"x_min":0,"x_max":0,"o":""},"\u001b":{"ha":833,"x_min":0,"x_max":0,"o":""},"\u001c":{"ha":833,"x_min":0,"x_max":0,"o":""},"\u001d":{"ha":833,"x_min":0,"x_max":0,"o":""},"\u001e":{"ha":833,"x_min":0,"x_max":0,"o":""},"\u001f":{"ha":833,"x_min":0,"x_max":0,"o":""}," ":{"ha":926,"x_min":0,"x_max":0,"o":""},"!":{"ha":289,"x_min":58,"x_max":231,"o":"m 145 -58 q 84 -33 110 -58 q 58 29 58 -7 l 58 116 l 231 116 l 231 29 q 205 -32 231 -10 q 145 -58 182 -58 m 145 0 q 166 9 158 0 q 174 29 174 17 l 174 58 l 116 58 l 116 29 q 124 8 116 16 q 145 0 133 0 m 174 347 q 116 422 174 363 q 58 521 58 480 l 58 1157 l 231 1157 l 231 469 q 211 490 229 473 q 174 531 192 508 l 174 1100 l 116 1100 l 116 521 q 145 477 116 505 q 203 413 174 448 q 231 347 231 378 l 231 260 l 58 260 l 58 399 q 79 378 61 395 q 116 337 97 360 l 116 318 l 174 318 l 174 347 z "},"\"":{"ha":637,"x_min":72,"x_max":579,"o":"m 579 1215 l 579 958 l 477 858 l 362 974 l 405 1021 l 405 1215 l 579 1215 m 521 1157 l 463 1157 l 463 998 l 443 975 l 477 939 l 521 985 l 521 1157 m 289 1215 l 289 958 l 188 858 l 72 974 l 116 1021 l 116 1215 l 289 1215 m 231 1157 l 174 1157 l 174 998 l 153 975 l 188 939 l 231 985 l 231 1157 z "},"#":{"ha":868,"x_min":58,"x_max":868,"o":"m 492 579 l 433 579 l 418 521 l 477 521 l 492 579 m 868 752 l 868 579 l 671 579 l 657 521 l 810 521 l 810 347 l 613 347 l 527 0 l 347 0 l 434 347 l 375 347 l 288 0 l 109 0 l 195 347 l 58 347 l 58 521 l 357 521 l 386 637 l 566 637 l 522 463 l 116 463 l 116 405 l 269 405 l 182 58 l 242 58 l 328 405 l 508 405 l 421 58 l 480 58 l 567 405 l 752 405 l 752 463 l 582 463 l 625 637 l 810 637 l 810 694 l 639 694 l 726 1042 l 667 1042 l 580 694 l 401 694 l 488 1042 l 428 1042 l 341 694 l 174 694 l 174 637 l 327 637 l 313 579 l 116 579 l 116 752 l 297 752 l 383 1100 l 563 1100 l 476 752 l 535 752 l 622 1100 l 802 1100 l 715 752 l 868 752 z "},"$":{"ha":984,"x_min":58,"x_max":926,"o":"m 58 868 q 153 1081 58 1004 q 376 1157 247 1157 l 405 1157 l 405 1273 l 579 1273 l 579 1157 l 580 1157 q 810 1077 719 1157 q 901 868 901 997 l 901 810 l 728 810 q 692 940 728 904 q 579 982 657 975 l 579 752 l 405 752 l 405 984 q 273 950 314 979 q 231 839 231 920 q 273 728 231 760 q 405 694 314 697 l 579 692 l 611 692 q 802 639 725 692 q 910 503 880 587 q 780 600 861 566 q 611 634 699 634 l 579 634 l 405 637 l 404 637 q 174 839 174 637 q 234 994 174 951 q 405 1042 295 1037 l 463 1042 l 463 810 l 521 810 l 521 1042 l 579 1040 q 721 992 673 1030 q 781 868 770 953 l 841 868 q 812 983 839 935 q 744 1055 786 1032 q 663 1089 703 1079 q 583 1100 622 1100 l 521 1100 l 521 1215 l 463 1215 l 463 1100 l 376 1100 q 193 1039 271 1100 q 116 868 116 978 l 116 810 q 192 639 116 700 q 376 579 269 579 l 405 579 l 463 577 l 463 116 l 405 116 q 174 289 194 124 l 116 289 q 190 120 116 182 q 372 58 263 58 l 463 58 l 463 -58 l 521 -58 l 521 58 l 608 58 q 798 124 728 58 q 868 295 868 191 q 796 456 868 395 q 611 518 723 518 l 579 518 l 579 174 q 703 204 667 178 q 752 333 752 250 q 752 346 752 340 q 752 353 752 353 q 765 405 752 375 q 809 314 800 373 q 745 166 800 211 q 579 116 690 120 l 521 116 l 521 577 l 579 576 l 611 576 q 903 407 819 576 q 926 289 926 359 q 829 75 926 149 q 608 0 732 0 l 579 0 l 579 -116 l 405 -116 l 405 0 l 372 0 q 146 80 234 0 q 58 289 58 161 l 58 347 l 231 347 q 271 213 231 247 q 405 174 311 178 l 405 521 l 376 521 q 148 601 239 521 q 58 810 58 681 l 58 868 z "},"%":{"ha":926,"x_min":58,"x_max":839,"o":"m 499 490 q 476 570 482 544 l 744 1100 l 680 1100 l 420 587 q 417 576 417 583 q 435 502 417 560 q 453 420 453 444 q 444 380 453 396 l 252 0 l 58 0 l 313 505 q 337 424 334 438 l 152 58 l 217 58 l 392 407 q 395 421 395 412 q 377 495 395 438 q 359 576 359 551 q 367 615 359 599 l 644 1157 l 839 1157 l 499 490 m 550 145 q 592 248 550 207 q 694 289 635 289 q 798 247 757 289 q 839 145 839 204 q 796 41 839 82 q 694 0 754 0 q 609 27 642 0 q 561 87 576 55 l 629 87 q 652 69 634 81 q 694 58 670 58 q 756 84 731 58 q 781 145 781 110 q 755 206 781 181 q 694 231 729 231 q 633 205 658 231 q 608 145 608 179 l 550 145 m 58 1013 q 101 1116 58 1075 q 203 1157 143 1157 q 306 1115 265 1157 q 347 1013 347 1072 q 305 909 347 951 q 203 868 262 868 q 117 896 150 868 q 69 955 84 923 l 137 955 q 160 938 142 949 q 203 926 178 926 q 264 952 239 926 q 289 1013 289 978 q 263 1074 289 1049 q 203 1100 237 1100 q 141 1073 166 1100 q 116 1013 116 1047 l 58 1013 z "},"&":{"ha":984,"x_min":58,"x_max":927,"o":"m 289 116 q 205 141 242 116 q 152 205 169 166 q 127 279 135 243 q 119 346 119 314 q 140 443 119 399 q 237 529 161 469 q 328 606 314 589 q 258 751 284 671 q 231 897 231 830 q 311 1078 231 998 q 492 1157 391 1157 q 673 1078 593 1157 q 752 897 752 998 q 730 772 752 823 q 639 663 707 720 l 556 577 l 748 289 q 752 347 752 313 l 926 347 l 926 289 q 867 113 926 188 l 911 49 l 927 25 l 784 -72 q 723 17 777 -64 q 637 1 680 3 l 637 0 l 255 0 q 130 42 185 0 q 58 231 58 126 q 67 304 58 272 l 69 286 q 110 174 81 234 q 166 90 139 114 q 285 58 203 58 l 621 58 q 689 67 667 61 l 745 88 l 799 7 l 846 41 l 826 71 l 790 117 l 791 119 l 793 119 l 833 163 q 868 289 868 217 l 806 289 q 790 227 802 259 l 755 174 l 480 584 l 498 600 l 599 703 q 678 797 661 765 q 694 897 694 829 q 633 1037 694 974 q 492 1100 571 1100 q 351 1038 412 1100 q 289 897 289 977 q 309 781 289 841 q 350 686 328 720 q 386 622 372 651 l 401 599 l 188 418 q 177 352 177 391 q 201 238 177 291 q 262 179 226 185 q 320 174 273 177 l 550 174 q 615 177 577 174 l 421 462 l 239 311 q 236 355 236 336 q 239 389 236 375 l 434 550 l 709 140 l 651 123 q 550 116 625 116 l 289 116 m 347 897 q 392 996 347 951 q 492 1042 437 1042 q 592 997 548 1042 q 637 897 637 952 q 624 820 637 843 q 558 744 612 797 l 448 634 l 428 664 l 411 693 l 405 702 l 404 705 l 404 706 q 402 707 402 706 q 347 897 347 820 m 579 897 q 550 954 579 924 q 492 984 522 984 q 435 956 464 984 q 405 897 405 927 q 453 734 405 816 l 454 732 l 459 726 l 518 784 q 571 842 563 829 q 579 885 579 855 q 579 891 579 887 q 579 897 579 896 z "},"'":{"ha":347,"x_min":72,"x_max":289,"o":"m 289 1215 l 289 958 l 188 858 l 72 974 l 116 1021 l 116 1215 l 289 1215 m 231 1157 l 174 1157 l 174 998 l 153 975 l 188 939 l 231 985 l 231 1157 z "},"(":{"ha":434,"x_min":58,"x_max":376,"o":"m 174 347 q 145 391 174 362 q 87 455 116 420 q 58 521 58 490 l 58 930 q 159 1143 58 1063 q 363 1215 245 1214 l 376 1215 l 376 1039 q 263 995 294 1033 q 231 868 231 956 l 231 470 q 205 495 218 483 l 174 530 l 174 874 q 318 1088 174 1052 l 318 1153 q 174 1079 231 1137 q 116 924 116 1021 l 116 521 q 174 446 116 505 q 231 347 231 386 l 231 239 q 281 88 231 111 q 376 62 324 69 l 376 -116 l 372 -116 q 88 42 185 -116 q 58 145 58 90 l 58 399 q 82 374 62 395 q 114 339 103 353 q 116 337 116 339 l 116 174 q 175 18 116 77 q 318 -54 234 -41 l 318 13 q 208 78 242 32 q 174 203 174 124 l 174 347 z "},")":{"ha":434,"x_min":58,"x_max":376,"o":"m 203 868 q 171 995 203 956 q 58 1039 140 1033 l 58 1215 l 71 1215 q 275 1143 190 1214 q 376 930 376 1063 l 376 470 q 350 495 363 483 l 318 530 l 318 924 q 260 1079 318 1021 q 116 1153 203 1137 l 116 1088 q 260 874 260 1052 l 260 521 q 318 446 260 505 q 376 347 376 386 l 376 145 q 365 84 376 117 q 330 15 354 51 q 270 -49 305 -20 q 180 -97 234 -78 q 62 -116 126 -116 l 58 -116 l 58 62 q 153 88 110 69 q 203 226 203 120 l 203 399 q 227 374 207 395 q 259 339 247 353 q 260 337 260 339 l 260 203 q 226 78 260 124 q 116 13 192 32 l 116 -54 q 259 18 200 -41 q 318 174 318 77 l 318 347 q 260 422 318 363 q 203 521 203 480 l 203 868 z "},"*":{"ha":868,"x_min":116,"x_max":752,"o":"m 752 694 l 752 521 l 583 521 l 667 373 l 516 288 l 434 433 l 352 288 l 201 373 l 252 463 l 318 463 l 281 395 l 330 367 l 434 550 l 538 367 l 587 395 l 483 579 l 694 579 l 694 637 l 483 637 l 587 820 l 538 848 l 434 666 l 330 848 l 281 820 l 385 637 l 174 637 l 174 579 l 385 579 l 352 521 l 116 521 l 116 694 l 285 694 l 201 842 l 352 927 l 434 783 l 516 927 l 667 842 l 583 694 l 752 694 z "},"+":{"ha":868,"x_min":58,"x_max":810,"o":"m 463 347 q 405 422 463 363 q 347 521 347 480 l 58 521 l 58 694 l 347 694 l 347 984 l 521 984 l 521 694 l 810 694 l 810 521 l 521 521 l 521 469 q 501 489 518 473 q 463 531 485 505 l 463 579 l 752 579 l 752 637 l 463 637 l 463 926 l 405 926 l 405 637 l 116 637 l 116 579 l 405 579 l 405 521 q 434 477 405 505 q 492 413 463 448 q 521 347 521 378 l 521 231 l 347 231 l 347 399 q 367 379 349 398 q 405 337 386 360 l 405 289 l 463 289 l 463 347 z "},",":{"ha":289,"x_min":14,"x_max":231,"o":"m 231 116 l 231 -84 l 130 -184 l 14 -68 l 58 -20 l 58 116 l 231 116 m 174 58 l 116 58 l 116 -43 l 95 -67 l 130 -103 l 174 -56 l 174 58 z "},"-":{"ha":868,"x_min":58,"x_max":810,"o":"m 752 637 l 116 637 l 116 579 l 752 579 l 752 637 m 810 694 l 810 521 l 58 521 l 58 694 l 810 694 z "},".":{"ha":289,"x_min":58,"x_max":231,"o":"m 145 -58 q 84 -33 110 -58 q 58 29 58 -7 l 58 116 l 231 116 l 231 29 q 205 -32 231 -10 q 145 -58 182 -58 m 145 0 q 166 9 158 0 q 174 29 174 17 l 174 58 l 116 58 l 116 29 q 124 8 116 16 q 145 0 133 0 z "},"/":{"ha":926,"x_min":58,"x_max":874,"o":"m 540 473 q 527 509 540 475 q 512 553 514 543 l 784 1157 l 720 1157 l 454 567 q 453 558 453 563 q 475 482 453 541 q 496 395 496 422 q 489 362 496 376 l 249 -174 l 58 -174 l 352 480 q 365 443 354 472 q 379 401 376 415 l 148 -116 l 211 -116 l 437 386 q 438 395 438 389 q 417 470 438 409 q 396 557 396 531 q 402 592 396 576 l 683 1215 l 874 1215 l 540 473 z "},":":{"ha":289,"x_min":58,"x_max":231,"o":"m 145 752 q 84 778 110 752 q 58 839 58 803 l 58 926 l 231 926 l 231 839 q 205 778 231 800 q 145 752 182 752 m 145 810 q 166 819 158 810 q 174 839 174 828 l 174 868 l 116 868 l 116 839 q 124 818 116 826 q 145 810 133 810 m 145 -58 q 84 -33 110 -58 q 58 29 58 -7 l 58 116 l 231 116 l 231 29 q 205 -32 231 -10 q 145 -58 182 -58 m 145 0 q 166 9 158 0 q 174 29 174 17 l 174 58 l 116 58 l 116 29 q 124 8 116 16 q 145 0 133 0 z "},";":{"ha":289,"x_min":14,"x_max":231,"o":"m 231 116 l 231 -84 l 130 -184 l 14 -68 l 58 -20 l 58 116 l 231 116 m 174 58 l 116 58 l 116 -43 l 95 -67 l 130 -103 l 174 -56 l 174 58 m 145 752 q 84 778 110 752 q 58 839 58 803 l 58 926 l 231 926 l 231 839 q 205 778 231 800 q 145 752 182 752 m 145 810 q 166 819 158 810 q 174 839 174 828 l 174 868 l 116 868 l 116 839 q 124 818 116 826 q 145 810 133 810 z "},"<":{"ha":579,"x_min":58,"x_max":538,"o":"m 218 399 q 227 463 218 412 q 236 535 236 514 q 231 554 236 550 l 195 609 l 467 1013 l 398 1013 l 127 606 l 178 531 l 178 530 q 163 447 178 519 l 58 608 l 366 1071 l 538 1071 l 538 1016 l 265 609 l 281 587 q 294 534 294 567 q 285 461 294 505 q 276 407 276 417 q 281 378 276 386 l 399 203 l 469 203 l 334 402 l 334 404 q 349 486 334 414 l 538 203 l 538 145 l 367 145 l 233 346 q 218 399 218 366 z "},"=":{"ha":868,"x_min":58,"x_max":810,"o":"m 752 752 l 116 752 l 116 694 l 752 694 l 752 752 m 810 810 l 810 637 l 58 637 l 58 810 l 810 810 m 752 521 l 116 521 l 116 463 l 752 463 l 752 521 m 810 579 l 810 405 l 58 405 l 58 579 l 810 579 z "},">":{"ha":579,"x_min":58,"x_max":538,"o":"m 320 407 q 311 462 320 418 q 302 524 302 505 q 302 531 302 528 q 315 587 302 567 l 331 609 l 58 1016 l 58 1071 l 230 1071 l 538 608 l 433 447 q 418 530 418 519 l 418 531 l 469 606 l 198 1013 l 129 1013 l 401 609 l 365 554 q 360 535 360 550 q 360 527 360 531 q 369 463 360 512 q 378 399 378 414 q 363 346 378 366 l 229 145 l 58 145 l 58 203 l 247 486 q 262 404 262 414 l 262 402 l 127 203 l 197 203 l 315 378 q 320 407 320 386 z "},"?":{"ha":984,"x_min":87,"x_max":926,"o":"m 492 -58 q 431 -33 457 -58 q 405 29 405 -7 l 405 116 l 579 116 l 579 29 q 553 -32 579 -10 q 492 -58 530 -58 m 492 0 q 513 9 505 0 q 521 29 521 17 l 521 58 l 463 58 l 463 29 q 472 8 463 16 q 492 0 480 0 m 87 868 q 119 1010 87 951 q 202 1099 150 1069 q 303 1142 253 1128 q 405 1157 353 1156 l 608 1157 q 825 1084 726 1157 q 926 868 926 1008 l 926 810 q 825 592 926 676 q 694 521 739 521 q 580 490 615 521 l 580 492 q 548 540 561 516 q 666 576 566 571 q 788 637 715 577 q 868 810 868 699 l 868 868 q 798 1032 868 972 q 608 1100 728 1091 l 401 1100 q 320 1089 360 1100 q 239 1055 281 1079 q 172 983 198 1032 q 145 868 146 935 l 203 868 q 276 1001 216 961 q 459 1042 337 1042 l 547 1042 q 744 996 679 1042 q 810 839 810 951 q 789 739 810 781 q 738 676 768 696 q 681 646 707 655 q 634 637 654 637 q 492 519 496 637 q 535 444 492 503 q 579 347 579 385 l 579 231 l 405 231 l 405 291 q 428 391 405 344 l 444 370 q 469 336 462 347 q 463 291 463 317 l 463 289 l 521 289 l 521 347 q 477 425 521 363 q 434 519 434 486 q 480 638 434 584 q 605 692 525 692 q 703 722 655 692 q 752 839 752 752 q 708 951 752 917 q 547 984 664 984 l 459 984 q 305 952 346 984 q 260 810 260 916 l 87 810 l 87 868 z "},"@":{"ha":1563,"x_min":58,"x_max":1505,"o":"m 463 320 q 539 149 463 211 q 723 87 615 87 l 843 87 q 984 120 920 87 l 1042 165 l 1042 87 l 1308 87 q 1447 492 1447 268 q 1357 825 1447 671 q 1114 1068 1267 978 q 781 1157 961 1157 q 448 1068 602 1157 q 205 825 295 978 q 116 492 116 671 q 205 159 116 313 q 448 -84 295 6 q 781 -174 602 -174 q 1108 -87 955 -174 l 966 -87 q 781 -116 881 -116 q 352 63 531 -116 q 174 492 174 242 q 352 921 174 742 q 781 1100 531 1100 q 1210 921 1032 1100 q 1389 492 1389 742 q 1279 145 1389 302 l 1100 145 l 1100 664 q 1028 833 1100 770 q 839 897 956 897 l 723 897 q 535 835 606 897 q 463 666 463 773 l 463 550 q 521 475 463 532 q 579 376 579 417 q 628 233 579 269 q 781 203 671 203 q 935 233 891 203 q 984 376 984 269 l 984 608 q 935 751 984 715 q 781 781 891 781 q 628 751 671 781 q 579 608 579 715 l 579 498 q 551 527 576 502 q 521 560 527 551 l 521 613 q 587 791 522 744 q 781 839 652 839 q 977 789 913 839 q 1042 608 1042 739 l 1042 376 q 977 195 1042 245 q 781 145 913 145 q 585 194 638 145 q 521 347 532 243 l 521 376 q 463 451 521 394 q 405 550 405 509 l 405 676 q 496 877 409 800 q 722 955 583 955 l 839 955 q 1068 875 978 955 q 1157 666 1157 796 l 1157 203 l 1247 203 q 1331 492 1331 334 q 1169 880 1331 718 q 781 1042 1007 1042 q 394 880 556 1042 q 231 492 231 718 q 394 104 231 266 q 781 -58 556 -58 q 956 -29 872 -58 l 1169 -29 l 1169 -117 q 781 -231 988 -231 q 271 -19 483 -231 q 58 492 58 194 q 271 1003 58 790 q 781 1215 483 1215 q 1292 1003 1079 1215 q 1505 492 1505 790 q 1335 29 1505 230 l 984 29 l 984 56 q 843 29 920 29 l 723 29 q 504 102 593 29 q 405 289 415 175 l 405 428 l 431 402 q 463 366 460 370 l 463 320 z "},"A":{"ha":984,"x_min":58,"x_max":926,"o":"m 174 347 q 116 422 174 363 q 58 521 58 482 l 58 872 q 158 1087 58 1008 q 372 1157 243 1157 l 611 1157 q 837 1075 748 1155 q 926 867 926 995 l 926 0 l 752 0 l 752 579 l 289 579 l 289 752 l 752 752 l 752 810 q 703 953 752 917 q 550 984 660 984 l 434 984 q 276 948 320 984 q 231 813 231 913 l 231 469 q 211 490 229 473 q 174 531 192 508 l 174 816 q 240 994 175 946 q 434 1042 305 1042 l 550 1042 q 746 992 681 1042 q 810 813 810 943 l 810 694 l 347 694 l 347 637 l 810 637 l 810 58 l 868 58 l 868 870 q 794 1037 867 974 q 608 1100 720 1100 l 372 1100 q 187 1037 259 1100 q 116 872 116 975 l 116 521 q 145 477 116 505 q 203 414 174 448 q 231 347 231 379 l 231 0 l 58 0 l 58 398 l 84 372 q 114 339 106 350 l 116 337 l 116 58 l 174 58 l 174 347 z "},"B":{"ha":984,"x_min":58,"x_max":927,"o":"m 174 347 q 145 394 174 365 q 87 457 116 422 q 58 521 58 492 l 58 1157 l 608 1157 q 834 1079 744 1157 q 926 871 924 1000 l 926 806 q 843 606 923 684 q 927 404 927 527 l 927 288 q 836 79 926 158 q 608 0 745 0 l 58 0 l 58 399 q 85 370 61 395 q 116 337 110 346 l 116 58 l 608 58 q 788 116 713 58 q 868 289 864 174 l 868 405 q 797 571 867 511 l 760 608 l 797 642 q 868 809 868 705 l 868 868 q 793 1037 868 975 q 608 1100 718 1100 l 117 1100 l 116 521 q 132 492 116 511 q 174 446 148 473 q 210 408 201 418 q 233 347 233 379 q 279 209 233 245 q 435 174 324 174 l 550 174 q 703 204 660 174 q 752 347 752 240 q 703 490 752 454 q 550 521 660 521 l 289 521 l 289 694 l 551 694 q 713 730 673 694 q 752 839 752 765 q 708 954 752 924 q 551 984 664 984 l 231 984 l 231 463 q 204 492 229 467 q 174 525 179 516 l 174 1042 l 551 1042 q 736 1005 679 1042 q 796 930 783 965 q 810 851 810 896 q 748 684 810 732 q 551 637 686 637 l 347 637 l 347 579 l 550 579 q 746 529 681 579 q 810 347 810 479 q 746 166 810 216 q 550 116 681 116 l 435 116 q 249 158 308 116 q 189 239 204 201 q 174 347 174 276 z "},"C":{"ha":984,"x_min":58,"x_max":926,"o":"m 58 872 q 148 1078 58 998 q 372 1157 239 1157 l 608 1157 q 836 1076 747 1155 q 926 868 924 998 l 926 810 l 752 810 q 703 953 752 917 q 550 984 660 984 l 434 984 q 281 953 324 984 q 231 810 231 917 l 231 469 q 205 497 230 472 q 174 530 179 522 l 174 816 q 239 992 174 943 q 434 1042 304 1042 l 550 1042 q 731 1003 670 1042 q 806 868 791 965 l 868 868 q 795 1035 867 974 q 608 1100 723 1097 l 372 1100 q 191 1039 266 1100 q 116 868 116 978 l 116 521 q 174 446 116 503 q 231 347 231 388 q 281 204 231 240 q 434 174 324 174 l 550 174 q 703 204 660 174 q 752 347 752 240 l 926 347 l 926 289 q 836 80 926 159 q 612 0 747 0 l 376 0 q 266 14 315 0 q 183 55 217 29 q 129 103 149 81 q 88 158 109 126 q 58 260 58 203 l 58 399 l 84 373 q 114 339 104 339 q 116 337 116 339 l 116 291 q 192 120 116 182 q 376 58 268 58 l 612 58 q 794 120 720 58 q 868 289 868 182 l 807 289 q 734 156 794 197 q 550 116 674 116 l 434 116 q 240 163 295 116 q 174 318 185 210 l 174 347 q 116 422 174 365 q 58 521 58 480 l 58 872 z "},"D":{"ha":984,"x_min":56,"x_max":926,"o":"m 174 340 q 156 381 174 359 q 116 422 137 404 q 76 468 94 441 q 58 521 58 495 l 58 1157 l 608 1157 q 836 1078 747 1157 q 926 870 926 998 l 926 288 q 833 78 924 156 q 608 0 741 0 l 58 0 l 58 399 q 79 378 61 395 q 116 337 97 360 l 116 58 l 608 58 q 793 121 719 58 q 868 288 867 184 l 868 868 q 793 1038 868 977 q 608 1100 718 1100 l 116 1100 l 116 521 q 174 446 116 505 q 231 347 231 386 q 281 204 231 240 q 434 174 324 174 l 550 174 q 703 204 660 174 q 752 347 752 240 l 752 810 q 703 953 752 917 q 550 984 660 984 l 231 984 l 231 469 q 174 530 223 480 l 174 1042 l 550 1042 q 746 992 681 1042 q 810 810 810 942 l 810 347 q 746 166 810 216 q 550 116 681 116 l 434 116 q 247 158 305 116 q 174 340 174 226 z "},"E":{"ha":984,"x_min":58,"x_max":926,"o":"m 174 347 q 116 422 174 363 q 58 521 58 480 l 58 1157 l 926 1157 l 926 984 l 231 984 l 231 752 l 637 752 l 637 579 l 231 579 l 231 469 q 211 490 229 473 q 174 531 192 508 l 174 637 l 579 637 l 579 694 l 174 694 l 174 1042 l 868 1042 l 868 1100 l 116 1100 l 116 521 q 174 446 116 505 q 231 347 231 386 q 281 204 231 240 q 434 174 324 174 l 926 174 l 926 0 l 58 0 l 58 399 q 79 378 61 395 q 116 337 97 360 l 116 58 l 868 58 l 868 116 l 434 116 q 247 158 305 116 q 174 347 174 224 z "},"F":{"ha":984,"x_min":58,"x_max":926,"o":"m 174 347 q 145 391 174 363 q 87 454 116 420 q 58 521 58 489 l 58 1157 l 926 1157 l 926 984 l 231 984 l 231 752 l 637 752 l 637 579 l 231 579 l 231 470 l 205 496 q 174 531 185 516 l 174 637 l 579 637 l 579 694 l 174 694 l 174 1042 l 868 1042 l 868 1100 l 116 1100 l 116 521 q 145 477 116 505 q 203 414 174 448 q 231 347 231 379 l 231 0 l 58 0 l 58 399 q 79 378 61 395 q 116 337 97 360 l 116 58 l 174 58 l 174 347 z "},"G":{"ha":984,"x_min":56,"x_max":926,"o":"m 58 868 q 150 1080 58 1003 q 376 1157 243 1157 l 608 1157 q 833 1079 741 1157 q 926 868 924 1001 l 926 810 l 752 810 q 703 953 752 913 q 550 984 666 984 l 434 984 q 276 948 320 984 q 231 812 231 911 l 231 469 q 174 531 195 505 l 174 810 q 238 992 174 942 q 434 1042 302 1042 l 550 1042 q 731 1003 670 1042 q 806 868 791 965 l 868 868 q 794 1037 867 974 q 608 1100 720 1100 l 376 1100 q 191 1039 266 1100 q 116 870 116 978 l 116 521 q 174 446 116 503 q 231 347 231 388 q 281 204 231 240 q 434 174 324 174 l 550 174 q 703 204 660 174 q 752 347 752 240 l 752 521 l 521 521 l 521 694 l 926 694 l 926 289 q 836 80 926 159 q 612 0 747 0 l 376 0 q 151 78 243 0 q 58 289 59 156 l 58 399 q 84 373 61 395 q 114 339 107 350 q 116 337 116 339 l 116 291 q 192 120 116 182 q 376 58 268 58 l 612 58 q 794 120 720 58 q 868 289 868 182 l 868 637 l 579 637 l 579 579 l 810 579 l 810 347 q 746 166 810 216 q 550 116 681 116 l 434 116 q 247 158 294 116 q 174 347 174 227 q 116 422 174 365 q 58 521 58 480 l 58 868 z "},"H":{"ha":984,"x_min":58,"x_max":926,"o":"m 174 347 q 116 422 174 363 q 58 521 58 480 l 58 1157 l 231 1157 l 231 752 l 752 752 l 752 1157 l 926 1157 l 926 0 l 752 0 l 752 579 l 231 579 l 231 470 l 205 496 q 174 531 185 516 l 174 637 l 810 637 l 810 58 l 868 58 l 868 1100 l 810 1100 l 810 694 l 174 694 l 174 1100 l 116 1100 l 116 521 q 174 446 116 505 q 231 347 231 386 l 231 0 l 58 0 l 58 399 q 79 378 61 395 q 116 337 97 360 l 116 58 l 174 58 l 174 347 z "},"I":{"ha":289,"x_min":58,"x_max":231,"o":"m 174 347 q 116 422 174 365 q 58 521 58 480 l 58 1157 l 231 1157 l 231 469 q 204 498 229 473 q 174 531 179 522 l 174 1100 l 116 1100 l 116 521 q 174 446 116 503 q 231 347 231 388 l 231 0 l 58 0 l 58 399 l 84 373 q 116 337 113 341 l 116 58 l 174 58 l 174 347 z "},"J":{"ha":694,"x_min":58,"x_max":637,"o":"m 579 347 q 521 422 579 365 q 463 521 463 480 l 463 1157 l 637 1157 l 637 469 q 609 498 634 473 q 579 531 584 522 l 579 1100 l 521 1100 l 521 521 q 579 446 521 503 q 637 347 637 388 l 637 289 q 547 80 637 159 q 323 0 457 0 l 58 0 l 58 174 l 260 174 q 418 204 373 174 q 463 320 463 234 l 463 399 q 521 337 503 359 l 521 320 q 456 161 521 207 q 260 116 392 116 l 116 116 l 116 58 l 323 58 q 505 120 431 58 q 579 289 579 182 l 579 347 z "},"K":{"ha":984,"x_min":58,"x_max":926,"o":"m 174 346 q 145 391 174 363 q 87 452 116 418 q 58 519 58 486 l 58 1157 l 231 1157 l 231 788 l 868 1157 l 868 959 l 501 744 l 926 64 l 926 0 l 761 0 l 424 538 q 324 622 372 622 q 231 587 289 622 l 231 467 q 209 490 227 473 q 174 530 191 506 l 174 618 q 328 681 276 681 q 407 650 370 681 q 488 547 443 619 l 793 58 l 861 58 l 418 761 l 810 991 l 810 1058 l 174 687 l 174 1100 l 116 1100 l 116 519 q 145 475 116 502 q 203 413 174 447 q 231 347 231 379 l 231 0 l 58 0 l 58 398 q 80 375 62 392 q 116 336 98 359 l 116 58 l 174 58 l 174 346 z "},"L":{"ha":868,"x_min":58,"x_max":810,"o":"m 174 347 q 116 422 174 363 q 58 521 58 480 l 58 1157 l 231 1157 l 231 469 q 211 490 229 473 q 174 531 192 508 l 174 1100 l 116 1100 l 116 521 q 145 477 116 505 q 203 413 174 448 q 231 347 231 378 q 281 204 231 240 q 434 174 324 174 l 810 174 l 810 0 l 58 0 l 58 399 q 82 374 62 395 q 114 339 103 353 q 116 337 116 339 l 116 58 l 752 58 l 752 116 l 434 116 q 247 158 305 116 q 174 347 174 224 z "},"M":{"ha":1042,"x_min":58,"x_max":984,"o":"m 174 347 q 145 391 174 363 q 87 454 116 420 q 58 521 58 489 l 58 1157 l 224 1157 l 521 826 l 817 1157 l 984 1157 l 984 0 l 810 0 l 810 806 q 793 849 810 849 q 762 835 775 849 l 521 566 l 281 835 q 252 851 265 851 q 245 848 249 851 q 236 834 240 845 q 231 806 231 823 l 231 469 q 205 496 223 479 q 174 530 188 512 l 174 810 q 236 904 174 888 l 243 906 q 255 907 250 907 q 318 878 294 907 l 521 652 q 720 874 689 842 q 784 907 751 906 q 845 880 822 907 q 868 810 868 854 l 868 58 l 926 58 l 926 1100 l 843 1100 l 521 739 l 198 1100 l 116 1100 l 116 521 q 145 477 116 505 q 203 414 174 448 q 231 347 231 379 l 231 0 l 58 0 l 58 399 q 90 367 64 394 q 116 337 116 340 l 116 58 l 174 58 l 174 347 z "},"N":{"ha":984,"x_min":58,"x_max":926,"o":"m 926 1157 l 926 0 l 752 0 q 752 308 752 0 l 281 835 q 249 851 265 851 q 231 815 231 851 l 231 469 q 205 496 223 479 q 174 530 188 512 l 174 806 q 236 904 174 888 l 243 906 q 255 907 250 907 q 311 885 285 907 l 796 347 l 810 333 l 810 58 l 868 58 l 868 1100 l 810 1100 l 810 637 q 728 550 797 550 q 658 586 687 550 l 198 1100 l 116 1100 l 116 521 q 145 477 116 505 q 203 414 174 448 q 231 347 231 379 l 231 0 l 58 0 l 58 399 q 90 367 64 394 q 116 337 116 340 l 116 58 l 174 58 l 174 347 q 145 391 174 363 q 87 454 116 420 q 58 521 58 489 l 58 1157 l 224 1157 l 705 622 q 731 608 718 608 q 752 651 752 608 l 752 1157 l 926 1157 z "},"O":{"ha":984,"x_min":58,"x_max":926,"o":"m 174 347 q 116 422 174 363 q 58 521 58 480 l 58 872 q 159 1085 58 1005 q 376 1157 246 1157 l 608 1157 q 836 1078 747 1157 q 926 870 926 998 l 926 291 q 836 81 926 162 q 608 0 745 0 l 372 0 q 88 158 185 0 q 58 260 58 205 l 58 399 q 82 374 62 395 q 114 339 103 353 q 116 337 116 339 l 116 289 q 190 120 116 182 q 372 58 263 58 l 608 58 q 794 122 720 58 q 868 288 868 185 l 868 868 q 797 1034 868 972 q 608 1100 726 1097 l 376 1100 q 190 1037 265 1100 q 116 867 116 974 l 116 521 q 145 477 116 505 q 203 414 174 448 q 231 347 231 379 q 281 204 231 240 q 434 174 324 174 l 550 174 q 703 204 660 174 q 752 347 752 240 l 752 810 q 703 953 752 917 q 550 984 660 984 l 434 984 q 281 953 324 984 q 231 810 231 917 l 231 469 q 174 530 223 480 l 174 816 q 239 992 174 943 q 434 1042 304 1042 l 550 1042 q 746 992 681 1042 q 810 810 810 942 l 810 347 q 746 166 810 216 q 550 116 681 116 l 434 116 q 242 161 305 116 q 174 318 179 207 l 174 347 z "},"P":{"ha":984,"x_min":58,"x_max":926,"o":"m 174 347 q 116 422 174 363 q 58 521 58 482 l 58 1157 l 612 1157 q 838 1079 749 1157 q 926 872 926 1000 l 926 631 q 837 427 926 505 q 612 349 748 349 l 291 347 l 289 521 l 550 521 q 708 556 664 521 q 752 693 752 592 l 752 813 q 708 948 752 913 q 550 984 664 984 l 231 984 l 231 469 q 203 498 227 475 q 175 530 179 522 l 174 1042 l 550 1042 q 747 992 683 1042 q 810 810 810 942 l 810 690 q 747 511 810 560 q 550 463 684 463 l 347 463 l 347 405 q 612 407 476 407 q 797 469 726 407 q 868 631 868 531 l 868 870 q 796 1038 868 977 q 608 1100 725 1100 l 116 1100 l 116 521 q 145 478 116 506 q 203 414 174 450 q 231 347 231 379 l 231 0 l 58 0 l 58 398 l 84 372 q 116 339 111 344 l 116 58 l 174 58 l 174 347 z "},"Q":{"ha":984,"x_min":58,"x_max":926,"o":"m 608 1157 q 836 1078 745 1157 q 926 870 926 998 l 926 288 q 854 99 926 171 q 686 9 783 27 l 761 -110 l 761 -174 l 596 -174 l 485 0 l 372 0 q 142 84 226 0 q 58 289 58 168 l 58 399 l 82 373 q 116 336 113 340 l 116 289 q 188 121 116 184 q 372 58 260 58 l 516 58 l 628 -116 l 696 -116 l 584 58 l 624 58 q 792 119 716 58 q 868 291 868 181 l 868 868 q 793 1038 868 977 q 608 1100 718 1100 l 376 1100 q 188 1035 260 1100 q 116 867 116 971 l 116 521 q 145 477 116 505 q 203 414 174 448 q 231 347 231 379 l 231 323 q 279 205 231 237 q 433 174 327 174 l 550 174 q 703 204 660 174 q 752 347 752 240 l 752 810 q 708 948 752 911 q 550 984 664 984 l 434 984 q 279 951 326 984 q 231 825 231 917 l 231 463 q 174 524 223 475 l 174 810 q 238 992 174 942 q 434 1042 302 1042 l 550 1042 q 746 992 681 1042 q 810 810 810 942 l 810 347 q 746 166 810 216 q 550 116 681 116 l 421 116 q 234 169 294 116 q 174 344 175 221 l 174 347 q 145 391 174 363 q 87 455 116 420 q 58 521 58 490 l 58 874 q 149 1078 59 998 q 376 1157 239 1157 l 608 1157 z "},"R":{"ha":984,"x_min":58,"x_max":926,"o":"m 174 347 q 116 422 174 363 q 58 521 58 482 l 58 1157 l 612 1157 q 838 1079 749 1157 q 926 872 926 1000 l 926 631 q 867 458 926 524 q 734 367 809 392 l 926 64 l 926 0 l 761 0 l 538 347 l 289 347 l 289 521 l 550 521 q 708 556 664 521 q 752 693 752 592 l 752 813 q 708 948 752 913 q 550 984 664 984 l 231 984 l 231 469 q 203 498 227 475 q 175 530 179 522 l 174 1042 l 550 1042 q 747 992 683 1042 q 810 810 810 942 l 810 690 q 747 511 810 560 q 550 463 684 463 l 347 463 l 347 405 l 571 405 l 793 58 l 861 58 l 638 408 l 702 418 q 820 491 771 438 q 868 631 868 544 l 868 870 q 796 1038 868 977 q 608 1100 725 1100 l 116 1100 l 116 521 q 145 478 116 506 q 203 414 174 450 q 231 347 231 379 l 231 0 l 58 0 l 58 398 l 84 372 q 116 339 111 344 l 116 58 l 174 58 l 174 347 z "},"S":{"ha":984,"x_min":58,"x_max":926,"o":"m 58 868 q 153 1081 58 1004 q 376 1157 247 1157 l 579 1157 q 809 1078 719 1157 q 901 868 900 998 l 901 810 l 728 810 q 679 953 728 917 q 525 984 635 984 l 437 984 q 278 953 324 984 q 231 839 231 923 q 278 725 231 755 q 434 694 324 694 q 611 692 582 692 q 802 639 725 692 q 910 503 880 587 q 862 551 888 530 q 746 613 802 593 q 622 634 690 634 q 611 634 616 634 q 407 637 569 634 l 404 637 q 174 839 174 641 q 239 998 174 953 q 437 1042 305 1042 l 525 1042 q 709 1001 650 1042 q 781 868 768 961 l 841 868 q 812 983 839 935 q 744 1055 786 1032 q 663 1089 703 1079 q 583 1100 622 1100 l 376 1100 q 193 1039 271 1100 q 116 868 116 978 l 116 810 q 192 639 116 700 q 376 579 269 579 q 493 577 447 579 q 611 576 540 576 q 826 505 741 576 q 901 410 877 457 q 926 289 926 363 q 833 78 924 156 q 608 0 741 0 l 372 0 q 146 80 234 0 q 58 289 58 161 l 58 347 l 231 347 q 276 209 231 245 q 434 174 320 174 l 550 174 q 655 183 615 174 q 715 216 694 192 q 744 268 736 240 q 752 347 751 297 q 765 405 752 367 q 809 314 800 373 q 739 160 800 204 q 550 116 677 116 l 434 116 q 249 156 313 116 q 174 289 185 197 l 116 289 q 190 120 116 182 q 372 58 263 58 l 608 58 q 791 120 719 58 q 868 289 864 182 q 796 456 868 394 q 611 518 725 518 q 493 519 540 518 q 376 521 447 521 q 148 601 239 521 q 58 810 58 681 l 58 868 z "},"T":{"ha":984,"x_min":58,"x_max":926,"o":"m 521 347 q 463 422 521 365 q 405 521 405 480 l 405 985 l 58 984 l 58 1157 l 926 1157 l 926 985 l 579 984 l 579 469 q 551 498 576 473 q 521 531 527 522 l 521 1042 l 868 1042 l 868 1100 l 116 1100 l 116 1042 l 463 1042 l 463 521 q 521 446 463 503 q 579 347 579 388 l 579 0 l 405 0 l 405 399 q 433 370 408 395 q 463 337 457 346 l 463 58 l 521 58 l 521 347 z "},"U":{"ha":984,"x_min":56,"x_max":926,"o":"m 926 1157 l 926 0 l 372 0 q 147 80 236 0 q 58 289 58 161 l 58 399 q 82 374 62 395 q 114 339 103 353 q 116 337 116 339 l 116 289 q 190 120 116 182 q 372 58 263 58 l 868 58 l 868 1100 l 810 1100 l 810 347 q 746 166 810 216 q 550 116 681 116 l 434 116 q 247 158 305 116 q 174 340 174 226 q 156 381 174 359 q 116 422 137 404 q 76 468 94 441 q 58 521 58 495 l 58 1157 l 231 1157 l 231 470 q 174 531 185 516 l 174 1100 l 116 1100 l 116 521 q 174 446 116 505 q 231 347 231 388 q 281 204 231 240 q 434 174 324 174 l 550 174 q 708 210 664 174 q 752 347 752 246 l 752 1157 l 926 1157 z "},"V":{"ha":984,"x_min":58,"x_max":926,"o":"m 926 1157 l 579 0 l 405 0 l 289 382 q 307 372 297 378 q 321 365 318 366 q 362 341 354 347 l 363 340 l 447 58 l 535 58 l 848 1100 l 788 1100 l 569 370 q 495 301 541 305 q 415 366 440 301 q 374 401 409 382 q 302 444 339 420 q 255 499 265 469 q 58 1157 90 1046 l 239 1157 l 435 499 q 394 523 418 511 q 363 541 370 535 l 362 541 l 194 1100 l 135 1100 l 310 515 q 386 461 314 501 q 470 383 459 421 q 492 359 479 369 q 502 369 495 359 q 514 391 509 379 l 745 1157 l 926 1157 z "},"W":{"ha":1042,"x_min":58,"x_max":984,"o":"m 58 399 q 90 367 64 394 q 116 337 116 340 l 116 58 l 198 58 l 521 418 l 843 58 l 926 58 l 926 1100 l 868 1100 l 868 347 q 842 274 868 298 q 786 250 816 250 q 720 281 748 250 l 521 503 l 323 284 q 258 250 299 250 q 200 274 224 250 q 174 334 177 298 l 174 347 q 145 391 174 363 q 87 454 116 420 q 58 521 58 489 l 58 1157 l 231 1157 l 231 463 q 205 490 223 473 q 174 524 188 506 l 174 1100 l 116 1100 l 116 521 q 172 448 116 503 q 231 352 229 392 q 253 308 231 308 q 281 323 266 308 l 521 590 l 762 323 q 790 308 773 308 q 810 352 810 308 l 810 1157 l 984 1157 l 984 0 l 819 0 l 521 331 l 224 0 l 58 0 l 58 399 z "},"X":{"ha":984,"x_min":58,"x_max":926,"o":"m 926 1157 l 926 1082 l 603 573 l 926 64 l 926 0 l 761 0 l 501 409 l 433 304 q 417 386 420 369 l 467 467 l 534 467 l 793 58 l 861 58 l 534 571 l 868 1100 l 800 1100 l 595 775 q 501 712 558 712 q 405 780 446 712 l 201 1100 l 132 1100 l 466 573 l 362 409 q 359 391 359 402 q 369 326 359 375 q 379 250 379 276 q 367 201 379 220 l 240 0 l 58 0 l 58 36 l 249 337 q 265 255 262 272 l 140 58 l 208 58 l 318 231 q 324 252 324 239 q 313 314 324 266 q 301 388 301 362 q 314 440 301 420 l 373 530 q 396 571 386 547 l 58 1110 l 58 1157 l 231 1157 l 457 803 q 501 770 476 770 q 541 799 522 770 l 768 1157 l 926 1157 z "},"Y":{"ha":984,"x_min":58,"x_max":926,"o":"m 926 1157 l 926 1095 l 579 547 l 579 470 q 553 497 576 475 q 521 531 530 519 l 521 564 l 859 1100 l 791 1100 l 580 767 q 492 713 544 713 q 412 754 453 713 l 192 1100 l 124 1100 l 463 566 l 463 521 q 492 478 463 506 q 550 414 521 450 q 579 347 579 379 l 579 0 l 405 0 l 405 399 q 430 375 408 396 q 463 339 451 353 l 463 58 l 521 58 l 521 347 q 463 423 521 365 q 405 521 405 482 l 405 548 l 58 1095 l 58 1157 l 223 1157 l 447 804 q 492 771 466 771 q 532 800 515 771 l 760 1157 l 926 1157 z "},"Z":{"ha":984,"x_min":58,"x_max":926,"o":"m 632 919 q 613 964 632 943 q 550 984 595 984 l 58 984 l 58 1157 l 926 1157 l 926 984 l 378 297 q 374 339 378 305 q 370 380 370 372 l 868 1004 l 868 1100 l 116 1100 l 116 1042 l 550 1042 q 656 1003 621 1042 q 692 919 692 964 q 660 835 692 883 l 326 417 q 318 370 318 408 q 366 203 318 246 q 492 174 404 174 l 926 174 l 926 0 l 58 0 l 58 174 l 198 350 q 202 315 198 344 q 205 268 205 286 l 205 266 l 116 153 l 116 58 l 868 58 l 868 116 l 514 116 q 321 166 382 116 q 260 347 260 216 q 259 369 259 356 q 281 453 259 427 l 613 871 q 632 919 632 894 z "},"[":{"ha":405,"x_min":58,"x_max":347,"o":"m 174 347 q 145 391 174 362 q 87 455 116 420 q 58 521 58 490 l 58 1215 l 347 1215 l 347 1042 l 231 1042 l 231 469 q 212 489 229 473 q 174 531 195 505 l 174 1100 l 289 1100 l 289 1157 l 116 1157 l 116 521 q 174 446 116 505 q 231 347 231 386 l 231 -58 l 347 -58 l 347 -231 l 58 -231 l 58 399 q 78 379 59 398 q 116 337 97 360 l 116 -174 l 289 -174 l 289 -116 l 174 -116 l 174 347 z "},"\\":{"ha":926,"x_min":58,"x_max":868,"o":"m 58 1215 l 247 1215 l 570 493 q 492 525 527 508 l 210 1157 l 146 1157 l 444 492 q 485 465 447 479 q 565 430 522 451 q 621 380 608 409 l 868 -174 l 679 -174 l 441 357 q 476 344 443 357 q 518 326 509 330 l 715 -116 l 778 -116 l 567 357 q 522 387 560 373 q 445 420 485 401 q 391 469 405 438 l 58 1215 z "},"]":{"ha":405,"x_min":58,"x_max":347,"o":"m 289 347 q 260 391 289 363 q 203 454 231 420 q 174 521 174 489 l 174 1042 l 58 1042 l 58 1215 l 347 1215 l 347 470 q 289 531 301 516 l 289 1157 l 116 1157 l 116 1100 l 231 1100 l 231 521 q 260 477 231 505 q 318 414 289 448 q 347 347 347 379 l 347 -231 l 58 -231 l 58 -58 l 174 -58 l 174 399 q 194 379 175 398 q 231 337 213 360 l 231 -116 l 116 -116 l 116 -174 l 289 -174 l 289 347 z "},"^":{"ha":868,"x_min":152,"x_max":716,"o":"m 434 1146 l 200 984 l 299 984 l 433 1078 l 569 984 l 671 984 l 434 1146 m 434 1215 l 716 1024 l 716 926 l 553 926 l 433 1008 l 315 926 l 152 926 l 152 1024 l 434 1215 z "},"_":{"ha":926,"x_min":58,"x_max":868,"o":"m 810 -116 l 116 -116 l 116 -174 l 810 -174 l 810 -116 m 868 -59 l 868 -231 l 58 -231 l 58 -58 l 868 -59 z "},"`":{"ha":868,"x_min":253,"x_max":615,"o":"m 253 1059 l 253 1157 l 418 1157 l 615 1024 l 615 926 l 451 926 l 253 1059 m 557 984 l 557 992 l 401 1100 l 311 1100 l 311 1091 l 467 984 l 557 984 z "},"a":{"ha":868,"x_min":58,"x_max":810,"o":"m 116 289 q 188 121 116 184 q 372 58 260 58 l 752 58 l 752 347 q 737 376 752 357 q 695 422 722 395 q 660 460 668 450 q 637 521 637 488 l 637 579 q 587 722 637 686 q 434 752 544 752 l 174 752 l 174 926 l 495 926 q 710 855 631 926 q 810 651 810 765 l 810 469 q 783 498 807 473 q 752 531 758 522 l 752 648 q 680 806 752 744 q 495 868 608 868 l 231 868 l 231 810 l 434 810 q 628 762 563 810 q 694 584 693 715 l 694 521 q 752 446 694 505 q 810 347 810 386 l 810 0 l 372 0 q 149 79 239 0 q 58 289 59 158 q 150 499 58 420 q 376 579 242 579 l 579 579 l 579 405 l 405 405 q 268 375 305 405 q 231 289 231 344 q 273 203 231 231 q 434 174 315 174 q 587 204 544 174 q 637 347 637 240 l 637 399 q 666 370 642 398 q 694 337 690 341 l 694 318 q 621 158 694 211 q 434 116 563 116 q 240 153 307 116 q 174 289 174 191 q 250 431 174 394 q 376 463 313 463 l 521 463 l 521 521 l 376 521 q 190 456 263 521 q 116 289 116 392 z "},"b":{"ha":868,"x_min":58,"x_max":810,"o":"m 174 349 q 116 424 174 365 q 58 522 58 483 l 58 1157 l 231 1157 l 231 926 l 492 926 q 717 848 625 926 q 810 637 809 770 l 810 284 q 718 77 809 155 q 496 0 628 0 l 373 0 q 148 80 237 0 q 58 289 58 161 l 58 399 l 84 373 q 116 337 113 341 l 116 289 q 188 122 116 185 q 373 58 260 58 l 496 58 q 679 120 605 58 q 752 289 752 182 l 752 635 q 676 806 752 744 q 492 868 600 868 l 174 868 l 174 1100 l 116 1100 l 116 522 q 145 478 116 506 q 203 415 174 450 q 231 349 231 380 l 231 320 q 277 204 231 234 q 434 174 323 174 q 592 209 548 174 q 637 347 637 245 l 637 579 q 592 717 637 681 q 434 752 548 752 q 277 722 323 752 q 231 606 231 692 l 231 470 q 204 499 229 475 q 174 532 179 524 l 174 613 q 242 768 175 726 q 434 810 310 810 q 630 760 566 810 q 694 579 694 710 l 694 347 q 630 166 694 216 q 434 116 566 116 q 239 161 302 116 q 174 318 175 205 l 174 349 z "},"c":{"ha":868,"x_min":58,"x_max":810,"o":"m 58 637 q 145 846 58 765 q 372 926 233 926 l 492 926 q 720 846 631 926 q 810 637 810 767 l 631 637 q 582 725 621 697 q 434 752 544 752 q 281 722 324 752 q 231 579 231 686 l 231 469 q 209 491 227 475 q 174 531 191 508 l 174 584 q 239 761 174 712 q 434 810 304 810 q 593 784 535 810 q 676 694 651 758 l 745 694 q 664 818 728 768 q 492 868 600 868 l 372 868 q 187 805 259 868 q 116 638 116 742 l 116 521 q 145 476 116 503 q 203 414 174 448 q 231 347 231 380 q 281 204 231 240 q 434 174 324 174 q 553 190 511 174 q 610 227 596 205 q 632 289 624 249 l 810 289 q 721 80 810 161 q 492 0 632 0 l 376 0 q 148 80 239 0 q 58 289 58 161 l 58 399 l 84 373 q 116 337 113 341 l 116 291 q 192 120 116 182 q 376 58 268 58 l 492 58 q 662 107 596 58 q 747 231 728 156 l 676 231 q 600 145 655 174 q 434 116 544 116 q 247 158 298 116 q 174 318 174 218 l 174 347 q 145 392 174 365 q 87 454 116 420 q 58 521 58 488 l 58 637 z "},"d":{"ha":868,"x_min":58,"x_max":810,"o":"m 174 347 q 116 422 174 365 q 58 521 58 480 l 58 641 q 158 855 58 768 q 376 926 242 926 l 637 926 l 637 1157 l 810 1157 l 810 0 l 376 0 q 157 73 246 0 q 58 260 68 146 l 58 399 l 84 373 q 116 337 113 341 l 116 291 q 192 120 116 182 q 376 58 268 58 l 752 58 l 752 1100 l 694 1100 l 694 868 l 376 868 q 133 728 203 868 q 116 634 116 692 l 116 521 q 174 446 116 503 q 231 347 231 388 q 281 204 231 240 q 434 174 324 174 q 587 204 544 174 q 637 347 637 240 l 637 579 q 587 722 637 686 q 434 752 544 752 q 281 722 324 752 q 231 579 231 686 l 231 469 q 204 498 229 473 q 174 531 179 522 l 174 584 q 239 761 174 712 q 434 810 304 810 q 629 762 564 810 q 694 583 693 713 l 694 347 q 630 166 694 216 q 434 116 566 116 q 243 161 313 116 q 174 318 174 205 l 174 347 z "},"e":{"ha":868,"x_min":58,"x_max":810,"o":"m 58 637 q 145 846 58 767 q 376 926 233 926 l 492 926 q 720 846 631 926 q 810 637 810 767 l 810 405 l 289 405 l 289 579 l 637 579 q 587 722 637 686 q 433 752 544 752 q 276 716 320 752 q 231 579 231 680 l 231 469 q 209 491 227 475 q 174 531 191 508 l 174 584 q 239 761 174 712 q 433 810 304 810 q 630 760 566 810 q 694 579 694 710 l 694 521 l 347 521 l 347 463 l 752 463 l 752 635 q 681 804 752 741 q 492 868 609 868 l 376 868 q 187 806 259 868 q 116 637 116 744 l 116 521 q 174 446 116 505 q 231 347 231 386 q 276 209 231 245 q 433 174 320 174 q 582 200 540 174 q 632 289 624 227 l 810 289 q 720 80 810 161 q 495 0 631 0 l 376 0 q 154 75 250 0 q 58 260 58 149 l 58 399 q 88 366 75 382 q 105 344 100 350 q 114 339 110 339 q 116 337 116 339 l 116 291 q 192 120 116 182 q 376 58 268 58 l 495 58 q 659 106 592 58 q 747 231 726 153 l 676 231 q 592 141 648 166 q 433 116 535 116 q 247 158 294 116 q 174 347 174 226 q 159 375 174 357 q 118 421 145 394 q 81 460 91 448 q 58 521 58 488 l 58 637 z "},"f":{"ha":521,"x_min":58,"x_max":463,"o":"m 58 868 q 148 1078 58 998 q 372 1157 237 1157 l 463 1157 l 463 984 l 434 984 q 277 953 323 984 q 231 839 231 923 l 231 810 l 405 810 l 405 637 l 231 637 l 231 469 q 204 498 229 473 q 174 531 179 522 l 174 694 l 347 694 l 347 752 l 174 752 l 174 838 q 231 991 174 943 q 405 1042 289 1039 l 405 1100 l 372 1100 q 190 1037 263 1100 q 116 868 116 975 l 116 521 q 174 446 116 503 q 231 347 231 388 l 231 0 l 58 0 l 58 399 l 84 373 q 116 337 113 341 l 116 58 l 174 58 l 174 347 q 116 422 174 365 q 58 521 58 480 l 58 868 z "},"g":{"ha":868,"x_min":58,"x_max":810,"o":"m 58 637 q 145 846 58 765 q 372 926 233 926 l 492 926 q 720 846 631 926 q 810 637 810 767 l 810 58 q 718 -152 810 -72 q 492 -231 626 -231 l 174 -231 l 174 -58 l 448 -58 q 599 0 563 -58 l 376 0 q 159 72 245 0 q 58 260 58 161 l 58 399 l 84 373 q 116 337 113 341 l 116 291 q 192 120 116 182 q 376 58 268 58 l 676 58 q 660 -2 670 23 q 626 -56 650 -27 q 558 -101 603 -85 q 448 -116 514 -116 l 231 -116 l 231 -174 l 492 -174 q 676 -111 600 -174 q 752 59 752 -49 l 752 635 q 681 804 752 741 q 492 868 609 868 l 372 868 q 187 805 258 868 q 116 637 116 742 l 116 521 q 174 446 116 503 q 231 347 231 388 q 281 204 231 240 q 434 174 324 174 q 587 204 544 174 q 637 347 637 240 l 637 579 q 587 722 637 686 q 434 752 544 752 q 281 722 324 752 q 231 579 231 686 l 231 469 q 204 498 229 473 q 174 531 179 522 l 174 584 q 239 761 174 712 q 434 810 304 810 q 630 760 566 810 q 694 579 694 710 l 694 347 q 630 166 694 216 q 434 116 566 116 q 247 158 305 116 q 174 318 174 211 l 174 347 q 116 422 174 365 q 58 521 58 480 l 58 637 z "},"h":{"ha":868,"x_min":58,"x_max":810,"o":"m 174 349 q 116 424 174 365 q 58 522 58 483 l 58 1157 l 231 1157 l 231 926 l 492 926 q 717 848 625 926 q 810 637 809 770 l 810 0 l 637 0 l 637 579 q 587 722 637 686 q 448 752 547 749 l 418 752 q 273 714 314 749 q 231 579 231 679 l 231 470 q 204 499 229 475 q 174 532 179 524 l 174 584 q 237 760 175 713 q 415 810 298 807 l 451 810 q 633 758 571 807 q 694 579 694 709 l 694 58 l 752 58 l 752 635 q 676 806 752 744 q 492 868 600 868 l 174 868 l 174 1100 l 116 1100 l 116 522 q 145 478 116 506 q 203 415 174 450 q 231 349 231 380 l 231 0 l 58 0 l 58 399 l 84 373 q 116 337 113 341 l 116 58 l 174 58 l 174 349 z "},"i":{"ha":289,"x_min":58,"x_max":231,"o":"m 145 984 q 84 1009 110 984 q 58 1071 58 1034 l 58 1157 l 231 1157 l 231 1071 q 205 1010 231 1032 q 145 984 182 984 m 145 1042 q 166 1050 158 1042 q 174 1071 174 1059 l 174 1100 l 116 1100 l 116 1071 q 124 1050 116 1058 q 145 1042 133 1042 m 174 347 q 116 422 174 365 q 58 521 58 480 l 58 926 l 231 926 l 231 469 q 205 497 230 472 q 174 530 179 522 l 174 868 l 116 868 l 116 521 q 174 446 116 503 q 231 347 231 388 l 231 0 l 58 0 l 58 399 l 84 373 q 116 337 116 341 l 116 58 l 174 58 l 174 347 z "},"j":{"ha":347,"x_min":0,"x_max":289,"o":"m 203 984 q 142 1009 168 984 q 116 1071 116 1034 l 116 1157 l 289 1157 l 289 1071 q 263 1010 289 1032 q 203 984 240 984 m 203 1042 q 224 1050 216 1042 q 231 1071 231 1059 l 231 1100 l 174 1100 l 174 1071 q 182 1050 174 1058 q 203 1042 191 1042 m 231 347 q 203 392 231 365 q 145 454 174 420 q 116 521 116 488 l 116 926 l 289 926 l 289 469 q 268 490 286 473 q 231 530 250 508 l 231 868 l 174 868 l 174 521 q 203 476 174 503 q 260 414 231 448 q 289 347 289 380 l 289 58 q 205 -147 289 -69 q 0 -231 120 -224 l 0 -52 q 85 -16 54 -45 q 116 88 116 13 l 116 399 q 174 337 156 359 l 174 88 q 58 -98 174 -56 l 58 -163 q 181 -88 130 -143 q 231 58 231 -33 l 231 347 z "},"k":{"ha":868,"x_min":58,"x_max":810,"o":"m 174 347 q 116 422 174 365 q 58 521 58 480 l 58 1157 l 231 1157 l 231 673 l 670 926 l 752 926 l 752 775 l 515 638 q 726 552 644 631 q 810 352 809 473 l 810 0 l 637 0 l 637 349 q 584 440 637 417 q 435 463 532 463 l 233 463 q 181 521 230 472 l 435 521 q 632 479 569 521 q 694 324 694 437 l 694 58 l 752 58 l 752 349 q 680 516 752 453 q 492 579 608 579 l 434 579 l 434 655 l 694 807 l 694 875 l 246 615 l 174 615 l 174 1100 l 116 1100 l 116 521 q 174 446 116 503 q 231 349 231 388 l 231 0 l 58 0 l 58 399 l 84 373 q 116 337 116 341 l 116 58 l 174 58 l 174 347 z "},"l":{"ha":521,"x_min":58,"x_max":463,"o":"m 174 347 q 116 422 174 362 q 58 521 58 483 l 58 1157 l 231 1157 l 231 469 q 204 498 229 473 q 174 531 179 522 l 174 1100 l 116 1100 l 116 521 q 145 477 116 506 q 203 413 174 448 q 231 347 231 378 l 231 299 q 282 200 231 226 q 435 174 333 174 l 463 174 l 463 0 l 372 0 q 146 80 234 0 q 58 289 58 161 l 58 399 q 116 337 98 359 l 116 289 q 188 121 116 184 q 372 58 260 58 l 404 58 l 404 116 q 323 125 360 117 q 251 151 286 133 q 195 205 216 169 q 174 289 174 240 l 174 347 z "},"m":{"ha":1215,"x_min":58,"x_max":1157,"o":"m 174 349 q 116 424 174 366 q 58 522 58 482 l 58 926 l 839 926 q 1067 845 977 926 q 1157 635 1157 764 l 1157 0 l 984 0 l 984 579 q 935 722 984 686 q 839 752 887 752 q 694 579 694 752 l 694 0 l 521 0 l 521 579 q 487 707 521 670 q 376 752 453 744 q 231 579 231 752 l 231 470 q 204 499 229 475 q 174 532 179 524 l 174 598 q 243 768 178 726 q 376 810 307 810 q 505 768 441 810 q 579 579 579 715 l 579 58 l 637 58 l 637 579 q 706 768 637 718 q 839 810 764 810 q 968 768 904 810 q 1042 579 1042 715 l 1042 58 l 1100 58 l 1100 637 q 1025 805 1098 742 q 839 868 952 868 l 116 868 l 116 522 q 174 447 116 505 q 231 349 231 389 l 231 0 l 58 0 l 58 399 l 84 373 q 116 337 113 341 l 116 58 l 174 58 l 174 349 z "},"n":{"ha":868,"x_min":58,"x_max":810,"o":"m 174 349 q 116 424 174 366 q 58 522 58 482 l 58 926 l 492 926 q 717 848 625 926 q 810 637 809 770 l 810 0 l 637 0 l 637 579 q 587 722 637 686 q 433 752 544 752 q 276 716 320 752 q 231 579 231 680 l 231 470 q 204 499 229 475 q 174 532 179 524 l 174 584 q 240 762 175 715 q 434 810 305 810 q 630 760 566 810 q 694 579 694 710 l 694 58 l 752 58 l 752 635 q 676 806 752 744 q 492 868 600 868 l 116 868 l 116 522 q 174 447 116 505 q 231 349 231 389 l 231 0 l 58 0 l 58 399 l 84 373 q 116 337 113 341 l 116 58 l 174 58 l 174 349 z "},"o":{"ha":868,"x_min":58,"x_max":810,"o":"m 58 642 q 148 847 59 768 q 376 926 236 926 l 492 926 q 720 846 631 926 q 810 637 810 767 l 810 260 q 713 73 800 146 q 496 0 625 0 l 376 0 q 157 73 246 0 q 58 260 68 146 l 58 399 l 84 373 q 114 339 107 350 q 116 337 116 339 l 116 291 q 192 120 116 182 q 376 58 268 58 l 496 58 q 679 120 605 58 q 752 289 752 182 l 752 635 q 681 804 752 741 q 492 868 609 868 l 376 868 q 187 806 259 868 q 116 637 116 744 l 116 521 q 174 446 116 503 q 231 347 231 388 q 281 204 231 240 q 434 174 324 174 q 587 204 544 174 q 637 347 637 240 l 637 579 q 587 722 637 686 q 434 752 544 752 q 281 722 324 752 q 231 579 231 686 l 231 469 q 205 497 230 472 q 174 530 179 522 l 174 584 q 240 762 175 715 q 434 810 305 810 q 630 760 566 810 q 694 579 694 710 l 694 347 q 630 166 694 216 q 434 116 566 116 q 242 161 305 116 q 174 318 179 207 l 174 347 q 116 422 174 365 q 58 521 58 480 l 58 642 z "},"p":{"ha":868,"x_min":58,"x_max":810,"o":"m 694 347 q 630 166 694 216 q 434 116 566 116 q 247 158 305 116 q 174 318 174 210 l 174 347 q 116 422 174 365 q 58 521 58 480 l 58 926 l 492 926 q 720 845 629 926 q 810 635 810 764 l 810 285 q 710 71 810 158 q 496 0 631 0 l 231 0 l 231 -231 l 58 -231 l 58 399 l 84 373 q 116 337 113 341 l 116 -174 l 174 -174 l 174 58 l 492 58 q 681 120 609 58 q 752 289 752 182 l 752 635 q 676 806 752 744 q 492 868 600 868 l 116 868 l 116 521 q 145 476 116 503 q 203 414 174 448 q 231 347 231 380 q 281 204 231 240 q 434 174 324 174 q 587 204 544 174 q 637 347 637 240 l 637 577 q 587 720 637 684 q 434 752 545 752 q 281 722 324 752 q 231 579 231 686 l 231 469 q 204 498 229 473 q 174 531 179 522 l 174 584 q 247 768 174 716 q 434 810 305 810 q 621 768 563 810 q 694 577 694 715 l 694 347 z "},"q":{"ha":868,"x_min":58,"x_max":810,"o":"m 58 637 q 146 846 58 767 q 376 926 234 926 l 810 926 l 810 -231 l 637 -231 l 637 0 l 376 0 q 159 72 245 0 q 58 260 58 161 l 58 399 l 84 373 q 116 337 113 341 l 116 289 q 190 122 116 187 q 376 58 263 58 l 694 58 l 694 -174 l 752 -174 l 752 868 l 376 868 q 187 806 259 868 q 116 637 116 744 l 116 521 q 145 477 116 506 q 203 413 174 448 q 231 347 231 378 q 281 204 231 240 q 435 174 324 174 q 592 210 548 174 q 637 347 637 246 l 637 579 q 592 717 637 681 q 435 752 548 752 q 281 722 324 752 q 231 579 231 686 l 231 469 q 202 502 223 475 q 175 530 181 530 q 174 531 174 530 l 174 584 q 239 761 174 712 q 434 810 304 810 q 630 760 566 810 q 694 579 694 710 l 694 347 q 630 166 694 216 q 434 116 566 116 q 247 158 305 116 q 174 318 174 211 l 174 347 q 116 422 174 363 q 58 521 58 482 l 58 637 z "},"r":{"ha":521,"x_min":58,"x_max":463,"o":"m 174 347 q 116 422 174 365 q 58 521 58 480 l 58 926 l 463 926 l 463 752 l 405 752 q 272 720 313 749 q 231 608 231 690 l 231 469 q 204 498 229 473 q 174 531 179 522 l 174 613 q 232 762 175 718 q 405 810 289 807 l 405 868 l 116 868 l 116 521 q 174 446 116 503 q 231 347 231 388 l 231 0 l 58 0 l 58 399 l 84 373 q 116 337 113 341 l 116 58 l 174 58 l 174 347 z "},"s":{"ha":868,"x_min":58,"x_max":810,"o":"m 58 694 q 153 860 58 794 q 376 926 249 926 l 495 926 q 722 847 634 926 q 810 637 810 768 l 637 637 l 637 666 q 437 752 624 752 q 231 666 231 752 q 437 579 231 579 l 498 579 q 713 528 622 579 q 810 386 804 477 q 498 521 703 518 l 408 521 q 288 535 337 521 q 216 572 239 548 q 183 618 192 596 q 174 666 174 641 q 194 739 174 709 q 252 783 214 768 q 335 804 291 799 q 437 810 379 810 q 603 786 543 810 q 687 694 664 761 l 748 694 q 666 817 732 767 q 492 868 599 868 l 376 868 q 192 816 268 868 q 116 694 116 764 l 116 631 q 193 515 116 567 q 373 463 271 463 l 498 463 q 715 396 621 463 q 810 231 810 330 q 715 66 810 132 q 493 0 619 0 l 376 0 q 150 81 242 0 q 58 289 58 162 l 236 289 q 292 199 247 224 q 437 174 337 174 q 637 276 637 174 q 645 304 637 299 q 670 284 652 301 q 692 252 687 266 q 622 149 677 182 q 437 116 567 116 q 272 145 330 116 q 190 231 214 174 l 123 231 q 209 109 142 159 q 376 58 276 58 l 492 58 q 676 109 600 58 q 752 231 752 159 q 678 353 752 301 q 498 405 603 405 l 373 405 q 154 470 250 405 q 58 637 58 535 l 58 694 z "},"t":{"ha":521,"x_min":0,"x_max":463,"o":"m 231 470 q 204 499 229 475 q 174 532 179 524 l 174 810 l 347 810 l 347 868 l 174 868 l 174 1100 l 116 1100 l 116 868 l 58 868 l 58 810 l 116 810 l 116 522 q 145 478 116 506 q 203 415 174 450 q 231 347 231 380 l 231 320 q 275 205 231 236 q 434 174 318 174 l 463 174 l 463 0 l 372 0 q 148 80 237 0 q 58 289 58 159 l 58 399 l 84 373 q 116 337 113 341 l 116 289 q 190 120 116 182 q 372 58 263 58 l 405 58 l 405 116 q 237 161 299 119 q 174 289 174 204 l 174 349 q 116 424 174 366 q 58 522 58 482 l 58 752 l 0 752 l 0 926 l 58 926 l 58 1157 l 231 1157 l 231 926 l 405 926 l 405 752 l 231 752 l 231 470 z "},"u":{"ha":868,"x_min":58,"x_max":810,"o":"m 116 521 q 174 446 116 503 q 231 347 231 388 q 281 204 231 240 q 434 174 324 174 q 586 204 543 174 q 637 347 637 242 l 637 926 l 810 926 l 810 0 l 372 0 q 148 80 237 0 q 58 289 58 159 l 58 399 l 84 373 q 116 337 113 341 l 116 289 q 190 120 116 182 q 372 58 263 58 l 752 58 l 752 868 l 694 868 l 694 339 q 626 163 693 211 q 434 116 560 116 q 236 168 298 116 q 174 347 174 220 q 116 422 174 365 q 58 521 58 480 l 58 926 l 231 926 l 231 469 q 204 498 229 473 q 174 531 179 522 l 174 868 l 116 868 l 116 521 z "},"v":{"ha":868,"x_min":58,"x_max":810,"o":"m 229 380 q 278 353 255 367 l 302 340 l 391 58 l 479 58 l 731 868 l 670 868 l 518 376 q 437 305 483 305 q 354 366 380 305 q 276 420 350 380 q 191 498 203 460 l 58 926 l 239 926 l 373 501 l 341 516 q 299 540 308 534 l 299 541 l 197 868 l 136 868 l 247 514 q 322 462 252 499 q 408 388 392 424 q 433 363 418 363 q 463 396 453 363 l 628 926 l 810 926 l 521 0 l 347 0 l 229 380 z "},"w":{"ha":1215,"x_min":58,"x_max":1157,"o":"m 839 174 q 953 223 923 177 q 984 347 984 269 l 984 926 l 1157 926 l 1157 289 q 1068 80 1157 161 q 839 0 979 0 l 376 0 q 157 73 246 0 q 58 260 68 146 l 58 399 l 84 373 q 116 337 113 341 l 116 291 q 192 120 116 182 q 376 58 268 58 l 839 58 q 1026 121 953 58 q 1100 289 1100 184 l 1100 868 l 1042 868 l 1042 347 q 968 158 1042 211 q 839 116 910 119 q 735 142 777 120 q 673 199 693 163 q 645 268 652 234 q 637 343 638 301 l 637 868 l 579 868 l 579 347 q 547 204 576 253 q 378 116 483 117 q 205 204 259 122 q 174 347 174 253 q 116 422 174 365 q 58 521 58 480 l 58 926 l 231 926 l 231 469 q 204 498 229 473 q 174 531 179 522 l 174 868 l 116 868 l 116 521 q 174 446 116 503 q 231 349 231 388 q 256 234 234 269 q 378 174 298 177 q 490 224 463 181 q 521 346 518 268 l 521 926 l 694 926 l 694 349 q 719 234 697 269 q 839 174 761 178 z "},"x":{"ha":868,"x_min":58,"x_max":810,"o":"m 810 926 l 810 868 l 538 463 l 810 58 l 810 0 l 641 0 l 430 314 l 424 344 q 422 358 424 349 q 420 372 420 367 l 460 372 l 671 58 l 741 58 l 469 462 l 741 868 l 671 868 l 528 657 q 435 593 496 593 q 341 657 373 593 l 198 868 l 129 868 l 401 464 l 365 409 q 360 382 360 402 q 370 317 360 369 q 379 252 379 265 q 363 201 379 226 l 229 0 l 58 0 l 58 58 l 247 341 q 262 258 250 327 l 127 58 l 197 58 l 315 233 q 321 252 321 245 q 312 311 321 263 q 302 379 302 359 q 315 443 302 425 l 331 464 l 58 871 l 58 926 l 230 926 l 392 684 q 435 651 412 651 q 476 680 457 651 l 641 926 l 810 926 z "},"y":{"ha":868,"x_min":58,"x_max":810,"o":"m 434 174 q 591 209 545 174 q 637 347 637 245 l 637 926 l 810 926 l 810 58 q 718 -152 810 -72 q 492 -231 626 -231 l 174 -231 l 174 -58 l 448 -58 q 599 0 563 -58 l 376 0 q 159 72 245 0 q 58 260 58 156 l 58 399 q 116 337 98 359 l 116 289 q 184 127 116 195 q 376 58 252 58 l 676 58 q 606 -75 661 -33 q 448 -116 551 -116 l 231 -116 l 231 -174 l 492 -174 q 679 -109 605 -174 q 752 59 752 -45 l 752 868 l 694 868 l 694 347 q 630 166 694 216 q 433 116 566 116 q 242 161 311 116 q 174 318 174 205 l 174 347 q 145 390 174 362 q 87 454 116 418 q 58 521 58 489 l 58 927 l 231 927 l 231 469 q 207 493 227 473 q 172 531 187 512 l 172 868 l 114 868 l 116 521 q 143 477 116 505 q 200 415 171 450 q 231 347 229 380 q 281 204 236 246 q 434 174 313 174 z "},"z":{"ha":868,"x_min":58,"x_max":810,"o":"m 492 686 q 472 735 492 718 q 420 752 451 752 l 58 752 l 58 926 l 810 926 l 810 752 l 414 310 q 409 359 409 339 q 414 396 409 382 l 752 774 l 752 868 l 116 868 l 116 810 l 408 810 q 516 772 482 810 q 550 687 550 734 q 524 608 550 647 l 362 417 q 352 357 352 392 q 364 279 352 326 q 402 203 376 233 q 521 174 443 174 l 810 174 l 810 0 l 58 0 l 58 174 l 237 373 l 237 356 q 242 292 237 321 l 116 152 l 116 58 l 752 58 l 752 116 l 492 116 q 362 162 404 120 q 301 298 320 204 q 294 357 294 331 q 317 453 294 412 q 394 546 354 502 q 451 609 433 590 q 480 647 469 628 q 492 686 492 667 z "},"{":{"ha":463,"x_min":14,"x_max":405,"o":"m 87 930 q 182 1139 87 1063 q 392 1215 276 1215 l 405 1215 l 405 1039 q 292 995 323 1033 q 260 868 260 956 l 260 469 q 203 530 250 482 l 203 874 q 347 1088 203 1052 l 347 1153 q 203 1079 260 1137 q 145 924 145 1021 l 145 697 l 84 606 l 156 495 q 199 451 166 483 q 246 395 231 418 q 260 347 260 372 l 260 239 q 310 88 260 111 q 405 62 353 69 l 405 -116 l 401 -116 q 117 42 214 -116 q 87 145 87 90 l 87 399 q 111 374 91 395 q 143 339 132 353 q 145 337 145 339 l 145 174 q 204 18 145 77 q 347 -54 263 -41 l 347 13 q 237 78 271 32 q 203 203 203 124 l 203 347 q 162 403 203 360 q 97 482 122 446 l 14 608 l 87 716 l 87 930 z "},"|":{"ha":289,"x_min":58,"x_max":231,"o":"m 174 347 q 116 422 174 363 q 58 521 58 480 l 58 1215 l 231 1215 l 231 469 q 211 490 229 473 q 174 531 192 508 l 174 1157 l 116 1157 l 116 521 q 145 477 116 505 q 203 413 174 448 q 231 347 231 378 l 231 -231 l 58 -231 l 58 399 q 79 378 61 395 q 116 337 97 360 l 116 -174 l 174 -174 l 174 347 z "},"}":{"ha":463,"x_min":58,"x_max":448,"o":"m 203 868 q 171 995 203 956 q 58 1039 140 1033 l 58 1215 l 71 1215 q 281 1139 187 1215 q 376 930 376 1062 l 376 716 l 448 608 l 366 482 q 324 524 328 512 l 379 606 l 318 697 l 318 924 q 260 1079 318 1021 q 116 1153 203 1137 l 116 1088 q 260 874 260 1052 l 260 521 q 318 446 260 505 q 376 350 376 386 l 376 145 q 357 66 376 109 q 303 -19 339 23 q 204 -88 268 -61 q 62 -116 140 -116 l 58 -116 l 58 62 q 153 88 110 69 q 203 239 203 111 l 203 347 q 214 388 203 367 q 260 337 243 353 l 260 203 q 226 78 260 124 q 116 13 192 32 l 116 -54 q 259 18 200 -41 q 318 174 318 77 l 318 347 q 289 391 318 363 q 231 454 260 420 q 203 521 203 489 l 203 868 z "},"~":{"ha":868,"x_min":65,"x_max":803,"o":"m 328 762 q 451 737 386 762 q 541 712 515 712 q 660 773 608 712 l 680 796 l 803 670 l 783 650 q 541 538 671 538 q 420 564 486 538 q 328 589 354 589 q 208 530 260 589 l 188 506 l 65 631 l 87 651 q 328 762 207 762 m 328 647 q 428 621 367 647 q 541 596 489 596 q 720 671 637 596 l 680 712 q 541 654 613 654 q 441 679 501 654 q 328 705 380 705 q 148 631 231 705 l 190 589 q 328 647 256 647 z "},"":{"ha":833,"x_min":0,"x_max":0,"o":""},"":{"ha":833,"x_min":0,"x_max":0,"o":""},"":{"ha":833,"x_min":0,"x_max":0,"o":""},"":{"ha":833,"x_min":0,"x_max":0,"o":""},"":{"ha":833,"x_min":0,"x_max":0,"o":""},"":{"ha":833,"x_min":0,"x_max":0,"o":""},"":{"ha":833,"x_min":0,"x_max":0,"o":""},"":{"ha":833,"x_min":0,"x_max":0,"o":""},"":{"ha":833,"x_min":0,"x_max":0,"o":""},"":{"ha":833,"x_min":0,"x_max":0,"o":""},"":{"ha":833,"x_min":0,"x_max":0,"o":""},"":{"ha":833,"x_min":0,"x_max":0,"o":""},"":{"ha":833,"x_min":0,"x_max":0,"o":""},"":{"ha":833,"x_min":0,"x_max":0,"o":""},"":{"ha":833,"x_min":0,"x_max":0,"o":""},"":{"ha":833,"x_min":0,"x_max":0,"o":""},"":{"ha":833,"x_min":0,"x_max":0,"o":""},"":{"ha":833,"x_min":0,"x_max":0,"o":""},"":{"ha":833,"x_min":0,"x_max":0,"o":""},"":{"ha":833,"x_min":0,"x_max":0,"o":""},"":{"ha":833,"x_min":0,"x_max":0,"o":""},"":{"ha":833,"x_min":0,"x_max":0,"o":""},"":{"ha":289,"x_min":58,"x_max":231,"o":"m 58 871 q 84 932 58 907 q 145 958 110 958 q 205 932 182 958 q 231 871 231 910 l 231 784 l 58 784 l 58 871 m 145 900 q 124 891 132 900 q 116 871 116 883 l 116 842 l 174 842 l 174 871 q 165 892 174 884 q 145 900 156 900 m 174 347 q 116 422 174 363 q 58 521 58 480 l 58 637 l 231 637 l 231 469 q 211 490 229 473 q 174 531 192 508 l 174 579 l 116 579 l 116 521 q 145 477 116 505 q 203 413 174 448 q 231 347 231 378 l 231 -231 l 58 -231 l 58 399 q 79 378 61 395 q 116 337 97 360 l 116 -174 l 174 -174 l 174 347 z "},"":{"ha":868,"x_min":58,"x_max":810,"o":"m 346 117 q 144 200 230 124 q 58 405 58 276 l 58 515 l 84 489 q 116 453 104 469 l 116 407 q 134 313 116 354 q 179 247 152 271 q 239 206 205 223 q 298 183 272 190 q 346 175 324 177 l 404 174 l 404 58 l 462 58 l 462 174 l 515 175 q 686 243 621 182 q 752 405 752 304 l 690 405 q 519 237 668 258 l 462 234 l 462 922 l 519 920 q 637 870 596 910 q 690 752 679 829 l 752 752 q 689 912 752 849 q 519 982 625 975 l 462 984 l 462 1100 l 404 1100 l 404 984 l 346 982 q 180 914 245 975 q 116 754 116 854 l 116 637 q 145 592 116 619 q 203 530 174 564 q 231 463 231 496 q 262 338 231 370 q 346 297 292 305 l 346 861 q 290 844 311 855 q 250 796 269 833 q 231 694 231 758 l 231 584 q 209 607 227 590 q 174 647 191 624 l 174 700 q 189 806 174 762 q 233 872 204 849 q 286 904 262 894 q 346 920 311 914 l 404 922 l 404 234 l 346 237 q 247 273 278 247 q 174 434 174 336 l 174 463 q 145 508 174 480 q 87 569 116 535 q 58 637 58 603 l 58 752 q 140 956 58 878 q 346 1040 221 1033 l 346 1157 l 519 1157 l 519 1040 q 728 955 645 1033 q 810 751 810 877 l 810 694 l 637 694 q 627 779 637 745 q 598 829 618 813 q 562 851 577 845 q 519 862 547 856 l 519 295 q 562 307 547 301 q 598 329 577 313 q 627 379 618 346 q 637 463 637 412 l 810 463 l 810 405 q 728 202 810 279 q 519 117 645 124 l 519 0 l 346 0 l 346 117 z "},"":{"ha":1042,"x_min":58,"x_max":984,"o":"m 666 1157 q 890 1080 796 1157 q 984 868 984 1003 l 984 810 l 810 810 q 761 953 810 917 q 608 984 718 984 q 454 953 498 984 q 405 810 405 917 l 405 752 l 622 752 l 622 579 l 405 579 l 405 469 q 384 490 402 473 q 347 530 366 508 l 347 637 l 564 637 l 564 694 l 347 694 l 347 816 q 412 992 347 943 q 608 1042 477 1042 q 788 1003 728 1042 q 864 868 849 965 l 926 868 q 851 1037 924 974 q 666 1100 778 1100 l 545 1100 q 367 1040 444 1100 q 289 868 289 981 l 289 694 l 174 694 l 174 637 l 289 637 l 289 521 q 318 476 289 503 q 376 414 347 448 q 405 347 405 380 q 454 204 405 240 q 608 174 498 174 l 984 174 l 984 0 l 550 0 q 347 58 418 0 l 291 58 q 149 0 223 0 l 58 0 l 58 174 l 145 174 l 184 201 q 231 320 231 234 l 231 399 q 289 337 272 359 l 289 320 q 214 153 289 201 q 145 116 155 116 l 116 116 l 116 58 l 149 58 q 269 116 198 58 l 369 116 q 550 58 440 58 l 926 58 l 926 116 l 608 116 q 444 143 492 116 q 367 227 396 171 q 347 318 347 268 l 347 347 q 318 392 347 365 q 260 454 289 420 q 231 521 231 488 l 231 579 l 116 579 l 116 752 l 231 752 l 231 872 q 322 1078 231 998 q 545 1157 412 1157 l 666 1157 z "},"":{"ha":984,"x_min":165,"x_max":819,"o":"m 324 563 q 318 608 318 582 q 324 652 318 634 l 165 812 l 288 935 l 447 775 q 492 781 466 781 q 537 775 518 781 l 696 935 l 819 812 l 660 652 q 666 608 666 634 q 663 571 666 598 q 650 573 660 573 q 633 572 642 573 q 602 571 624 571 q 609 608 606 583 q 592 667 606 641 l 738 812 l 696 854 l 551 707 q 492 725 525 722 q 433 707 459 722 l 288 854 l 246 812 l 392 667 q 378 608 378 642 q 392 548 378 573 l 246 404 l 288 362 l 433 508 q 492 493 457 493 q 561 515 532 493 q 579 514 563 515 q 637 514 596 514 q 738 485 709 514 l 819 404 l 696 281 l 577 399 q 663 396 638 396 l 696 362 l 738 404 l 696 444 q 653 456 690 454 q 579 457 616 457 q 492 434 541 434 q 447 440 466 434 l 288 281 l 165 404 l 324 563 m 492 550 q 451 568 469 550 q 434 608 434 586 q 452 648 434 631 q 492 666 470 666 q 532 649 514 666 q 550 608 550 632 q 533 568 550 586 q 492 550 516 550 z "},"":{"ha":984,"x_min":58,"x_max":926,"o":"m 579 469 q 551 498 576 472 q 521 531 527 524 l 521 564 l 530 579 l 810 579 l 810 637 l 567 637 l 861 1100 l 791 1100 l 492 625 l 192 1100 l 124 1100 l 418 637 l 174 637 l 174 579 l 454 579 l 463 566 l 463 521 q 478 492 463 511 q 520 446 493 473 q 556 408 547 418 q 579 347 579 380 l 579 0 l 405 0 l 405 399 q 428 377 409 394 q 463 337 446 360 l 463 58 l 521 58 l 521 347 q 463 422 521 363 q 405 521 405 482 l 116 521 l 116 694 l 311 694 l 58 1095 l 58 1157 l 223 1157 l 492 735 l 761 1157 l 926 1157 l 926 1095 l 673 694 l 868 694 l 868 521 l 579 521 l 579 469 z "},"":{"ha":289,"x_min":58,"x_max":231,"o":"m 174 1157 l 116 1157 l 116 810 l 174 810 l 174 1157 m 231 1215 l 231 752 l 58 752 l 58 1215 l 231 1215 m 174 347 q 116 422 174 363 q 58 521 58 480 l 58 637 l 231 637 l 231 469 q 211 490 229 473 q 174 531 192 508 l 174 579 l 116 579 l 116 521 q 145 477 116 505 q 203 413 174 448 q 231 347 231 378 l 231 -231 l 58 -231 l 58 399 q 79 378 61 395 q 116 337 97 360 l 116 -174 l 174 -174 l 174 347 z "},"":{"ha":984,"x_min":58,"x_max":926,"o":"m 58 926 q 150 1136 58 1056 q 376 1215 242 1215 l 810 1215 l 810 1042 l 434 1042 q 281 1011 323 1042 q 231 955 231 975 q 258 861 231 888 q 347 812 284 833 l 347 637 l 298 637 q 243 583 259 621 l 227 602 q 207 635 220 609 q 289 696 233 676 l 289 771 q 174 955 174 813 q 247 1058 174 1004 q 434 1100 305 1100 l 752 1100 l 752 1157 l 376 1157 q 190 1093 263 1157 q 116 926 116 1029 q 188 761 116 830 l 226 725 q 145 637 152 652 q 188 560 145 619 q 231 463 231 501 q 276 325 231 360 q 434 289 320 289 l 550 289 q 703 320 660 289 q 752 463 752 356 q 708 601 752 566 q 550 637 664 637 l 405 637 l 405 810 l 608 810 q 828 734 729 810 q 926 521 926 657 l 926 407 q 868 231 926 302 q 926 58 926 161 l 926 1 q 836 -208 926 -127 q 608 -289 745 -289 l 174 -289 l 174 -116 l 550 -116 q 703 -85 654 -116 q 752 29 752 -54 q 716 132 752 91 q 608 116 664 116 l 372 116 q 152 192 246 116 q 58 376 58 268 l 58 515 q 85 489 71 509 q 105 464 97 473 q 114 455 113 456 q 116 453 116 454 l 116 405 q 190 236 116 298 q 372 174 263 174 l 608 174 q 729 197 674 174 q 784 126 762 174 q 806 29 806 78 q 736 -132 806 -75 q 550 -174 681 -174 l 231 -174 l 231 -231 l 608 -231 q 794 -168 720 -231 q 868 -1 868 -104 l 868 58 q 825 188 868 130 l 786 231 l 819 262 q 868 404 868 307 l 868 521 q 799 683 868 613 q 608 752 731 752 l 463 752 l 463 694 l 550 694 q 746 645 681 694 q 810 463 810 595 q 746 281 810 331 q 550 231 681 231 l 434 231 q 249 273 317 231 q 174 434 181 315 l 174 463 q 130 540 174 480 q 87 637 87 599 q 142 725 113 696 q 58 926 58 804 z "},"":{"ha":868,"x_min":116,"x_max":752,"o":"m 666 984 q 605 1009 631 984 q 579 1071 579 1034 l 579 1157 l 752 1157 l 752 1071 q 726 1010 752 1032 q 666 984 703 984 m 666 1042 q 686 1050 679 1042 q 694 1071 694 1059 l 694 1100 l 637 1100 l 637 1071 q 645 1050 637 1058 q 666 1042 654 1042 m 203 984 q 142 1009 168 984 q 116 1071 116 1034 l 116 1157 l 289 1157 l 289 1071 q 263 1010 289 1032 q 203 984 240 984 m 203 1042 q 224 1050 216 1042 q 231 1071 231 1059 l 231 1100 l 174 1100 l 174 1071 q 182 1050 174 1058 q 203 1042 191 1042 z "},"":{"ha":1563,"x_min":58,"x_max":1505,"o":"m 1169 880 q 1088 961 1169 880 q 781 1042 1007 1042 q 394 880 556 1042 q 231 492 231 718 q 394 104 231 266 q 781 -58 556 -58 q 1169 104 1007 -58 q 1331 492 1331 266 q 1169 880 1331 718 m 352 921 q 442 1010 352 921 q 781 1100 531 1100 q 1210 921 1032 1100 q 1389 492 1389 742 q 1210 63 1389 242 q 781 -116 1032 -116 q 352 63 531 -116 q 174 492 174 242 q 352 921 174 742 m 1114 1068 q 1037 1113 1114 1068 q 781 1157 961 1157 q 448 1068 602 1157 q 205 825 295 978 q 116 492 116 671 q 205 159 116 313 q 448 -84 295 6 q 781 -174 602 -174 q 1114 -84 961 -174 q 1357 159 1267 6 q 1447 492 1447 313 q 1357 825 1447 671 q 1114 1068 1267 978 m 271 1003 q 377 1109 271 1003 q 781 1215 483 1215 q 1292 1003 1079 1215 q 1505 492 1505 790 q 1292 -19 1505 194 q 781 -231 1079 -231 q 271 -19 483 -231 q 58 492 58 194 q 271 1003 58 790 m 405 666 q 493 875 405 794 q 719 955 580 955 l 839 955 q 1068 875 978 955 q 1157 666 1157 796 l 978 666 q 930 754 968 726 q 781 781 891 781 q 628 751 671 781 q 579 608 579 715 l 579 498 q 556 520 574 503 q 521 560 538 537 l 521 613 q 586 790 521 741 q 781 839 651 839 q 940 813 883 839 q 1023 723 998 787 l 1092 723 q 1011 847 1075 797 q 839 897 948 897 l 719 897 q 535 834 606 897 q 463 667 463 771 l 463 550 q 492 505 463 532 q 550 443 521 477 q 579 376 579 409 q 628 233 579 269 q 781 203 671 203 q 901 218 858 203 q 957 256 943 234 q 979 318 971 278 l 1157 318 q 1068 109 1157 190 q 839 29 979 29 l 723 29 q 496 109 586 29 q 405 318 405 190 l 405 428 l 431 402 q 463 366 460 370 l 463 320 q 539 149 463 211 q 723 87 615 87 l 839 87 q 1009 136 943 87 q 1094 260 1075 185 l 1023 260 q 947 174 1003 203 q 781 145 891 145 q 595 187 645 145 q 521 347 521 247 l 521 376 q 492 421 521 394 q 434 482 463 448 q 405 550 405 516 l 405 666 z "},"":{"ha":868,"x_min":58,"x_max":810,"o":"m 116 521 q 188 352 116 415 q 372 289 260 289 l 752 289 l 752 579 q 737 608 752 589 q 695 654 722 626 q 660 692 668 681 q 637 752 637 719 l 637 810 q 587 953 637 917 q 434 984 544 984 l 174 984 l 174 1157 l 495 1157 q 710 1087 631 1157 q 810 883 810 997 l 810 700 q 783 729 807 705 q 752 762 758 754 l 752 880 q 680 1037 752 975 q 495 1100 608 1100 l 231 1100 l 231 1042 l 434 1042 q 628 994 563 1042 q 694 816 693 946 l 694 752 q 752 677 694 736 q 810 579 810 618 l 810 231 l 372 231 q 149 310 239 231 q 58 521 59 389 q 150 731 58 651 q 376 810 242 810 l 579 810 l 579 637 l 405 637 q 268 606 305 637 q 231 521 231 576 q 273 434 231 463 q 434 405 315 405 q 587 435 544 405 q 637 579 637 472 l 637 631 q 666 601 642 629 q 694 569 690 573 l 694 550 q 621 389 694 443 q 434 347 563 347 q 240 385 307 347 q 174 521 174 422 q 250 663 174 625 q 376 694 313 694 l 521 694 l 521 752 l 376 752 q 190 688 263 752 q 116 521 116 624 z "},"":{"ha":984,"x_min":58,"x_max":926,"o":"m 606 399 q 615 463 606 412 q 624 535 624 514 q 619 554 624 550 l 583 609 l 855 1013 l 786 1013 l 515 606 l 566 531 l 566 530 q 551 447 566 519 l 446 608 l 754 1071 l 926 1071 l 926 1016 l 652 609 l 668 587 q 681 534 681 567 q 673 461 681 505 q 664 407 664 417 q 668 378 664 386 l 787 203 l 856 203 l 722 402 l 722 404 q 736 486 722 414 l 926 203 l 926 145 l 755 145 l 621 346 q 606 399 606 366 m 218 399 q 227 463 218 412 q 236 535 236 514 q 231 554 236 550 l 195 609 l 467 1013 l 398 1013 l 127 606 l 178 531 l 178 530 q 163 447 178 519 l 58 608 l 366 1071 l 538 1071 l 538 1016 l 265 609 l 281 587 q 294 534 294 567 q 285 461 294 505 q 276 407 276 417 q 281 378 276 386 l 399 203 l 469 203 l 334 402 l 334 404 q 349 486 334 414 l 538 203 l 538 145 l 367 145 l 233 346 q 218 399 218 366 z "},"":{"ha":833,"x_min":0,"x_max":0,"o":""},"":{"ha":1563,"x_min":58,"x_max":1505,"o":"m 579 347 q 521 422 579 363 q 463 521 463 482 l 463 897 l 843 897 q 1069 818 981 897 q 1157 612 1157 739 l 1157 573 q 1099 400 1157 466 q 965 310 1040 334 l 1100 150 l 1100 87 l 935 87 l 770 289 l 694 289 l 694 463 l 781 463 q 935 493 894 463 q 956 509 948 502 q 971 525 965 516 q 981 550 978 534 q 984 592 984 566 q 935 693 984 657 q 781 723 894 723 l 637 723 l 637 469 q 608 498 632 475 q 580 530 584 522 l 579 781 l 781 781 q 969 739 910 781 q 1042 592 1042 684 q 1026 501 1042 528 q 969 446 1010 475 q 781 405 911 405 l 752 405 l 752 347 l 803 347 l 966 145 l 1034 145 l 870 350 l 933 360 q 1051 433 1003 380 q 1100 573 1100 486 l 1100 609 q 1028 778 1100 716 q 839 839 956 839 l 521 839 l 521 521 q 550 478 521 506 q 608 414 579 450 q 637 347 637 379 l 637 87 l 463 87 l 463 398 l 489 372 q 521 339 516 344 l 521 145 l 579 145 l 579 347 m 1169 880 q 1088 961 1169 880 q 781 1042 1007 1042 q 394 880 556 1042 q 231 492 231 718 q 394 104 231 266 q 781 -58 556 -58 q 1169 104 1007 -58 q 1331 492 1331 266 q 1169 880 1331 718 m 352 921 q 442 1010 352 921 q 781 1100 531 1100 q 1210 921 1032 1100 q 1389 492 1389 742 q 1210 63 1389 242 q 781 -116 1032 -116 q 352 63 531 -116 q 174 492 174 242 q 352 921 174 742 m 1114 1068 q 1037 1113 1114 1068 q 781 1157 961 1157 q 448 1068 602 1157 q 205 825 295 978 q 116 492 116 671 q 205 159 116 313 q 448 -84 295 6 q 781 -174 602 -174 q 1114 -84 961 -174 q 1357 159 1267 6 q 1447 492 1447 313 q 1357 825 1447 671 q 1114 1068 1267 978 m 271 1003 q 377 1109 271 1003 q 781 1215 483 1215 q 1292 1003 1079 1215 q 1505 492 1505 790 q 1292 -19 1505 194 q 781 -231 1079 -231 q 271 -19 483 -231 q 58 492 58 194 q 271 1003 58 790 z "},"":{"ha":868,"x_min":58,"x_max":810,"o":"m 752 1100 l 116 1100 l 116 1042 l 752 1042 l 752 1100 m 810 1157 l 810 984 l 58 984 l 58 1157 l 810 1157 z "},"":{"ha":405,"x_min":58,"x_max":347,"o":"m 58 1013 q 101 1116 58 1075 q 203 1157 143 1157 q 306 1115 265 1157 q 347 1013 347 1072 q 305 909 347 951 q 203 868 262 868 q 117 896 150 868 q 69 955 84 923 l 137 955 q 160 938 142 949 q 203 926 178 926 q 264 952 239 926 q 289 1013 289 978 q 263 1074 289 1049 q 203 1100 237 1100 q 141 1073 166 1100 q 116 1013 116 1047 l 58 1013 z "},"":{"ha":868,"x_min":58,"x_max":810,"o":"m 752 116 l 116 116 l 116 58 l 752 58 l 752 116 m 810 174 l 810 0 l 58 0 l 58 174 l 810 174 m 463 347 q 405 422 463 363 q 347 521 347 480 l 58 521 l 58 694 l 347 694 l 347 984 l 521 984 l 521 694 l 810 694 l 810 521 l 521 521 l 521 469 q 501 489 518 473 q 463 531 485 505 l 463 579 l 752 579 l 752 637 l 463 637 l 463 926 l 405 926 l 405 637 l 116 637 l 116 579 l 405 579 l 405 521 q 434 477 405 505 q 492 413 463 448 q 521 347 521 378 l 521 231 l 347 231 l 347 399 q 367 379 349 398 q 405 337 386 360 l 405 289 l 463 289 l 463 347 z "},"":{"ha":868,"x_min":365,"x_max":726,"o":"m 726 1059 l 528 926 l 365 926 l 365 1024 l 561 1157 l 726 1157 l 726 1059 m 579 1100 l 409 984 l 512 984 l 681 1100 l 579 1100 z "},"":{"ha":868,"x_min":58,"x_max":810,"o":"m 116 521 q 174 446 116 505 q 231 347 231 386 q 281 204 231 240 q 434 174 324 174 q 586 204 543 174 q 635 347 635 240 l 637 347 l 637 926 l 810 926 l 809 0 l 635 0 l 635 29 q 499 0 566 0 l 231 0 l 231 -231 l 58 -231 l 58 399 q 79 378 61 395 q 116 337 97 360 l 116 -174 l 174 -174 l 174 58 l 499 58 q 671 116 600 58 l 693 116 l 693 58 l 751 58 l 752 868 l 694 868 l 694 339 l 693 339 q 626 163 692 211 q 434 116 561 116 q 247 158 310 116 q 174 336 174 236 q 174 347 174 341 q 145 391 174 362 q 87 455 116 420 q 58 521 58 490 l 58 926 l 231 926 l 231 470 q 174 531 185 516 l 174 868 l 116 868 l 116 521 z "},"":{"ha":723,"x_min":58,"x_max":666,"o":"m 255 407 l 174 347 l 246 569 l 58 705 l 289 705 l 362 926 l 434 705 l 666 705 l 477 569 l 550 347 l 362 485 l 331 462 l 362 556 l 440 499 l 409 590 l 488 647 l 392 647 l 362 739 l 331 647 l 236 647 l 314 590 l 255 407 z "},"":{"ha":289,"x_min":58,"x_max":231,"o":"m 145 521 q 84 546 110 521 q 58 608 58 571 l 58 694 l 231 694 l 231 608 q 205 547 231 569 q 145 521 182 521 m 145 579 q 166 587 158 579 q 174 608 174 596 l 174 637 l 116 637 l 116 608 q 124 587 116 595 q 145 579 133 579 z "},"":{"ha":984,"x_min":347,"x_max":608,"o":"m 579 58 l 579 0 q 608 -87 608 -41 q 574 -188 608 -145 q 477 -231 541 -231 l 347 -231 l 347 -58 l 405 -58 l 405 58 l 463 58 l 463 -58 q 483 -67 475 -58 q 492 -87 492 -75 q 475 -111 492 -107 q 405 -116 459 -116 l 405 -174 l 463 -174 q 550 -87 550 -174 q 521 -29 550 -54 l 521 58 l 579 58 z "},"":{"ha":723,"x_min":58,"x_max":666,"o":"m 255 407 l 174 347 l 246 569 l 58 705 l 289 705 l 362 926 l 434 705 l 666 705 l 477 569 l 550 347 l 362 485 l 331 462 l 362 556 l 440 499 l 409 590 l 488 647 l 392 647 l 362 739 l 331 647 l 236 647 l 314 590 l 255 407 z "},"":{"ha":723,"x_min":58,"x_max":666,"o":"m 255 407 l 174 347 l 246 569 l 58 705 l 289 705 l 362 926 l 434 705 l 666 705 l 477 569 l 550 347 l 362 485 l 331 462 l 362 556 l 440 499 l 409 590 l 488 647 l 392 647 l 362 739 l 331 647 l 236 647 l 314 590 l 255 407 z "},"":{"ha":984,"x_min":58,"x_max":926,"o":"m 707 407 q 699 461 707 417 q 690 534 690 505 q 703 587 690 567 l 719 609 l 446 1016 l 446 1071 l 618 1071 l 926 608 l 820 447 q 806 530 806 519 l 806 531 l 856 606 l 586 1013 l 516 1013 l 788 609 l 752 554 q 748 535 748 550 q 757 464 748 514 q 765 399 765 415 q 751 346 765 366 l 616 145 l 446 145 l 446 203 l 635 486 q 650 404 650 414 l 650 402 l 515 203 l 584 203 l 703 378 q 707 407 707 386 m 320 407 q 311 461 320 417 q 302 534 302 505 q 315 587 302 567 l 331 609 l 58 1016 l 58 1071 l 230 1071 l 538 608 l 433 447 q 418 530 418 519 l 418 531 l 469 606 l 198 1013 l 129 1013 l 401 609 l 365 554 q 360 535 360 550 q 369 464 360 514 q 378 399 378 415 q 363 346 378 366 l 229 145 l 58 145 l 58 203 l 247 486 q 262 404 262 414 l 262 402 l 127 203 l 197 203 l 315 378 q 320 407 320 386 z "},"":{"ha":984,"x_min":87,"x_max":926,"o":"m 521 984 q 582 958 556 984 q 608 897 608 933 l 608 810 l 434 810 l 434 897 q 460 958 434 936 q 521 984 483 984 m 521 926 q 500 917 508 926 q 492 897 492 909 l 492 868 l 550 868 l 550 897 q 541 918 550 910 q 521 926 532 926 m 926 58 q 894 -84 926 -25 q 811 -173 862 -143 q 710 -216 760 -203 q 608 -231 660 -230 l 405 -231 q 188 -158 286 -231 q 87 58 87 -82 l 87 116 q 188 334 87 250 q 318 405 273 405 q 433 435 398 405 l 433 434 q 464 386 451 409 q 347 350 447 354 q 224 289 298 349 q 145 116 145 227 l 145 58 q 215 -106 145 -46 q 405 -174 285 -165 l 612 -174 q 692 -163 652 -174 q 773 -129 732 -153 q 841 -57 815 -106 q 868 58 867 -9 l 810 58 q 736 -75 797 -35 q 554 -116 676 -116 l 466 -116 q 268 -70 334 -116 q 203 87 203 -25 q 224 187 203 145 q 275 250 245 230 q 332 280 305 271 q 379 289 359 289 q 521 407 516 289 q 477 482 521 422 q 434 579 434 541 l 434 694 l 608 694 l 608 635 q 584 535 608 582 l 569 556 q 544 590 551 579 q 550 635 550 609 l 550 637 l 492 637 l 492 579 q 535 501 492 563 q 579 407 579 440 q 533 288 579 341 q 408 234 488 234 q 310 204 357 234 q 260 87 260 174 q 305 -25 260 9 q 466 -58 349 -58 l 554 -58 q 707 -26 667 -58 q 752 116 752 10 l 926 116 l 926 58 z "},"":{"ha":984,"x_min":58,"x_max":926,"o":"m 174 347 q 116 422 174 363 q 58 521 58 482 l 58 872 q 158 1087 58 1008 q 372 1157 243 1157 l 611 1157 q 837 1075 748 1155 q 926 867 926 995 l 926 0 l 752 0 l 752 579 l 289 579 l 289 752 l 752 752 l 752 810 q 703 953 752 917 q 550 984 660 984 l 434 984 q 276 948 320 984 q 231 813 231 913 l 231 469 q 211 490 229 473 q 174 531 192 508 l 174 816 q 240 994 175 946 q 434 1042 305 1042 l 550 1042 q 746 992 681 1042 q 810 813 810 943 l 810 694 l 347 694 l 347 637 l 810 637 l 810 58 l 868 58 l 868 870 q 794 1037 867 974 q 608 1100 720 1100 l 372 1100 q 187 1037 259 1100 q 116 872 116 975 l 116 521 q 145 477 116 505 q 203 414 174 448 q 231 347 231 379 l 231 0 l 58 0 l 58 398 l 84 372 q 114 339 106 350 l 116 337 l 116 58 l 174 58 l 174 347 m 311 1348 l 311 1447 l 476 1447 l 673 1314 l 673 1215 l 509 1215 l 311 1348 m 615 1273 l 615 1282 l 459 1389 l 369 1389 l 369 1380 l 525 1273 l 615 1273 z "},"":{"ha":984,"x_min":58,"x_max":926,"o":"m 174 347 q 116 422 174 363 q 58 521 58 482 l 58 872 q 158 1087 58 1008 q 372 1157 243 1157 l 611 1157 q 837 1075 748 1155 q 926 867 926 995 l 926 0 l 752 0 l 752 579 l 289 579 l 289 752 l 752 752 l 752 810 q 703 953 752 917 q 550 984 660 984 l 434 984 q 276 948 320 984 q 231 813 231 913 l 231 469 q 211 490 229 473 q 174 531 192 508 l 174 816 q 240 994 175 946 q 434 1042 305 1042 l 550 1042 q 746 992 681 1042 q 810 813 810 943 l 810 694 l 347 694 l 347 637 l 810 637 l 810 58 l 868 58 l 868 870 q 794 1037 867 974 q 608 1100 720 1100 l 372 1100 q 187 1037 259 1100 q 116 872 116 975 l 116 521 q 145 477 116 505 q 203 414 174 448 q 231 347 231 379 l 231 0 l 58 0 l 58 398 l 84 372 q 114 339 106 350 l 116 337 l 116 58 l 174 58 l 174 347 m 673 1348 l 475 1215 l 311 1215 l 311 1314 l 508 1447 l 673 1447 l 673 1348 m 525 1389 l 356 1273 l 459 1273 l 628 1389 l 525 1389 z "},"":{"ha":984,"x_min":58,"x_max":926,"o":"m 174 347 q 116 422 174 363 q 58 521 58 482 l 58 872 q 158 1087 58 1008 q 372 1157 243 1157 l 611 1157 q 837 1075 748 1155 q 926 867 926 995 l 926 0 l 752 0 l 752 579 l 289 579 l 289 752 l 752 752 l 752 810 q 703 953 752 917 q 550 984 660 984 l 434 984 q 276 948 320 984 q 231 813 231 913 l 231 469 q 211 490 229 473 q 174 531 192 508 l 174 816 q 240 994 175 946 q 434 1042 305 1042 l 550 1042 q 746 992 681 1042 q 810 813 810 943 l 810 694 l 347 694 l 347 637 l 810 637 l 810 58 l 868 58 l 868 870 q 794 1037 867 974 q 608 1100 720 1100 l 372 1100 q 187 1037 259 1100 q 116 872 116 975 l 116 521 q 145 477 116 505 q 203 414 174 448 q 231 347 231 379 l 231 0 l 58 0 l 58 398 l 84 372 q 114 339 106 350 l 116 337 l 116 58 l 174 58 l 174 347 m 490 1367 l 626 1273 l 729 1273 l 493 1435 l 258 1273 l 357 1273 l 490 1367 m 490 1298 l 373 1215 l 210 1215 l 210 1314 l 492 1505 l 774 1314 l 774 1215 l 611 1215 l 490 1298 z "},"":{"ha":984,"x_min":58,"x_max":926,"o":"m 174 347 q 116 422 174 363 q 58 521 58 482 l 58 872 q 158 1087 58 1008 q 372 1157 243 1157 l 611 1157 q 837 1075 748 1155 q 926 867 926 995 l 926 0 l 752 0 l 752 579 l 289 579 l 289 752 l 752 752 l 752 810 q 703 953 752 917 q 550 984 660 984 l 434 984 q 276 948 320 984 q 231 813 231 913 l 231 469 q 211 490 229 473 q 174 531 192 508 l 174 816 q 240 994 175 946 q 434 1042 305 1042 l 550 1042 q 746 992 681 1042 q 810 813 810 943 l 810 694 l 347 694 l 347 637 l 810 637 l 810 58 l 868 58 l 868 870 q 794 1037 867 974 q 608 1100 720 1100 l 372 1100 q 187 1037 259 1100 q 116 872 116 975 l 116 521 q 145 477 116 505 q 203 414 174 448 q 231 347 231 379 l 231 0 l 58 0 l 58 398 l 84 372 q 114 339 106 350 l 116 337 l 116 58 l 174 58 l 174 347 m 599 1247 q 478 1272 544 1247 q 386 1298 412 1298 q 266 1238 318 1298 l 246 1215 l 123 1340 l 145 1360 q 386 1471 265 1471 q 509 1446 444 1471 q 599 1421 573 1421 q 718 1481 666 1421 l 738 1505 l 861 1379 l 841 1359 q 599 1247 729 1247 m 386 1356 q 486 1330 425 1356 q 599 1305 547 1305 q 778 1380 694 1305 l 738 1421 q 599 1363 671 1363 q 498 1388 558 1363 q 386 1413 438 1413 q 205 1340 289 1413 l 247 1298 q 386 1356 314 1356 z "},"":{"ha":984,"x_min":58,"x_max":926,"o":"m 174 347 q 116 422 174 363 q 58 521 58 482 l 58 872 q 158 1087 58 1008 q 372 1157 243 1157 l 611 1157 q 837 1075 748 1155 q 926 867 926 995 l 926 0 l 752 0 l 752 579 l 289 579 l 289 752 l 752 752 l 752 810 q 703 953 752 917 q 550 984 660 984 l 434 984 q 276 948 320 984 q 231 813 231 913 l 231 469 q 211 490 229 473 q 174 531 192 508 l 174 816 q 240 994 175 946 q 434 1042 305 1042 l 550 1042 q 746 992 681 1042 q 810 813 810 943 l 810 694 l 347 694 l 347 637 l 810 637 l 810 58 l 868 58 l 868 870 q 794 1037 867 974 q 608 1100 720 1100 l 372 1100 q 187 1037 259 1100 q 116 872 116 975 l 116 521 q 145 477 116 505 q 203 414 174 448 q 231 347 231 379 l 231 0 l 58 0 l 58 398 l 84 372 q 114 339 106 350 l 116 337 l 116 58 l 174 58 l 174 347 m 723 1215 q 663 1241 689 1215 q 637 1302 637 1266 l 637 1389 l 810 1389 l 810 1302 q 784 1241 810 1263 q 723 1215 761 1215 m 723 1273 q 744 1282 736 1273 q 752 1302 752 1291 l 752 1331 l 694 1331 l 694 1302 q 703 1281 694 1289 q 723 1273 712 1273 m 260 1215 q 200 1241 226 1215 q 174 1302 174 1266 l 174 1389 l 347 1389 l 347 1302 q 321 1241 347 1263 q 260 1215 298 1215 m 260 1273 q 281 1282 273 1273 q 289 1302 289 1291 l 289 1331 l 231 1331 l 231 1302 q 240 1281 231 1289 q 260 1273 249 1273 z "},"":{"ha":984,"x_min":58,"x_max":926,"o":"m 576 1353 q 560 1371 576 1353 q 492 1389 544 1389 q 408 1353 440 1389 q 376 1273 376 1318 q 410 1192 376 1227 q 492 1157 444 1157 q 574 1191 541 1157 q 608 1273 608 1225 q 576 1353 608 1318 m 318 1273 q 367 1395 318 1344 q 492 1447 417 1447 q 616 1395 567 1447 q 666 1273 666 1344 q 621 1157 666 1207 q 839 1073 752 1152 q 926 867 926 994 l 926 0 l 752 0 l 752 579 l 289 579 l 289 752 l 752 752 l 752 810 q 703 953 752 917 q 550 984 660 984 l 434 984 q 281 953 324 984 q 231 810 231 917 l 231 469 q 211 490 229 473 q 174 531 192 508 l 174 816 q 240 994 175 946 q 434 1042 305 1042 l 550 1042 q 746 992 681 1042 q 810 813 810 943 l 810 694 l 347 694 l 347 637 l 810 637 l 810 58 l 868 58 l 868 870 q 794 1037 867 974 q 608 1100 720 1100 l 372 1100 q 187 1037 259 1100 q 116 872 116 975 l 116 521 q 145 477 116 505 q 203 414 174 448 q 231 347 231 379 l 231 0 l 58 0 l 58 398 l 84 372 q 114 339 106 350 l 116 337 l 116 58 l 174 58 l 174 347 q 116 422 174 363 q 58 521 58 482 l 58 872 q 158 1087 58 1008 q 363 1157 240 1155 q 318 1273 318 1207 m 533 1233 q 525 1224 533 1233 q 492 1215 516 1215 q 451 1233 467 1215 q 434 1273 434 1250 q 451 1314 434 1298 q 492 1331 469 1331 q 532 1314 515 1331 q 550 1273 550 1298 q 533 1233 550 1250 z "},"":{"ha":1678,"x_min":58,"x_max":1620,"o":"m 1128 116 q 1026 124 1069 116 q 945 156 984 133 q 888 227 907 179 q 868 347 868 275 l 868 637 l 1273 637 l 1273 694 l 868 694 l 868 1042 l 1563 1043 l 1563 1100 l 372 1100 q 187 1037 259 1100 q 116 872 116 975 l 116 521 q 145 477 116 505 q 203 414 174 448 q 231 347 231 379 l 231 0 l 58 0 l 58 398 l 84 372 q 114 339 106 350 l 116 337 l 116 58 l 174 58 l 174 347 q 145 391 174 362 q 87 455 116 420 q 58 521 58 490 l 58 872 q 158 1087 58 1008 q 372 1157 243 1157 l 1620 1157 l 1620 985 l 926 985 l 926 752 l 1331 752 l 1331 579 l 926 579 l 926 347 q 975 204 926 240 q 1128 174 1019 174 l 1620 174 l 1620 0 l 752 0 l 752 579 l 289 579 l 289 752 l 752 752 l 752 810 q 703 953 752 917 q 550 984 660 984 l 434 984 q 281 953 324 984 q 231 810 231 917 l 231 469 q 174 530 223 480 l 174 816 q 239 992 174 943 q 434 1042 304 1042 l 550 1042 q 746 992 681 1042 q 810 813 810 943 l 810 694 l 347 694 l 347 637 l 810 637 l 810 58 l 1563 58 l 1563 116 l 1128 116 z "},"":{"ha":984,"x_min":58,"x_max":926,"o":"m 58 872 q 148 1078 58 998 q 372 1157 239 1157 l 608 1157 q 836 1076 747 1155 q 926 868 924 998 l 926 810 l 752 810 q 703 953 752 917 q 550 984 660 984 l 434 984 q 281 953 324 984 q 231 810 231 917 l 231 469 q 205 497 230 472 q 174 530 179 522 l 174 816 q 239 992 174 943 q 434 1042 304 1042 l 550 1042 q 731 1003 670 1042 q 806 868 791 965 l 868 868 q 795 1035 867 974 q 608 1100 723 1097 l 372 1100 q 191 1039 266 1100 q 116 868 116 978 l 116 521 q 174 446 116 503 q 231 347 231 388 q 281 204 231 240 q 434 174 324 174 l 550 174 q 703 204 660 174 q 752 347 752 240 l 926 347 l 926 289 q 836 80 926 159 q 612 0 747 0 l 579 0 q 608 -87 608 -41 q 574 -188 608 -145 q 477 -231 541 -231 l 347 -231 l 347 -58 l 405 -58 l 405 0 l 376 0 q 266 14 315 0 q 183 55 217 29 q 129 103 149 81 q 88 158 109 126 q 58 260 58 203 l 58 399 l 84 373 q 114 339 104 339 q 116 337 116 339 l 116 291 q 192 120 116 182 q 376 58 268 58 l 463 58 l 463 -58 q 483 -67 475 -58 q 492 -87 492 -75 q 475 -111 492 -107 q 405 -116 459 -116 l 405 -174 l 463 -174 q 550 -87 550 -174 q 521 -29 550 -54 l 521 58 l 612 58 q 794 120 720 58 q 868 289 868 182 l 807 289 q 734 156 794 197 q 550 116 674 116 l 434 116 q 240 163 295 116 q 174 318 185 210 l 174 347 q 116 422 174 365 q 58 521 58 480 l 58 872 z "},"":{"ha":984,"x_min":58,"x_max":926,"o":"m 174 347 q 116 422 174 363 q 58 521 58 480 l 58 1157 l 926 1157 l 926 984 l 231 984 l 231 752 l 637 752 l 637 579 l 231 579 l 231 469 q 211 490 229 473 q 174 531 192 508 l 174 637 l 579 637 l 579 694 l 174 694 l 174 1042 l 868 1042 l 868 1100 l 116 1100 l 116 521 q 174 446 116 505 q 231 347 231 386 q 281 204 231 240 q 434 174 324 174 l 926 174 l 926 0 l 58 0 l 58 399 q 79 378 61 395 q 116 337 97 360 l 116 58 l 868 58 l 868 116 l 434 116 q 247 158 305 116 q 174 347 174 224 m 311 1348 l 311 1447 l 476 1447 l 673 1314 l 673 1215 l 509 1215 l 311 1348 m 615 1273 l 615 1282 l 459 1389 l 369 1389 l 369 1380 l 525 1273 l 615 1273 z "},"":{"ha":984,"x_min":58,"x_max":926,"o":"m 174 347 q 116 422 174 363 q 58 521 58 480 l 58 1157 l 926 1157 l 926 984 l 231 984 l 231 752 l 637 752 l 637 579 l 231 579 l 231 469 q 211 490 229 473 q 174 531 192 508 l 174 637 l 579 637 l 579 694 l 174 694 l 174 1042 l 868 1042 l 868 1100 l 116 1100 l 116 521 q 174 446 116 505 q 231 347 231 386 q 281 204 231 240 q 434 174 324 174 l 926 174 l 926 0 l 58 0 l 58 399 q 79 378 61 395 q 116 337 97 360 l 116 58 l 868 58 l 868 116 l 434 116 q 247 158 305 116 q 174 347 174 224 m 673 1348 l 475 1215 l 311 1215 l 311 1314 l 508 1447 l 673 1447 l 673 1348 m 525 1389 l 356 1273 l 459 1273 l 628 1389 l 525 1389 z "},"":{"ha":984,"x_min":58,"x_max":926,"o":"m 174 347 q 116 422 174 363 q 58 521 58 480 l 58 1157 l 926 1157 l 926 984 l 231 984 l 231 752 l 637 752 l 637 579 l 231 579 l 231 469 q 211 490 229 473 q 174 531 192 508 l 174 637 l 579 637 l 579 694 l 174 694 l 174 1042 l 868 1042 l 868 1100 l 116 1100 l 116 521 q 174 446 116 505 q 231 347 231 386 q 281 204 231 240 q 434 174 324 174 l 926 174 l 926 0 l 58 0 l 58 399 q 79 378 61 395 q 116 337 97 360 l 116 58 l 868 58 l 868 116 l 434 116 q 247 158 305 116 q 174 347 174 224 m 490 1367 l 626 1273 l 729 1273 l 493 1435 l 258 1273 l 357 1273 l 490 1367 m 490 1298 l 373 1215 l 210 1215 l 210 1314 l 492 1505 l 774 1314 l 774 1215 l 611 1215 l 490 1298 z "},"":{"ha":984,"x_min":58,"x_max":926,"o":"m 174 347 q 116 422 174 363 q 58 521 58 480 l 58 1157 l 926 1157 l 926 984 l 231 984 l 231 752 l 637 752 l 637 579 l 231 579 l 231 469 q 211 490 229 473 q 174 531 192 508 l 174 637 l 579 637 l 579 694 l 174 694 l 174 1042 l 868 1042 l 868 1100 l 116 1100 l 116 521 q 174 446 116 505 q 231 347 231 386 q 281 204 231 240 q 434 174 324 174 l 926 174 l 926 0 l 58 0 l 58 399 q 79 378 61 395 q 116 337 97 360 l 116 58 l 868 58 l 868 116 l 434 116 q 247 158 305 116 q 174 347 174 224 m 723 1215 q 663 1241 689 1215 q 637 1302 637 1266 l 637 1389 l 810 1389 l 810 1302 q 784 1241 810 1263 q 723 1215 761 1215 m 723 1273 q 744 1282 736 1273 q 752 1302 752 1291 l 752 1331 l 694 1331 l 694 1302 q 703 1281 694 1289 q 723 1273 712 1273 m 260 1215 q 200 1241 226 1215 q 174 1302 174 1266 l 174 1389 l 347 1389 l 347 1302 q 321 1241 347 1263 q 260 1215 298 1215 m 260 1273 q 281 1282 273 1273 q 289 1302 289 1291 l 289 1331 l 231 1331 l 231 1302 q 240 1281 231 1289 q 260 1273 249 1273 z "},"":{"ha":289,"x_min":-72,"x_max":289,"o":"m 174 347 q 116 422 174 365 q 58 521 58 480 l 58 1157 l 231 1157 l 231 469 q 204 498 229 473 q 174 531 179 522 l 174 1100 l 116 1100 l 116 521 q 174 446 116 503 q 231 347 231 388 l 231 0 l 58 0 l 58 399 l 84 373 q 116 337 113 341 l 116 58 l 174 58 l 174 347 m -72 1350 l -72 1447 l 93 1447 l 289 1314 l 289 1215 l 126 1215 l -72 1350 m 231 1273 l 231 1283 l 75 1389 l -14 1389 l -14 1380 l 142 1273 l 231 1273 z "},"":{"ha":289,"x_min":0,"x_max":362,"o":"m 174 347 q 116 422 174 365 q 58 521 58 480 l 58 1157 l 231 1157 l 231 469 q 204 498 229 473 q 174 531 179 522 l 174 1100 l 116 1100 l 116 521 q 174 446 116 503 q 231 347 231 388 l 231 0 l 58 0 l 58 399 l 84 373 q 116 337 113 341 l 116 58 l 174 58 l 174 347 m 362 1350 l 163 1215 l 0 1215 l 0 1315 l 197 1447 l 362 1447 l 362 1350 m 214 1389 l 45 1273 l 148 1273 l 317 1389 l 214 1389 z "},"":{"ha":289,"x_min":-137,"x_max":427,"o":"m 174 347 q 116 422 174 365 q 58 521 58 480 l 58 1157 l 231 1157 l 231 469 q 204 498 229 473 q 174 531 179 522 l 174 1100 l 116 1100 l 116 521 q 174 446 116 503 q 231 347 231 388 l 231 0 l 58 0 l 58 399 l 84 373 q 116 337 113 341 l 116 58 l 174 58 l 174 347 m 143 1367 l 279 1273 l 382 1273 l 146 1435 l -90 1273 l 10 1273 l 143 1367 m 143 1298 l 26 1215 l -137 1215 l -137 1315 l 145 1505 l 427 1315 l 427 1215 l 263 1215 l 143 1298 z "},"":{"ha":289,"x_min":-58,"x_max":347,"o":"m 260 1215 q 200 1241 226 1215 q 174 1302 174 1266 l 174 1389 l 347 1389 l 347 1302 q 321 1241 347 1263 q 260 1215 298 1215 m 260 1273 q 281 1282 273 1273 q 289 1302 289 1291 l 289 1331 l 231 1331 l 231 1302 q 240 1281 231 1289 q 260 1273 249 1273 m 29 1215 q -32 1241 -6 1215 q -58 1302 -58 1266 l -58 1389 l 116 1389 l 116 1302 q 90 1241 116 1263 q 29 1215 67 1215 m 29 1273 q 50 1282 42 1273 q 58 1302 58 1291 l 58 1331 l 0 1331 l 0 1302 q 9 1281 0 1289 q 29 1273 17 1273 m 174 347 q 116 422 174 365 q 58 521 58 480 l 58 1157 l 231 1157 l 231 469 q 204 498 229 473 q 174 531 179 522 l 174 1100 l 116 1100 l 116 521 q 174 446 116 503 q 231 347 231 388 l 231 0 l 58 0 l 58 399 l 84 373 q 116 337 113 341 l 116 58 l 174 58 l 174 347 z "},"":{"ha":984,"x_min":0,"x_max":926,"o":"m 868 868 q 793 1038 868 977 q 608 1100 718 1100 l 116 1100 l 116 694 l 58 694 l 58 637 l 116 637 l 116 521 q 145 477 116 505 q 203 414 174 448 q 231 347 231 379 q 281 204 231 242 q 434 174 324 174 l 550 174 q 703 204 660 174 q 752 347 752 240 l 752 810 q 703 953 752 917 q 550 984 660 984 l 231 984 l 231 752 l 463 752 l 463 579 l 231 579 l 231 469 q 174 530 223 480 l 174 637 l 405 637 l 405 694 l 174 694 l 174 1042 l 550 1042 q 746 992 681 1042 q 810 810 810 942 l 810 347 q 746 166 810 216 q 550 116 681 116 l 434 116 q 247 158 298 116 q 174 347 174 218 q 116 422 174 363 q 58 521 58 480 l 58 579 l 0 579 l 0 752 l 58 752 l 58 1157 l 608 1157 q 836 1078 747 1157 q 926 870 926 998 l 926 288 q 835 80 926 161 q 608 0 744 0 l 58 0 l 58 399 q 77 379 61 395 q 116 337 94 363 l 116 58 l 608 58 q 794 122 720 58 q 868 288 868 185 l 868 868 z "},"":{"ha":984,"x_min":58,"x_max":926,"o":"m 926 1157 l 926 0 l 752 0 q 752 308 752 0 l 281 835 q 249 851 265 851 q 231 815 231 851 l 231 469 q 205 496 223 479 q 174 530 188 512 l 174 806 q 236 904 174 888 l 243 906 q 255 907 250 907 q 311 885 285 907 l 796 347 l 810 333 l 810 58 l 868 58 l 868 1100 l 810 1100 l 810 637 q 728 550 797 550 q 658 586 687 550 l 198 1100 l 116 1100 l 116 521 q 145 477 116 505 q 203 414 174 448 q 231 347 231 379 l 231 0 l 58 0 l 58 399 q 90 367 64 394 q 116 337 116 340 l 116 58 l 174 58 l 174 347 q 145 391 174 363 q 87 454 116 420 q 58 521 58 489 l 58 1157 l 224 1157 l 705 622 q 731 608 718 608 q 752 651 752 608 l 752 1157 l 926 1157 m 599 1247 q 478 1272 544 1247 q 386 1298 412 1298 q 266 1238 318 1298 l 246 1215 l 123 1340 l 145 1360 q 386 1471 265 1471 q 509 1446 444 1471 q 599 1421 573 1421 q 718 1481 666 1421 l 738 1505 l 861 1379 l 841 1359 q 599 1247 729 1247 m 386 1356 q 486 1330 425 1356 q 599 1305 547 1305 q 778 1380 694 1305 l 738 1421 q 599 1363 671 1363 q 498 1388 558 1363 q 386 1413 438 1413 q 205 1340 289 1413 l 247 1298 q 386 1356 314 1356 z "},"":{"ha":984,"x_min":58,"x_max":926,"o":"m 174 347 q 116 422 174 363 q 58 521 58 480 l 58 872 q 159 1085 58 1005 q 376 1157 246 1157 l 608 1157 q 836 1078 747 1157 q 926 870 926 998 l 926 291 q 836 81 926 162 q 608 0 745 0 l 372 0 q 88 158 185 0 q 58 260 58 205 l 58 399 q 82 374 62 395 q 114 339 103 353 q 116 337 116 339 l 116 289 q 190 120 116 182 q 372 58 263 58 l 608 58 q 794 122 720 58 q 868 288 868 185 l 868 868 q 797 1034 868 972 q 608 1100 726 1097 l 376 1100 q 190 1037 265 1100 q 116 867 116 974 l 116 521 q 145 477 116 505 q 203 414 174 448 q 231 347 231 379 q 281 204 231 240 q 434 174 324 174 l 550 174 q 703 204 660 174 q 752 347 752 240 l 752 810 q 703 953 752 917 q 550 984 660 984 l 434 984 q 281 953 324 984 q 231 810 231 917 l 231 469 q 174 530 223 480 l 174 816 q 239 992 174 943 q 434 1042 304 1042 l 550 1042 q 746 992 681 1042 q 810 810 810 942 l 810 347 q 746 166 810 216 q 550 116 681 116 l 434 116 q 242 161 305 116 q 174 318 179 207 l 174 347 m 311 1350 l 311 1447 l 476 1447 l 673 1314 l 673 1215 l 509 1215 l 311 1350 m 615 1273 l 615 1283 l 459 1389 l 369 1389 l 369 1380 l 525 1273 l 615 1273 z "},"":{"ha":984,"x_min":58,"x_max":926,"o":"m 174 347 q 116 422 174 363 q 58 521 58 480 l 58 872 q 159 1085 58 1005 q 376 1157 246 1157 l 608 1157 q 836 1078 747 1157 q 926 870 926 998 l 926 291 q 836 81 926 162 q 608 0 745 0 l 372 0 q 88 158 185 0 q 58 260 58 205 l 58 399 q 82 374 62 395 q 114 339 103 353 q 116 337 116 339 l 116 289 q 190 120 116 182 q 372 58 263 58 l 608 58 q 794 122 720 58 q 868 288 868 185 l 868 868 q 797 1034 868 972 q 608 1100 726 1097 l 376 1100 q 190 1037 265 1100 q 116 867 116 974 l 116 521 q 145 477 116 505 q 203 414 174 448 q 231 347 231 379 q 281 204 231 240 q 434 174 324 174 l 550 174 q 703 204 660 174 q 752 347 752 240 l 752 810 q 703 953 752 917 q 550 984 660 984 l 434 984 q 281 953 324 984 q 231 810 231 917 l 231 469 q 174 530 223 480 l 174 816 q 239 992 174 943 q 434 1042 304 1042 l 550 1042 q 746 992 681 1042 q 810 810 810 942 l 810 347 q 746 166 810 216 q 550 116 681 116 l 434 116 q 242 161 305 116 q 174 318 179 207 l 174 347 m 673 1350 l 475 1215 l 311 1215 l 311 1315 l 508 1447 l 673 1447 l 673 1350 m 525 1389 l 356 1273 l 459 1273 l 628 1389 l 525 1389 z "},"":{"ha":984,"x_min":58,"x_max":926,"o":"m 174 347 q 116 422 174 363 q 58 521 58 480 l 58 872 q 159 1085 58 1005 q 376 1157 246 1157 l 608 1157 q 836 1078 747 1157 q 926 870 926 998 l 926 291 q 836 81 926 162 q 608 0 745 0 l 372 0 q 88 158 185 0 q 58 260 58 205 l 58 399 q 82 374 62 395 q 114 339 103 353 q 116 337 116 339 l 116 289 q 190 120 116 182 q 372 58 263 58 l 608 58 q 794 122 720 58 q 868 288 868 185 l 868 868 q 797 1034 868 972 q 608 1100 726 1097 l 376 1100 q 190 1037 265 1100 q 116 867 116 974 l 116 521 q 145 477 116 505 q 203 414 174 448 q 231 347 231 379 q 281 204 231 240 q 434 174 324 174 l 550 174 q 703 204 660 174 q 752 347 752 240 l 752 810 q 703 953 752 917 q 550 984 660 984 l 434 984 q 281 953 324 984 q 231 810 231 917 l 231 469 q 174 530 223 480 l 174 816 q 239 992 174 943 q 434 1042 304 1042 l 550 1042 q 746 992 681 1042 q 810 810 810 942 l 810 347 q 746 166 810 216 q 550 116 681 116 l 434 116 q 242 161 305 116 q 174 318 179 207 l 174 347 m 490 1367 l 626 1273 l 729 1273 l 493 1435 l 258 1273 l 357 1273 l 490 1367 m 490 1298 l 373 1215 l 210 1215 l 210 1315 l 492 1505 l 774 1315 l 774 1215 l 611 1215 l 490 1298 z "},"":{"ha":984,"x_min":58,"x_max":926,"o":"m 174 347 q 116 422 174 363 q 58 521 58 480 l 58 872 q 159 1085 58 1005 q 376 1157 246 1157 l 608 1157 q 836 1078 747 1157 q 926 870 926 998 l 926 291 q 836 81 926 162 q 608 0 745 0 l 372 0 q 88 158 185 0 q 58 260 58 205 l 58 399 q 82 374 62 395 q 114 339 103 353 q 116 337 116 339 l 116 289 q 190 120 116 182 q 372 58 263 58 l 608 58 q 794 122 720 58 q 868 288 868 185 l 868 868 q 797 1034 868 972 q 608 1100 726 1097 l 376 1100 q 190 1037 265 1100 q 116 867 116 974 l 116 521 q 145 477 116 505 q 203 414 174 448 q 231 347 231 379 q 281 204 231 240 q 434 174 324 174 l 550 174 q 703 204 660 174 q 752 347 752 240 l 752 810 q 703 953 752 917 q 550 984 660 984 l 434 984 q 281 953 324 984 q 231 810 231 917 l 231 469 q 174 530 223 480 l 174 816 q 239 992 174 943 q 434 1042 304 1042 l 550 1042 q 746 992 681 1042 q 810 810 810 942 l 810 347 q 746 166 810 216 q 550 116 681 116 l 434 116 q 242 161 305 116 q 174 318 179 207 l 174 347 m 599 1247 q 478 1272 544 1247 q 386 1298 412 1298 q 266 1238 318 1298 l 246 1215 l 123 1340 l 145 1360 q 386 1471 265 1471 q 509 1446 444 1471 q 599 1421 573 1421 q 718 1481 666 1421 l 738 1505 l 861 1379 l 841 1359 q 599 1247 729 1247 m 386 1356 q 486 1330 425 1356 q 599 1305 547 1305 q 778 1380 694 1305 l 738 1421 q 599 1363 671 1363 q 498 1388 558 1363 q 386 1413 438 1413 q 205 1340 289 1413 l 247 1298 q 386 1356 314 1356 z "},"":{"ha":984,"x_min":58,"x_max":926,"o":"m 174 347 q 116 422 174 363 q 58 521 58 480 l 58 872 q 159 1085 58 1005 q 376 1157 246 1157 l 608 1157 q 836 1078 747 1157 q 926 870 926 998 l 926 291 q 836 81 926 162 q 608 0 745 0 l 372 0 q 88 158 185 0 q 58 260 58 205 l 58 399 q 82 374 62 395 q 114 339 103 353 q 116 337 116 339 l 116 289 q 190 120 116 182 q 372 58 263 58 l 608 58 q 794 122 720 58 q 868 288 868 185 l 868 868 q 797 1034 868 972 q 608 1100 726 1097 l 376 1100 q 190 1037 265 1100 q 116 867 116 974 l 116 521 q 145 477 116 505 q 203 414 174 448 q 231 347 231 379 q 281 204 231 240 q 434 174 324 174 l 550 174 q 703 204 660 174 q 752 347 752 240 l 752 810 q 703 953 752 917 q 550 984 660 984 l 434 984 q 281 953 324 984 q 231 810 231 917 l 231 469 q 174 530 223 480 l 174 816 q 239 992 174 943 q 434 1042 304 1042 l 550 1042 q 746 992 681 1042 q 810 810 810 942 l 810 347 q 746 166 810 216 q 550 116 681 116 l 434 116 q 242 161 305 116 q 174 318 179 207 l 174 347 m 723 1215 q 663 1241 689 1215 q 637 1302 637 1266 l 637 1389 l 810 1389 l 810 1302 q 784 1241 810 1263 q 723 1215 761 1215 m 723 1273 q 744 1282 736 1273 q 752 1302 752 1291 l 752 1331 l 694 1331 l 694 1302 q 703 1281 694 1289 q 723 1273 712 1273 m 260 1215 q 200 1241 226 1215 q 174 1302 174 1266 l 174 1389 l 347 1389 l 347 1302 q 321 1241 347 1263 q 260 1215 298 1215 m 260 1273 q 281 1282 273 1273 q 289 1302 289 1291 l 289 1331 l 231 1331 l 231 1302 q 240 1281 231 1289 q 260 1273 249 1273 z "},"":{"ha":868,"x_min":65,"x_max":803,"o":"m 282 495 q 311 608 282 579 l 65 854 l 188 977 l 434 731 l 680 977 l 803 854 l 557 608 l 803 362 l 680 239 l 434 485 l 398 448 l 398 485 q 401 532 398 515 l 434 567 l 680 321 l 720 362 l 475 608 l 720 854 l 680 894 l 434 648 l 188 894 l 148 854 l 394 608 l 352 567 q 340 485 340 556 q 311 362 340 391 l 188 239 l 65 362 l 224 521 l 224 485 q 223 437 224 446 l 148 363 l 188 321 l 271 404 q 282 462 282 415 q 282 475 282 467 q 282 495 282 482 z "},"":{"ha":984,"x_min":58,"x_max":926,"o":"m 58 399 q 82 374 62 395 q 114 339 103 353 q 116 337 116 339 l 116 289 q 221 97 122 155 l 177 0 l 240 0 l 273 72 q 372 58 317 61 l 608 58 q 794 122 720 58 q 868 288 868 185 l 868 868 q 742 1071 868 1010 l 784 1157 l 720 1157 l 689 1089 q 608 1100 639 1100 l 376 1100 q 190 1037 265 1100 q 116 867 116 974 l 116 521 q 145 477 116 505 q 203 414 174 448 q 231 347 231 379 q 240 271 231 304 l 574 984 l 434 984 q 281 953 324 984 q 231 810 231 917 l 231 470 q 205 495 218 483 l 174 530 l 174 816 q 239 992 174 943 q 434 1042 304 1042 l 550 1042 q 661 1032 611 1042 l 250 156 q 174 318 178 207 l 174 347 q 116 422 174 363 q 58 521 58 480 l 58 872 q 159 1085 58 1005 q 376 1157 246 1157 l 608 1157 q 654 1155 625 1157 l 683 1215 l 874 1215 l 816 1092 q 926 870 926 1014 l 926 291 q 836 81 926 162 q 608 0 745 0 l 372 0 q 307 4 337 0 l 278 -58 l 87 -58 l 150 78 q 58 260 58 163 l 58 399 m 810 347 q 746 166 810 216 q 550 116 681 116 l 434 116 q 302 132 362 116 l 716 1013 q 810 810 810 961 l 810 347 m 734 916 l 386 175 q 434 174 401 174 l 550 174 q 703 204 660 174 q 752 347 752 240 l 752 810 q 734 916 752 878 z "},"":{"ha":984,"x_min":58,"x_max":926,"o":"m 926 1157 l 926 0 l 372 0 q 147 80 236 0 q 58 289 58 161 l 58 399 q 82 374 62 395 q 114 339 103 353 q 116 337 116 339 l 116 289 q 190 120 116 182 q 372 58 263 58 l 868 58 l 868 1100 l 810 1100 l 810 347 q 746 166 810 216 q 550 116 681 116 l 434 116 q 247 158 305 116 q 174 340 174 226 q 156 381 174 359 q 116 422 137 404 q 76 468 94 441 q 58 521 58 495 l 58 1157 l 231 1157 l 231 470 q 174 531 185 516 l 174 1100 l 116 1100 l 116 521 q 174 446 116 505 q 231 347 231 388 q 281 204 231 240 q 434 174 324 174 l 550 174 q 708 210 664 174 q 752 347 752 246 l 752 1157 l 926 1157 m 311 1348 l 311 1447 l 476 1447 l 673 1314 l 673 1215 l 509 1215 l 311 1348 m 615 1273 l 615 1282 l 459 1389 l 369 1389 l 369 1380 l 525 1273 l 615 1273 z "},"":{"ha":984,"x_min":58,"x_max":926,"o":"m 926 1157 l 926 0 l 372 0 q 147 80 236 0 q 58 289 58 161 l 58 399 q 82 374 62 395 q 114 339 103 353 q 116 337 116 339 l 116 289 q 190 120 116 182 q 372 58 263 58 l 868 58 l 868 1100 l 810 1100 l 810 347 q 746 166 810 216 q 550 116 681 116 l 434 116 q 247 158 305 116 q 174 340 174 226 q 156 381 174 359 q 116 422 137 404 q 76 468 94 441 q 58 521 58 495 l 58 1157 l 231 1157 l 231 470 q 174 531 185 516 l 174 1100 l 116 1100 l 116 521 q 174 446 116 505 q 231 347 231 388 q 281 204 231 240 q 434 174 324 174 l 550 174 q 708 210 664 174 q 752 347 752 246 l 752 1157 l 926 1157 m 673 1348 l 475 1215 l 311 1215 l 311 1314 l 508 1447 l 673 1447 l 673 1348 m 525 1389 l 356 1273 l 459 1273 l 628 1389 l 525 1389 z "},"":{"ha":984,"x_min":58,"x_max":926,"o":"m 926 1157 l 926 0 l 372 0 q 147 80 236 0 q 58 289 58 161 l 58 399 q 82 374 62 395 q 114 339 103 353 q 116 337 116 339 l 116 289 q 190 120 116 182 q 372 58 263 58 l 868 58 l 868 1100 l 810 1100 l 810 347 q 746 166 810 216 q 550 116 681 116 l 434 116 q 247 158 305 116 q 174 340 174 226 q 156 381 174 359 q 116 422 137 404 q 76 468 94 441 q 58 521 58 495 l 58 1157 l 231 1157 l 231 470 q 174 531 185 516 l 174 1100 l 116 1100 l 116 521 q 174 446 116 505 q 231 347 231 388 q 281 204 231 240 q 434 174 324 174 l 550 174 q 708 210 664 174 q 752 347 752 246 l 752 1157 l 926 1157 m 490 1367 l 626 1273 l 729 1273 l 493 1435 l 258 1273 l 357 1273 l 490 1367 m 490 1298 l 373 1215 l 210 1215 l 210 1314 l 492 1505 l 774 1314 l 774 1215 l 611 1215 l 490 1298 z "},"":{"ha":984,"x_min":58,"x_max":926,"o":"m 926 1157 l 926 0 l 372 0 q 147 80 236 0 q 58 289 58 161 l 58 399 q 82 374 62 395 q 114 339 103 353 q 116 337 116 339 l 116 289 q 190 120 116 182 q 372 58 263 58 l 868 58 l 868 1100 l 810 1100 l 810 347 q 746 166 810 216 q 550 116 681 116 l 434 116 q 247 158 305 116 q 174 340 174 226 q 156 381 174 359 q 116 422 137 404 q 76 468 94 441 q 58 521 58 495 l 58 1157 l 231 1157 l 231 470 q 174 531 185 516 l 174 1100 l 116 1100 l 116 521 q 174 446 116 505 q 231 347 231 388 q 281 204 231 240 q 434 174 324 174 l 550 174 q 708 210 664 174 q 752 347 752 246 l 752 1157 l 926 1157 m 723 1215 q 663 1241 689 1215 q 637 1302 637 1266 l 637 1389 l 810 1389 l 810 1302 q 784 1241 810 1263 q 723 1215 761 1215 m 723 1273 q 744 1282 736 1273 q 752 1302 752 1291 l 752 1331 l 694 1331 l 694 1302 q 703 1281 694 1289 q 723 1273 712 1273 m 260 1215 q 200 1241 226 1215 q 174 1302 174 1266 l 174 1389 l 347 1389 l 347 1302 q 321 1241 347 1263 q 260 1215 298 1215 m 260 1273 q 281 1282 273 1273 q 289 1302 289 1291 l 289 1331 l 231 1331 l 231 1302 q 240 1281 231 1289 q 260 1273 249 1273 z "},"":{"ha":984,"x_min":58,"x_max":926,"o":"m 521 347 q 463 422 521 363 q 405 521 405 482 l 405 547 l 58 1095 l 58 1157 l 223 1157 l 492 735 l 761 1157 l 926 1157 l 926 1095 l 579 547 l 579 469 q 551 498 576 472 q 521 531 527 524 l 521 564 l 861 1100 l 791 1100 l 492 625 l 192 1100 l 124 1100 l 463 566 l 463 521 q 492 477 463 505 q 550 414 521 448 q 579 347 579 379 l 579 0 l 405 0 l 405 399 q 433 370 408 395 q 463 337 457 346 l 463 58 l 521 58 l 521 347 m 673 1350 l 475 1215 l 311 1215 l 311 1315 l 508 1447 l 673 1447 l 673 1350 m 525 1389 l 356 1273 l 459 1273 l 628 1389 l 525 1389 z "},"":{"ha":984,"x_min":58,"x_max":926,"o":"m 868 754 q 796 922 868 861 q 608 984 725 984 l 174 984 l 174 1157 l 116 1157 l 116 521 q 145 478 116 506 q 203 414 174 450 q 231 347 231 379 l 231 0 l 58 0 l 58 398 l 84 372 q 116 339 111 344 l 116 58 l 174 58 l 174 347 q 116 422 174 363 q 58 521 58 482 l 58 1215 l 231 1215 l 231 1042 l 612 1042 q 838 963 749 1042 q 926 757 926 884 l 926 631 q 837 427 926 505 q 612 349 748 349 l 291 347 l 289 521 l 550 521 q 708 556 664 521 q 752 693 752 592 l 752 697 q 708 833 752 797 q 550 868 664 868 l 231 868 l 231 469 q 203 498 227 475 q 175 530 179 522 l 174 926 l 550 926 q 747 876 683 926 q 810 694 810 826 l 810 690 q 747 511 810 560 q 550 463 684 463 l 347 463 l 347 405 q 612 407 476 407 q 797 469 726 407 q 868 631 868 531 l 868 754 z "},"":{"ha":926,"x_min":58,"x_max":868,"o":"m 868 291 q 778 81 868 162 q 550 0 687 0 l 347 0 l 347 174 l 492 174 q 645 204 602 174 q 694 347 694 240 q 650 485 694 450 q 492 521 606 521 l 405 521 l 405 694 l 492 694 q 645 726 595 694 q 694 839 694 757 q 648 953 694 923 q 492 984 602 984 l 434 984 q 281 953 330 984 q 231 839 231 922 l 231 469 q 205 497 230 472 q 174 530 179 522 l 174 839 q 247 1000 174 946 q 434 1042 305 1042 l 492 1042 q 687 998 622 1042 q 752 839 752 953 q 686 683 751 729 q 492 637 621 637 l 463 637 l 463 579 l 492 579 q 688 529 624 579 q 752 347 752 479 q 688 166 752 216 q 492 116 624 116 l 405 116 l 405 58 l 550 58 q 736 122 663 58 q 810 288 810 185 l 810 405 q 738 573 810 503 l 700 609 l 738 645 q 810 810 810 715 l 810 868 q 734 1038 810 977 q 550 1100 657 1100 l 376 1100 q 190 1035 263 1100 q 116 868 116 971 l 116 521 q 174 446 116 503 q 231 347 231 388 l 231 -231 l 58 -231 l 58 399 l 84 373 q 116 337 116 341 l 116 -174 l 174 -174 l 174 347 q 116 422 174 365 q 58 521 58 480 l 58 868 q 150 1078 58 998 q 376 1157 242 1157 l 550 1157 q 775 1079 683 1157 q 868 868 868 1001 l 868 810 q 784 609 868 689 q 868 405 868 530 l 868 291 z "},"":{"ha":868,"x_min":58,"x_max":810,"o":"m 116 289 q 188 121 116 184 q 372 58 260 58 l 752 58 l 752 347 q 737 376 752 357 q 695 422 722 395 q 660 460 668 450 q 637 521 637 488 l 637 579 q 587 722 637 686 q 434 752 544 752 l 174 752 l 174 926 l 495 926 q 710 855 631 926 q 810 651 810 765 l 810 469 q 783 498 807 473 q 752 531 758 522 l 752 648 q 680 806 752 744 q 495 868 608 868 l 231 868 l 231 810 l 434 810 q 628 762 563 810 q 694 584 693 715 l 694 521 q 752 446 694 505 q 810 347 810 386 l 810 0 l 372 0 q 149 79 239 0 q 58 289 59 158 q 150 499 58 420 q 376 579 242 579 l 579 579 l 579 405 l 405 405 q 268 375 305 405 q 231 289 231 344 q 273 203 231 231 q 434 174 315 174 q 587 204 544 174 q 637 347 637 240 l 637 399 q 666 370 642 398 q 694 337 690 341 l 694 318 q 621 158 694 211 q 434 116 563 116 q 240 153 307 116 q 174 289 174 191 q 250 431 174 394 q 376 463 313 463 l 521 463 l 521 521 l 376 521 q 190 456 263 521 q 116 289 116 392 m 253 1117 l 253 1215 l 418 1215 l 615 1082 l 615 984 l 451 984 l 253 1117 m 557 1042 l 557 1050 l 401 1157 l 311 1157 l 311 1149 l 467 1042 l 557 1042 z "},"":{"ha":868,"x_min":58,"x_max":810,"o":"m 116 289 q 188 121 116 184 q 372 58 260 58 l 752 58 l 752 347 q 737 376 752 357 q 695 422 722 395 q 660 460 668 450 q 637 521 637 488 l 637 579 q 587 722 637 686 q 434 752 544 752 l 174 752 l 174 926 l 495 926 q 710 855 631 926 q 810 651 810 765 l 810 469 q 783 498 807 473 q 752 531 758 522 l 752 648 q 680 806 752 744 q 495 868 608 868 l 231 868 l 231 810 l 434 810 q 628 762 563 810 q 694 584 693 715 l 694 521 q 752 446 694 505 q 810 347 810 386 l 810 0 l 372 0 q 149 79 239 0 q 58 289 59 158 q 150 499 58 420 q 376 579 242 579 l 579 579 l 579 405 l 405 405 q 268 375 305 405 q 231 289 231 344 q 273 203 231 231 q 434 174 315 174 q 587 204 544 174 q 637 347 637 240 l 637 399 q 666 370 642 398 q 694 337 690 341 l 694 318 q 621 158 694 211 q 434 116 563 116 q 240 153 307 116 q 174 289 174 191 q 250 431 174 394 q 376 463 313 463 l 521 463 l 521 521 l 376 521 q 190 456 263 521 q 116 289 116 392 m 615 1117 l 417 984 l 253 984 l 253 1082 l 450 1215 l 615 1215 l 615 1117 m 467 1157 l 298 1042 l 401 1042 l 570 1157 l 467 1157 z "},"":{"ha":868,"x_min":58,"x_max":810,"o":"m 116 289 q 188 121 116 184 q 372 58 260 58 l 752 58 l 752 347 q 737 376 752 357 q 695 422 722 395 q 660 460 668 450 q 637 521 637 488 l 637 579 q 587 722 637 686 q 434 752 544 752 l 174 752 l 174 926 l 495 926 q 710 855 631 926 q 810 651 810 765 l 810 469 q 783 498 807 473 q 752 531 758 522 l 752 648 q 680 806 752 744 q 495 868 608 868 l 231 868 l 231 810 l 434 810 q 628 762 563 810 q 694 584 693 715 l 694 521 q 752 446 694 505 q 810 347 810 386 l 810 0 l 372 0 q 149 79 239 0 q 58 289 59 158 q 150 499 58 420 q 376 579 242 579 l 579 579 l 579 405 l 405 405 q 268 375 305 405 q 231 289 231 344 q 273 203 231 231 q 434 174 315 174 q 587 204 544 174 q 637 347 637 240 l 637 399 q 666 370 642 398 q 694 337 690 341 l 694 318 q 621 158 694 211 q 434 116 563 116 q 240 153 307 116 q 174 289 174 191 q 250 431 174 394 q 376 463 313 463 l 521 463 l 521 521 l 376 521 q 190 456 263 521 q 116 289 116 392 m 433 1136 l 569 1042 l 671 1042 l 435 1204 l 200 1042 l 299 1042 l 433 1136 m 433 1066 l 315 984 l 152 984 l 152 1082 l 434 1273 l 716 1082 l 716 984 l 553 984 l 433 1066 z "},"":{"ha":868,"x_min":58,"x_max":810,"o":"m 116 289 q 188 121 116 184 q 372 58 260 58 l 752 58 l 752 347 q 737 376 752 357 q 695 422 722 395 q 660 460 668 450 q 637 521 637 488 l 637 579 q 587 722 637 686 q 434 752 544 752 l 174 752 l 174 926 l 495 926 q 710 855 631 926 q 810 651 810 765 l 810 469 q 783 498 807 473 q 752 531 758 522 l 752 648 q 680 806 752 744 q 495 868 608 868 l 231 868 l 231 810 l 434 810 q 628 762 563 810 q 694 584 693 715 l 694 521 q 752 446 694 505 q 810 347 810 386 l 810 0 l 372 0 q 149 79 239 0 q 58 289 59 158 q 150 499 58 420 q 376 579 242 579 l 579 579 l 579 405 l 405 405 q 268 375 305 405 q 231 289 231 344 q 273 203 231 231 q 434 174 315 174 q 587 204 544 174 q 637 347 637 240 l 637 399 q 666 370 642 398 q 694 337 690 341 l 694 318 q 621 158 694 211 q 434 116 563 116 q 240 153 307 116 q 174 289 174 191 q 250 431 174 394 q 376 463 313 463 l 521 463 l 521 521 l 376 521 q 190 456 263 521 q 116 289 116 392 m 541 1016 q 420 1041 486 1016 q 328 1066 354 1066 q 208 1007 260 1066 l 188 984 l 65 1108 l 87 1128 q 328 1240 207 1240 q 451 1215 386 1240 q 541 1189 515 1189 q 660 1250 608 1189 l 680 1273 l 803 1147 l 783 1127 q 541 1016 671 1016 m 328 1124 q 428 1099 367 1124 q 541 1073 489 1073 q 720 1149 637 1073 l 680 1189 q 541 1131 613 1131 q 441 1157 501 1131 q 328 1182 380 1182 q 148 1108 231 1182 l 190 1066 q 328 1124 256 1124 z "},"":{"ha":868,"x_min":58,"x_max":810,"o":"m 116 289 q 188 121 116 184 q 372 58 260 58 l 752 58 l 752 347 q 737 376 752 357 q 695 422 722 395 q 660 460 668 450 q 637 521 637 488 l 637 579 q 587 722 637 686 q 434 752 544 752 l 174 752 l 174 926 l 495 926 q 710 855 631 926 q 810 651 810 765 l 810 469 q 783 498 807 473 q 752 531 758 522 l 752 648 q 680 806 752 744 q 495 868 608 868 l 231 868 l 231 810 l 434 810 q 628 762 563 810 q 694 584 693 715 l 694 521 q 752 446 694 505 q 810 347 810 386 l 810 0 l 372 0 q 149 79 239 0 q 58 289 59 158 q 150 499 58 420 q 376 579 242 579 l 579 579 l 579 405 l 405 405 q 268 375 305 405 q 231 289 231 344 q 273 203 231 231 q 434 174 315 174 q 587 204 544 174 q 637 347 637 240 l 637 399 q 666 370 642 398 q 694 337 690 341 l 694 318 q 621 158 694 211 q 434 116 563 116 q 240 153 307 116 q 174 289 174 191 q 250 431 174 394 q 376 463 313 463 l 521 463 l 521 521 l 376 521 q 190 456 263 521 q 116 289 116 392 m 666 984 q 605 1009 631 984 q 579 1071 579 1034 l 579 1157 l 752 1157 l 752 1071 q 726 1010 752 1032 q 666 984 703 984 m 666 1042 q 686 1050 679 1042 q 694 1071 694 1059 l 694 1100 l 637 1100 l 637 1071 q 645 1050 637 1058 q 666 1042 654 1042 m 203 984 q 142 1009 168 984 q 116 1071 116 1034 l 116 1157 l 289 1157 l 289 1071 q 263 1010 289 1032 q 203 984 240 984 m 203 1042 q 224 1050 216 1042 q 231 1071 231 1059 l 231 1100 l 174 1100 l 174 1071 q 182 1050 174 1058 q 203 1042 191 1042 z "},"":{"ha":868,"x_min":58,"x_max":810,"o":"m 434 1157 q 351 1123 383 1157 q 318 1042 318 1089 q 352 960 318 994 q 434 926 385 926 q 516 960 482 926 q 550 1042 550 994 q 516 1124 550 1091 q 434 1157 482 1157 m 116 289 q 188 121 116 184 q 372 58 260 58 l 752 58 l 752 347 q 737 376 752 357 q 695 422 722 395 q 660 460 668 450 q 637 521 637 488 l 637 579 q 587 722 637 686 q 434 752 544 752 l 174 752 l 174 926 l 305 926 q 260 1042 260 975 q 312 1165 260 1115 q 434 1215 363 1215 q 558 1164 508 1215 q 608 1042 608 1113 q 558 922 608 971 q 742 824 674 906 q 810 651 810 742 l 810 469 q 783 498 807 473 q 752 531 758 522 l 752 648 q 680 806 752 744 q 495 868 608 868 l 231 868 l 231 810 l 434 810 q 628 762 563 810 q 694 584 693 715 l 694 521 q 752 446 694 505 q 810 347 810 386 l 810 0 l 372 0 q 149 79 239 0 q 58 289 59 158 q 150 499 58 420 q 376 579 242 579 l 579 579 l 579 405 l 405 405 q 268 375 305 405 q 231 289 231 344 q 273 203 231 231 q 434 174 315 174 q 587 204 544 174 q 637 347 637 240 l 637 399 q 666 370 642 398 q 694 337 690 341 l 694 318 q 621 158 694 211 q 434 116 563 116 q 240 153 307 116 q 174 289 174 191 q 250 431 174 394 q 376 463 313 463 l 521 463 l 521 521 l 376 521 q 190 456 263 521 q 116 289 116 392 m 475 1001 q 466 992 475 1001 q 434 984 457 984 q 394 1001 411 984 q 376 1042 376 1019 q 394 1082 376 1065 q 434 1100 411 1100 q 475 1082 457 1100 q 492 1042 492 1065 q 475 1001 492 1019 z "},"":{"ha":1447,"x_min":58,"x_max":1389,"o":"m 1013 174 q 1160 200 1117 174 q 1211 289 1202 227 l 1389 289 q 1300 80 1389 161 q 1075 0 1211 0 l 373 0 q 148 80 237 0 q 58 289 58 161 q 150 499 58 420 q 376 579 242 579 l 579 579 l 579 405 l 405 405 q 310 394 347 405 q 256 364 272 383 q 236 328 240 344 q 231 289 231 313 q 237 247 231 263 q 260 211 242 230 q 323 183 279 192 q 434 174 366 174 q 592 209 548 174 q 637 347 637 245 l 637 399 q 664 372 639 395 q 694 339 689 349 l 694 318 q 622 158 694 213 q 434 116 563 116 q 240 153 307 116 q 174 289 174 191 q 195 377 174 340 q 250 431 216 414 q 315 456 284 448 q 376 463 346 463 l 521 463 l 521 521 l 376 521 q 188 456 260 521 q 116 289 116 391 q 191 119 117 179 q 373 58 265 58 l 1075 58 q 1238 106 1170 58 q 1325 231 1306 153 l 1254 231 q 1176 144 1230 172 q 1013 116 1123 116 q 855 141 911 116 q 771 227 799 166 q 752 318 752 269 l 752 347 q 694 422 752 363 q 637 521 637 482 l 637 579 q 592 717 637 681 q 434 752 548 752 q 256 694 285 752 l 64 694 q 103 791 85 760 q 159 855 120 823 q 376 926 247 926 l 492 926 q 712 855 641 926 l 723 843 q 955 926 806 926 l 1071 926 q 1299 846 1209 926 q 1389 637 1389 767 l 1389 405 l 868 405 l 868 579 l 1215 579 q 1171 717 1215 681 q 1013 752 1127 752 q 859 722 903 752 q 810 579 810 686 l 810 469 q 783 498 807 472 q 752 531 758 524 l 754 579 l 752 579 q 817 760 752 710 q 1013 810 881 810 q 1209 760 1146 810 q 1273 579 1273 710 l 1273 521 l 926 521 l 926 463 l 1331 463 l 1331 635 q 1259 804 1331 741 q 1071 868 1188 868 l 955 868 q 859 855 901 868 q 795 826 816 842 q 757 794 774 810 q 738 771 739 778 l 723 752 l 674 810 q 493 868 603 868 l 376 868 q 146 752 216 868 l 229 752 q 434 810 286 810 q 632 760 570 810 q 694 584 693 710 l 694 521 q 710 492 694 511 q 752 446 725 473 q 787 408 778 418 q 810 347 810 380 q 859 204 810 240 q 1013 174 903 174 z "},"":{"ha":868,"x_min":58,"x_max":810,"o":"m 116 291 q 192 120 116 182 q 376 58 268 58 l 405 58 l 405 -58 q 425 -67 417 -58 q 434 -87 434 -75 q 417 -111 434 -107 q 347 -116 401 -116 l 347 -174 l 405 -174 q 492 -87 492 -174 q 463 -29 492 -54 l 463 58 l 492 58 q 662 107 596 58 q 747 231 728 156 l 676 231 q 600 145 655 174 q 434 116 544 116 q 247 158 298 116 q 174 318 174 218 l 174 347 q 145 392 174 365 q 87 454 116 420 q 58 521 58 488 l 58 637 q 145 846 58 765 q 372 926 233 926 l 492 926 q 720 847 631 926 q 810 637 810 768 l 631 637 q 582 725 621 697 q 434 752 544 752 q 281 722 324 752 q 231 579 231 686 l 231 469 q 209 491 227 475 q 174 531 191 508 l 174 584 q 239 761 174 712 q 434 810 304 810 q 593 784 535 810 q 676 694 651 758 l 745 694 q 664 818 728 768 q 492 868 600 868 l 372 868 q 187 805 259 868 q 116 638 116 742 l 116 521 q 145 476 116 503 q 203 414 174 448 q 231 347 231 380 q 281 204 231 240 q 434 174 324 174 q 582 200 544 174 q 632 291 619 227 l 810 289 q 728 86 810 163 q 521 1 645 9 l 521 0 q 550 -87 550 -41 q 516 -188 550 -145 q 420 -231 483 -231 l 289 -231 l 289 -58 l 347 -58 l 347 1 q 144 85 230 9 q 58 289 58 161 l 58 399 l 84 373 q 116 337 113 341 l 116 291 z "},"":{"ha":868,"x_min":58,"x_max":810,"o":"m 58 637 q 145 846 58 767 q 376 926 233 926 l 492 926 q 720 846 631 926 q 810 637 810 767 l 810 405 l 289 405 l 289 579 l 637 579 q 587 722 637 686 q 433 752 544 752 q 276 716 320 752 q 231 579 231 680 l 231 469 q 209 491 227 475 q 174 531 191 508 l 174 584 q 239 761 174 712 q 433 810 304 810 q 630 760 566 810 q 694 579 694 710 l 694 521 l 347 521 l 347 463 l 752 463 l 752 635 q 681 804 752 741 q 492 868 609 868 l 376 868 q 187 806 259 868 q 116 637 116 744 l 116 521 q 174 446 116 505 q 231 347 231 386 q 276 209 231 245 q 433 174 320 174 q 582 200 540 174 q 632 289 624 227 l 810 289 q 720 80 810 161 q 495 0 631 0 l 376 0 q 154 75 250 0 q 58 260 58 149 l 58 399 q 88 366 75 382 q 105 344 100 350 q 114 339 110 339 q 116 337 116 339 l 116 291 q 192 120 116 182 q 376 58 268 58 l 495 58 q 659 106 592 58 q 747 231 726 153 l 676 231 q 592 141 648 166 q 433 116 535 116 q 247 158 294 116 q 174 347 174 226 q 159 375 174 357 q 118 421 145 394 q 81 460 91 448 q 58 521 58 488 l 58 637 m 253 1117 l 253 1215 l 418 1215 l 615 1082 l 615 984 l 451 984 l 253 1117 m 557 1042 l 557 1050 l 401 1157 l 311 1157 l 311 1149 l 467 1042 l 557 1042 z "},"":{"ha":868,"x_min":58,"x_max":810,"o":"m 58 637 q 145 846 58 767 q 376 926 233 926 l 492 926 q 720 846 631 926 q 810 637 810 767 l 810 405 l 289 405 l 289 579 l 637 579 q 587 722 637 686 q 433 752 544 752 q 276 716 320 752 q 231 579 231 680 l 231 469 q 209 491 227 475 q 174 531 191 508 l 174 584 q 239 761 174 712 q 433 810 304 810 q 630 760 566 810 q 694 579 694 710 l 694 521 l 347 521 l 347 463 l 752 463 l 752 635 q 681 804 752 741 q 492 868 609 868 l 376 868 q 187 806 259 868 q 116 637 116 744 l 116 521 q 174 446 116 505 q 231 347 231 386 q 276 209 231 245 q 433 174 320 174 q 582 200 540 174 q 632 289 624 227 l 810 289 q 720 80 810 161 q 495 0 631 0 l 376 0 q 154 75 250 0 q 58 260 58 149 l 58 399 q 88 366 75 382 q 105 344 100 350 q 114 339 110 339 q 116 337 116 339 l 116 291 q 192 120 116 182 q 376 58 268 58 l 495 58 q 659 106 592 58 q 747 231 726 153 l 676 231 q 592 141 648 166 q 433 116 535 116 q 247 158 294 116 q 174 347 174 226 q 159 375 174 357 q 118 421 145 394 q 81 460 91 448 q 58 521 58 488 l 58 637 m 615 1117 l 417 984 l 253 984 l 253 1082 l 450 1215 l 615 1215 l 615 1117 m 467 1157 l 298 1042 l 401 1042 l 570 1157 l 467 1157 z "},"":{"ha":868,"x_min":58,"x_max":810,"o":"m 58 637 q 145 846 58 767 q 376 926 233 926 l 492 926 q 720 846 631 926 q 810 637 810 767 l 810 405 l 289 405 l 289 579 l 637 579 q 587 722 637 686 q 433 752 544 752 q 276 716 320 752 q 231 579 231 680 l 231 469 q 209 491 227 475 q 174 531 191 508 l 174 584 q 239 761 174 712 q 433 810 304 810 q 630 760 566 810 q 694 579 694 710 l 694 521 l 347 521 l 347 463 l 752 463 l 752 635 q 681 804 752 741 q 492 868 609 868 l 376 868 q 187 806 259 868 q 116 637 116 744 l 116 521 q 174 446 116 505 q 231 347 231 386 q 276 209 231 245 q 433 174 320 174 q 582 200 540 174 q 632 289 624 227 l 810 289 q 720 80 810 161 q 495 0 631 0 l 376 0 q 154 75 250 0 q 58 260 58 149 l 58 399 q 88 366 75 382 q 105 344 100 350 q 114 339 110 339 q 116 337 116 339 l 116 291 q 192 120 116 182 q 376 58 268 58 l 495 58 q 659 106 592 58 q 747 231 726 153 l 676 231 q 592 141 648 166 q 433 116 535 116 q 247 158 294 116 q 174 347 174 226 q 159 375 174 357 q 118 421 145 394 q 81 460 91 448 q 58 521 58 488 l 58 637 m 433 1136 l 569 1042 l 671 1042 l 435 1204 l 200 1042 l 299 1042 l 433 1136 m 433 1066 l 315 984 l 152 984 l 152 1082 l 434 1273 l 716 1082 l 716 984 l 553 984 l 433 1066 z "},"":{"ha":868,"x_min":58,"x_max":810,"o":"m 58 637 q 145 846 58 767 q 376 926 233 926 l 492 926 q 720 846 631 926 q 810 637 810 767 l 810 405 l 289 405 l 289 579 l 637 579 q 587 722 637 686 q 433 752 544 752 q 276 716 320 752 q 231 579 231 680 l 231 469 q 209 491 227 475 q 174 531 191 508 l 174 584 q 239 761 174 712 q 433 810 304 810 q 630 760 566 810 q 694 579 694 710 l 694 521 l 347 521 l 347 463 l 752 463 l 752 635 q 681 804 752 741 q 492 868 609 868 l 376 868 q 187 806 259 868 q 116 637 116 744 l 116 521 q 174 446 116 505 q 231 347 231 386 q 276 209 231 245 q 433 174 320 174 q 582 200 540 174 q 632 289 624 227 l 810 289 q 720 80 810 161 q 495 0 631 0 l 376 0 q 154 75 250 0 q 58 260 58 149 l 58 399 q 88 366 75 382 q 105 344 100 350 q 114 339 110 339 q 116 337 116 339 l 116 291 q 192 120 116 182 q 376 58 268 58 l 495 58 q 659 106 592 58 q 747 231 726 153 l 676 231 q 592 141 648 166 q 433 116 535 116 q 247 158 294 116 q 174 347 174 226 q 159 375 174 357 q 118 421 145 394 q 81 460 91 448 q 58 521 58 488 l 58 637 m 666 984 q 605 1009 631 984 q 579 1071 579 1034 l 579 1157 l 752 1157 l 752 1071 q 726 1010 752 1032 q 666 984 703 984 m 666 1042 q 686 1050 679 1042 q 694 1071 694 1059 l 694 1100 l 637 1100 l 637 1071 q 645 1050 637 1058 q 666 1042 654 1042 m 203 984 q 142 1009 168 984 q 116 1071 116 1034 l 116 1157 l 289 1157 l 289 1071 q 263 1010 289 1032 q 203 984 240 984 m 203 1042 q 224 1050 216 1042 q 231 1071 231 1059 l 231 1100 l 174 1100 l 174 1071 q 182 1050 174 1058 q 203 1042 191 1042 z "},"":{"ha":289,"x_min":-58,"x_max":304,"o":"m 174 347 q 145 391 174 362 q 87 455 116 420 q 58 521 58 490 l 58 926 l 231 926 l 231 470 q 205 495 218 483 l 174 530 l 174 868 l 116 868 l 116 521 q 145 477 116 505 q 203 413 174 448 q 231 347 231 378 l 231 0 l 58 0 l 58 399 q 82 374 62 395 q 114 339 103 353 q 116 337 116 339 l 116 58 l 174 58 l 174 347 m -58 1117 l -58 1215 l 107 1215 l 304 1082 l 304 984 l 140 984 l -58 1117 m 246 1042 l 246 1050 l 90 1157 l 0 1157 l 0 1149 l 156 1042 l 246 1042 z "},"":{"ha":289,"x_min":-14,"x_max":347,"o":"m 174 347 q 145 391 174 362 q 87 455 116 420 q 58 521 58 490 l 58 926 l 231 926 l 231 470 q 205 495 218 483 l 174 530 l 174 868 l 116 868 l 116 521 q 145 477 116 505 q 203 413 174 448 q 231 347 231 378 l 231 0 l 58 0 l 58 399 q 82 374 62 395 q 114 339 103 353 q 116 337 116 339 l 116 58 l 174 58 l 174 347 m 347 1117 l 149 984 l -14 984 l -14 1082 l 182 1215 l 347 1215 l 347 1117 m 200 1157 l 30 1042 l 133 1042 l 302 1157 l 200 1157 z "},"":{"ha":405,"x_min":-80,"x_max":485,"o":"m 231 347 q 174 422 231 363 q 116 521 116 482 l 116 926 l 289 926 l 289 470 q 263 495 276 483 l 231 530 l 231 868 l 174 868 l 174 521 q 203 477 174 505 q 260 414 231 448 q 289 347 289 379 l 289 0 l 116 0 l 116 399 q 140 374 120 395 q 172 339 161 353 q 174 337 174 339 l 174 58 l 231 58 l 231 347 m 201 1136 l 337 1042 l 440 1042 l 204 1204 l -32 1042 l 68 1042 l 201 1136 m 201 1066 l 84 984 l -80 984 l -80 1082 l 203 1273 l 485 1082 l 485 984 l 321 984 l 201 1066 z "},"":{"ha":289,"x_min":-116,"x_max":405,"o":"m 174 347 q 145 391 174 362 q 87 455 116 420 q 58 521 58 490 l 58 926 l 231 926 l 231 469 q 174 530 223 480 l 174 868 l 116 868 l 116 521 q 145 477 116 505 q 203 413 174 448 q 231 347 231 378 l 231 0 l 58 0 l 58 399 q 82 374 62 395 q 114 339 103 353 q 116 337 116 339 l 116 58 l 174 58 l 174 347 m 318 984 q 258 1009 284 984 q 231 1071 231 1034 l 231 1157 l 405 1157 l 405 1071 q 379 1010 405 1032 q 318 984 356 984 m 318 1042 q 339 1050 331 1042 q 347 1071 347 1059 l 347 1100 l 289 1100 l 289 1071 q 298 1050 289 1058 q 318 1042 307 1042 m -29 984 q -90 1009 -64 984 q -116 1071 -116 1034 l -116 1157 l 58 1157 l 58 1071 q 32 1010 58 1032 q -29 984 9 984 m -29 1042 q -8 1050 -16 1042 q 0 1071 0 1059 l 0 1100 l -58 1100 l -58 1071 q -49 1050 -58 1058 q -29 1042 -41 1042 z "},"":{"ha":868,"x_min":58,"x_max":810,"o":"m 58 642 q 145 846 58 765 q 376 926 233 926 l 492 926 q 557 922 527 926 l 544 943 l 587 985 q 648 875 625 932 q 671 812 671 819 q 492 868 593 868 l 376 868 q 187 806 259 868 q 116 637 116 744 l 116 521 q 174 446 116 503 q 231 347 231 388 q 281 204 231 240 q 434 174 324 174 q 587 204 544 174 q 637 347 637 240 l 637 579 q 587 722 637 686 q 434 752 544 752 q 281 722 324 752 q 231 579 231 686 l 231 469 q 205 497 230 472 q 174 530 179 522 l 174 584 q 239 761 174 712 q 434 810 304 810 q 630 760 566 810 q 694 579 694 710 l 694 347 q 630 166 694 216 q 434 116 566 116 q 243 161 313 116 q 174 318 174 205 l 174 347 q 116 422 174 365 q 58 521 58 480 l 58 642 m 496 58 q 679 120 605 58 q 752 289 752 182 l 752 666 q 632 1032 752 859 l 687 1095 l 644 1134 l 590 1076 q 469 1140 541 1115 l 447 1087 q 545 1030 508 1066 l 472 951 l 428 988 l 456 1019 q 401 1043 430 1033 l 373 1053 l 435 1215 l 462 1205 q 577 1150 521 1182 l 638 1215 l 768 1101 l 703 1027 q 784 828 758 935 q 810 637 810 722 l 810 260 q 710 72 810 155 q 496 0 622 0 l 376 0 q 154 75 250 0 q 58 260 58 149 l 58 399 q 88 367 68 395 q 114 339 109 339 q 116 337 116 339 l 116 291 q 192 120 116 182 q 376 58 268 58 l 496 58 z "},"":{"ha":868,"x_min":58,"x_max":810,"o":"m 174 349 q 116 424 174 366 q 58 522 58 482 l 58 926 l 492 926 q 717 848 625 926 q 810 637 809 770 l 810 0 l 637 0 l 637 579 q 587 722 637 686 q 433 752 544 752 q 276 716 320 752 q 231 579 231 680 l 231 470 q 204 499 229 475 q 174 532 179 524 l 174 584 q 240 762 175 715 q 434 810 305 810 q 630 760 566 810 q 694 579 694 710 l 694 58 l 752 58 l 752 635 q 676 806 752 744 q 492 868 600 868 l 116 868 l 116 522 q 174 447 116 505 q 231 349 231 389 l 231 0 l 58 0 l 58 399 l 84 373 q 116 337 113 341 l 116 58 l 174 58 l 174 349 m 541 1016 q 420 1041 486 1016 q 328 1066 354 1066 q 208 1007 260 1066 l 188 984 l 65 1108 l 87 1128 q 328 1240 207 1240 q 451 1215 386 1240 q 541 1189 515 1189 q 660 1250 605 1189 l 680 1273 l 803 1147 l 783 1127 q 541 1016 671 1016 m 328 1124 q 428 1099 367 1124 q 541 1073 489 1073 q 720 1149 637 1073 l 680 1189 q 541 1131 613 1131 q 441 1157 501 1131 q 328 1182 380 1182 q 148 1108 231 1182 l 190 1066 q 328 1124 256 1124 z "},"":{"ha":868,"x_min":58,"x_max":810,"o":"m 58 642 q 148 847 59 768 q 376 926 236 926 l 492 926 q 720 846 631 926 q 810 637 810 767 l 810 260 q 713 73 800 146 q 496 0 625 0 l 376 0 q 157 73 246 0 q 58 260 68 146 l 58 399 l 84 373 q 114 339 107 350 q 116 337 116 339 l 116 291 q 192 120 116 182 q 376 58 268 58 l 496 58 q 679 120 605 58 q 752 289 752 182 l 752 635 q 681 804 752 741 q 492 868 609 868 l 376 868 q 187 806 259 868 q 116 637 116 744 l 116 521 q 174 446 116 503 q 231 347 231 388 q 281 204 231 240 q 434 174 324 174 q 587 204 544 174 q 637 347 637 240 l 637 579 q 587 722 637 686 q 434 752 544 752 q 281 722 324 752 q 231 579 231 686 l 231 469 q 205 497 230 472 q 174 530 179 522 l 174 584 q 240 762 175 715 q 434 810 305 810 q 630 760 566 810 q 694 579 694 710 l 694 347 q 630 166 694 216 q 434 116 566 116 q 242 161 305 116 q 174 318 179 207 l 174 347 q 116 422 174 365 q 58 521 58 480 l 58 642 m 253 1117 l 253 1215 l 418 1215 l 615 1082 l 615 984 l 451 984 l 253 1117 m 557 1042 l 557 1050 l 401 1157 l 311 1157 l 311 1149 l 467 1042 l 557 1042 z "},"":{"ha":868,"x_min":58,"x_max":810,"o":"m 58 642 q 148 847 59 768 q 376 926 236 926 l 492 926 q 720 846 631 926 q 810 637 810 767 l 810 260 q 713 73 800 146 q 496 0 625 0 l 376 0 q 157 73 246 0 q 58 260 68 146 l 58 399 l 84 373 q 114 339 107 350 q 116 337 116 339 l 116 291 q 192 120 116 182 q 376 58 268 58 l 496 58 q 679 120 605 58 q 752 289 752 182 l 752 635 q 681 804 752 741 q 492 868 609 868 l 376 868 q 187 806 259 868 q 116 637 116 744 l 116 521 q 174 446 116 503 q 231 347 231 388 q 281 204 231 240 q 434 174 324 174 q 587 204 544 174 q 637 347 637 240 l 637 579 q 587 722 637 686 q 434 752 544 752 q 281 722 324 752 q 231 579 231 686 l 231 469 q 205 497 230 472 q 174 530 179 522 l 174 584 q 240 762 175 715 q 434 810 305 810 q 630 760 566 810 q 694 579 694 710 l 694 347 q 630 166 694 216 q 434 116 566 116 q 242 161 305 116 q 174 318 179 207 l 174 347 q 116 422 174 365 q 58 521 58 480 l 58 642 m 615 1117 l 417 984 l 253 984 l 253 1082 l 450 1215 l 615 1215 l 615 1117 m 467 1157 l 298 1042 l 401 1042 l 570 1157 l 467 1157 z "},"":{"ha":868,"x_min":58,"x_max":810,"o":"m 58 642 q 148 847 59 768 q 376 926 236 926 l 492 926 q 720 846 631 926 q 810 637 810 767 l 810 260 q 713 73 800 146 q 496 0 625 0 l 376 0 q 157 73 246 0 q 58 260 68 146 l 58 399 l 84 373 q 114 339 107 350 q 116 337 116 339 l 116 291 q 192 120 116 182 q 376 58 268 58 l 496 58 q 679 120 605 58 q 752 289 752 182 l 752 635 q 681 804 752 741 q 492 868 609 868 l 376 868 q 187 806 259 868 q 116 637 116 744 l 116 521 q 174 446 116 503 q 231 347 231 388 q 281 204 231 240 q 434 174 324 174 q 587 204 544 174 q 637 347 637 240 l 637 579 q 587 722 637 686 q 434 752 544 752 q 281 722 324 752 q 231 579 231 686 l 231 469 q 205 497 230 472 q 174 530 179 522 l 174 584 q 240 762 175 715 q 434 810 305 810 q 630 760 566 810 q 694 579 694 710 l 694 347 q 630 166 694 216 q 434 116 566 116 q 242 161 305 116 q 174 318 179 207 l 174 347 q 116 422 174 365 q 58 521 58 480 l 58 642 m 433 1136 l 569 1042 l 671 1042 l 435 1204 l 200 1042 l 299 1042 l 433 1136 m 433 1066 l 315 984 l 152 984 l 152 1082 l 434 1273 l 716 1082 l 716 984 l 553 984 l 433 1066 z "},"":{"ha":868,"x_min":58,"x_max":810,"o":"m 58 642 q 148 847 59 768 q 376 926 236 926 l 492 926 q 720 846 631 926 q 810 637 810 767 l 810 260 q 713 73 800 146 q 496 0 625 0 l 376 0 q 157 73 246 0 q 58 260 68 146 l 58 399 l 84 373 q 114 339 107 350 q 116 337 116 339 l 116 291 q 192 120 116 182 q 376 58 268 58 l 496 58 q 679 120 605 58 q 752 289 752 182 l 752 635 q 681 804 752 741 q 492 868 609 868 l 376 868 q 187 806 259 868 q 116 637 116 744 l 116 521 q 174 446 116 503 q 231 347 231 388 q 281 204 231 240 q 434 174 324 174 q 587 204 544 174 q 637 347 637 240 l 637 579 q 587 722 637 686 q 434 752 544 752 q 281 722 324 752 q 231 579 231 686 l 231 469 q 205 497 230 472 q 174 530 179 522 l 174 584 q 240 762 175 715 q 434 810 305 810 q 630 760 566 810 q 694 579 694 710 l 694 347 q 630 166 694 216 q 434 116 566 116 q 242 161 305 116 q 174 318 179 207 l 174 347 q 116 422 174 365 q 58 521 58 480 l 58 642 m 541 1016 q 420 1041 486 1016 q 328 1066 354 1066 q 208 1007 260 1066 l 188 984 l 65 1108 l 87 1128 q 328 1240 207 1240 q 451 1215 386 1240 q 541 1189 515 1189 q 660 1250 608 1189 l 680 1273 l 803 1147 l 783 1127 q 541 1016 671 1016 m 328 1124 q 428 1099 367 1124 q 541 1073 489 1073 q 720 1149 637 1073 l 680 1189 q 541 1131 613 1131 q 441 1157 501 1131 q 328 1182 380 1182 q 148 1108 231 1182 l 190 1066 q 328 1124 256 1124 z "},"":{"ha":868,"x_min":58,"x_max":810,"o":"m 58 642 q 148 847 59 768 q 376 926 236 926 l 492 926 q 720 846 631 926 q 810 637 810 767 l 810 260 q 713 73 800 146 q 496 0 625 0 l 376 0 q 157 73 246 0 q 58 260 68 146 l 58 399 l 84 373 q 114 339 107 350 q 116 337 116 339 l 116 291 q 192 120 116 182 q 376 58 268 58 l 496 58 q 679 120 605 58 q 752 289 752 182 l 752 635 q 681 804 752 741 q 492 868 609 868 l 376 868 q 187 806 259 868 q 116 637 116 744 l 116 521 q 174 446 116 503 q 231 347 231 388 q 281 204 231 240 q 434 174 324 174 q 587 204 544 174 q 637 347 637 240 l 637 579 q 587 722 637 686 q 434 752 544 752 q 281 722 324 752 q 231 579 231 686 l 231 469 q 205 497 230 472 q 174 530 179 522 l 174 584 q 240 762 175 715 q 434 810 305 810 q 630 760 566 810 q 694 579 694 710 l 694 347 q 630 166 694 216 q 434 116 566 116 q 242 161 305 116 q 174 318 179 207 l 174 347 q 116 422 174 365 q 58 521 58 480 l 58 642 m 666 984 q 605 1009 631 984 q 579 1071 579 1034 l 579 1157 l 752 1157 l 752 1071 q 726 1010 752 1032 q 666 984 703 984 m 666 1042 q 686 1050 679 1042 q 694 1071 694 1059 l 694 1100 l 637 1100 l 637 1071 q 645 1050 637 1058 q 666 1042 654 1042 m 203 984 q 142 1009 168 984 q 116 1071 116 1034 l 116 1157 l 289 1157 l 289 1071 q 263 1010 289 1032 q 203 984 240 984 m 203 1042 q 224 1050 216 1042 q 231 1071 231 1059 l 231 1100 l 174 1100 l 174 1071 q 182 1050 174 1058 q 203 1042 191 1042 z "},"":{"ha":868,"x_min":58,"x_max":810,"o":"m 434 174 q 373 199 399 174 q 347 260 347 224 l 347 347 l 521 347 l 521 260 q 495 200 521 221 q 434 174 472 174 m 434 231 q 455 240 447 231 q 463 260 463 249 l 463 289 l 405 289 l 405 260 q 414 239 405 247 q 434 231 422 231 m 434 868 q 373 893 399 868 q 347 955 347 919 l 347 1042 l 521 1042 l 521 955 q 495 894 521 916 q 434 868 472 868 m 434 926 q 455 935 447 926 q 463 955 463 943 l 463 984 l 405 984 l 405 955 q 414 934 405 942 q 434 926 422 926 m 752 637 l 116 637 l 116 579 l 752 579 l 752 637 m 810 694 l 810 521 l 58 521 l 58 694 l 810 694 z "},"":{"ha":868,"x_min":26,"x_max":810,"o":"m 626 663 l 356 178 q 434 174 391 174 q 587 204 544 174 q 637 347 637 240 l 637 579 q 626 663 637 631 m 694 347 q 630 166 694 216 q 434 116 566 116 q 271 143 334 116 l 619 770 q 694 579 694 713 l 694 347 m 810 260 q 716 76 810 152 q 496 0 622 0 l 376 0 q 265 16 320 0 l 224 -58 l 26 -58 l 120 111 q 58 260 58 182 l 58 399 l 84 373 q 114 339 107 350 q 116 337 116 339 l 116 291 q 191 120 116 178 l 124 0 l 191 0 l 240 88 q 376 58 301 58 l 496 58 q 679 120 605 58 q 752 289 752 182 l 752 635 q 651 826 752 764 l 706 926 l 641 926 l 599 851 q 492 868 544 868 l 376 868 q 187 806 259 868 q 116 637 116 744 l 116 521 q 145 476 116 503 q 203 414 174 448 q 231 347 231 380 q 233 314 231 324 l 476 751 q 434 752 463 752 q 281 722 324 752 q 231 579 231 686 l 231 469 q 211 490 229 473 q 174 530 192 508 l 174 584 q 239 761 174 712 q 434 810 304 810 q 567 794 506 810 l 224 179 q 174 318 174 239 l 174 347 q 145 392 174 365 q 87 454 116 420 q 58 521 58 488 l 58 642 q 147 847 58 768 q 376 926 236 926 l 492 926 q 570 919 530 926 l 606 984 l 804 984 l 725 841 q 810 637 810 760 l 810 260 z "},"":{"ha":868,"x_min":58,"x_max":810,"o":"m 174 347 q 116 422 174 365 q 58 521 58 480 l 58 926 l 231 926 l 231 469 q 204 498 229 473 q 174 531 179 522 l 174 868 l 116 868 l 116 521 q 174 446 116 503 q 231 347 231 388 q 281 204 231 240 q 434 174 324 174 q 586 204 543 174 q 637 347 637 242 l 637 926 l 810 926 l 809 0 l 635 0 l 635 29 q 499 0 566 0 l 372 0 q 148 80 237 0 q 58 289 58 159 l 58 399 l 84 373 q 116 337 113 341 l 116 289 q 190 120 116 182 q 372 58 263 58 l 499 58 q 671 116 600 58 l 693 116 l 693 58 l 751 58 l 752 868 l 694 868 l 694 339 q 626 163 693 211 q 434 116 560 116 q 236 168 298 116 q 174 347 174 220 m 253 1117 l 253 1215 l 418 1215 l 615 1082 l 615 984 l 451 984 l 253 1117 m 557 1042 l 557 1050 l 401 1157 l 311 1157 l 311 1149 l 467 1042 l 557 1042 z "},"":{"ha":868,"x_min":58,"x_max":810,"o":"m 116 521 q 174 446 116 503 q 231 347 231 388 q 281 204 231 240 q 434 174 324 174 q 586 204 543 174 q 637 347 637 242 l 637 926 l 810 926 l 810 0 l 372 0 q 148 80 237 0 q 58 289 58 159 l 58 399 l 84 373 q 116 337 113 341 l 116 289 q 190 120 116 182 q 372 58 263 58 l 752 58 l 752 868 l 694 868 l 694 339 q 626 163 693 211 q 434 116 560 116 q 236 168 298 116 q 174 347 174 220 q 116 422 174 365 q 58 521 58 480 l 58 926 l 231 926 l 231 469 q 204 498 229 473 q 174 531 179 522 l 174 868 l 116 868 l 116 521 m 615 1117 l 417 984 l 253 984 l 253 1082 l 450 1215 l 615 1215 l 615 1117 m 467 1157 l 298 1042 l 401 1042 l 570 1157 l 467 1157 z "},"":{"ha":868,"x_min":58,"x_max":810,"o":"m 116 521 q 174 446 116 503 q 231 347 231 388 q 281 204 231 240 q 434 174 324 174 q 586 204 543 174 q 637 347 637 242 l 637 926 l 810 926 l 810 0 l 372 0 q 148 80 237 0 q 58 289 58 159 l 58 399 l 84 373 q 116 337 113 341 l 116 289 q 190 120 116 182 q 372 58 263 58 l 752 58 l 752 868 l 694 868 l 694 339 q 626 163 693 211 q 434 116 560 116 q 236 168 298 116 q 174 347 174 220 q 116 422 174 365 q 58 521 58 480 l 58 926 l 231 926 l 231 469 q 204 498 229 473 q 174 531 179 522 l 174 868 l 116 868 l 116 521 m 433 1136 l 569 1042 l 671 1042 l 435 1204 l 200 1042 l 299 1042 l 433 1136 m 433 1066 l 315 984 l 152 984 l 152 1082 l 434 1273 l 716 1082 l 716 984 l 553 984 l 433 1066 z "},"":{"ha":868,"x_min":58,"x_max":810,"o":"m 116 521 q 174 446 116 503 q 231 347 231 388 q 281 204 231 240 q 434 174 324 174 q 586 204 543 174 q 637 347 637 242 l 637 926 l 810 926 l 810 0 l 372 0 q 148 80 237 0 q 58 289 58 159 l 58 399 l 84 373 q 116 337 113 341 l 116 289 q 190 120 116 182 q 372 58 263 58 l 752 58 l 752 868 l 694 868 l 694 339 q 626 163 693 211 q 434 116 560 116 q 236 168 298 116 q 174 347 174 220 q 116 422 174 365 q 58 521 58 480 l 58 926 l 231 926 l 231 469 q 204 498 229 473 q 174 531 179 522 l 174 868 l 116 868 l 116 521 m 666 984 q 605 1009 631 984 q 579 1071 579 1034 l 579 1157 l 752 1157 l 752 1071 q 726 1010 752 1032 q 666 984 703 984 m 666 1042 q 686 1050 679 1042 q 694 1071 694 1059 l 694 1100 l 637 1100 l 637 1071 q 645 1050 637 1058 q 666 1042 654 1042 m 203 984 q 142 1009 168 984 q 116 1071 116 1034 l 116 1157 l 289 1157 l 289 1071 q 263 1010 289 1032 q 203 984 240 984 m 203 1042 q 224 1050 216 1042 q 231 1071 231 1059 l 231 1100 l 174 1100 l 174 1071 q 182 1050 174 1058 q 203 1042 191 1042 z "},"":{"ha":868,"x_min":58,"x_max":810,"o":"m 434 174 q 591 209 545 174 q 637 347 637 245 l 637 926 l 810 926 l 810 58 q 718 -152 810 -72 q 492 -231 626 -231 l 174 -231 l 174 -58 l 448 -58 q 599 0 563 -58 l 376 0 q 159 72 245 0 q 58 260 58 156 l 58 399 q 116 337 98 359 l 116 289 q 184 127 116 195 q 376 58 252 58 l 676 58 q 606 -75 661 -33 q 448 -116 551 -116 l 231 -116 l 231 -174 l 492 -174 q 679 -109 605 -174 q 752 59 752 -45 l 752 868 l 694 868 l 694 347 q 630 166 694 216 q 433 116 566 116 q 242 161 311 116 q 174 318 174 205 l 174 347 q 145 390 174 362 q 87 454 116 418 q 58 521 58 489 l 58 927 l 231 927 l 231 469 q 207 493 227 473 q 172 531 187 512 l 172 868 l 114 868 l 116 521 q 143 477 116 505 q 200 415 171 450 q 231 347 229 380 q 281 204 236 246 q 434 174 313 174 m 615 1118 l 417 985 l 253 985 l 253 1084 l 450 1217 l 615 1217 l 615 1118 m 467 1159 l 298 1043 l 401 1043 l 570 1159 l 467 1159 z "},"":{"ha":868,"x_min":58,"x_max":810,"o":"m 752 635 q 676 806 752 744 q 492 868 600 868 l 174 868 l 174 1100 l 116 1100 l 116 521 q 145 476 116 503 q 203 414 174 448 q 231 347 231 380 l 231 -231 l 58 -231 l 58 399 l 84 373 q 116 337 104 353 l 116 -174 l 174 -174 l 174 347 q 145 392 174 365 q 87 454 116 420 q 58 521 58 488 l 58 1157 l 231 1157 l 231 926 l 492 926 q 720 845 629 926 q 810 635 810 764 l 810 285 q 710 71 810 158 q 496 0 631 0 l 289 0 l 289 174 l 463 174 q 598 214 560 174 q 637 346 637 255 l 637 577 q 592 716 637 680 q 434 752 547 752 l 231 752 l 231 469 q 209 491 227 475 q 174 531 191 508 l 174 810 l 434 810 q 630 760 566 810 q 694 577 694 710 l 694 347 q 638 171 694 227 q 463 116 582 116 l 347 116 l 347 58 l 492 58 q 681 120 609 58 q 752 289 752 182 l 752 635 z "},"":{"ha":868,"x_min":58,"x_max":810,"o":"m 434 174 q 591 209 545 174 q 637 347 637 245 l 637 926 l 810 926 l 810 58 q 718 -152 810 -72 q 492 -231 626 -231 l 174 -231 l 174 -58 l 448 -58 q 599 0 563 -58 l 376 0 q 159 72 245 0 q 58 260 58 156 l 58 399 q 116 337 98 359 l 116 289 q 184 127 116 195 q 376 58 252 58 l 676 58 q 606 -75 661 -33 q 448 -116 551 -116 l 231 -116 l 231 -174 l 492 -174 q 679 -109 605 -174 q 752 59 752 -45 l 752 868 l 694 868 l 694 347 q 630 166 694 216 q 433 116 566 116 q 242 161 311 116 q 174 318 174 205 l 174 347 q 145 390 174 362 q 87 454 116 418 q 58 521 58 489 l 58 927 l 231 927 l 231 469 q 207 493 227 473 q 172 531 187 512 l 172 868 l 114 868 l 116 521 q 143 477 116 505 q 200 415 171 450 q 231 347 229 380 q 281 204 236 246 q 434 174 313 174 m 666 985 q 605 1011 631 985 q 579 1072 579 1036 l 579 1159 l 752 1159 l 752 1072 q 726 1011 752 1033 q 666 985 703 985 m 666 1043 q 686 1052 679 1043 q 694 1072 694 1060 l 694 1101 l 637 1101 l 637 1072 q 645 1051 637 1059 q 666 1043 654 1043 m 203 985 q 142 1011 168 985 q 116 1072 116 1036 l 116 1159 l 289 1159 l 289 1072 q 263 1011 289 1033 q 203 985 240 985 m 203 1043 q 224 1052 216 1043 q 231 1072 231 1060 l 231 1101 l 174 1101 l 174 1072 q 182 1051 174 1059 q 203 1043 191 1043 z "},"":{"ha":984,"x_min":58,"x_max":926,"o":"m 174 347 q 116 422 174 363 q 58 521 58 482 l 58 872 q 158 1087 58 1008 q 372 1157 243 1157 l 611 1157 q 837 1075 748 1155 q 926 867 926 995 l 926 0 l 752 0 l 752 579 l 289 579 l 289 752 l 752 752 l 752 810 q 703 953 752 917 q 550 984 660 984 l 434 984 q 276 948 320 984 q 231 813 231 913 l 231 469 q 211 490 229 473 q 174 531 192 508 l 174 816 q 240 994 175 946 q 434 1042 305 1042 l 550 1042 q 746 992 681 1042 q 810 813 810 943 l 810 694 l 347 694 l 347 637 l 810 637 l 810 58 l 868 58 l 868 870 q 794 1037 867 974 q 608 1100 720 1100 l 372 1100 q 187 1037 259 1100 q 116 872 116 975 l 116 521 q 145 477 116 505 q 203 414 174 448 q 231 347 231 379 l 231 0 l 58 0 l 58 398 l 84 372 q 114 339 106 350 l 116 337 l 116 58 l 174 58 l 174 347 m 810 1331 l 174 1331 l 174 1273 l 810 1273 l 810 1331 m 868 1389 l 868 1215 l 116 1215 l 116 1389 l 868 1389 z "},"":{"ha":868,"x_min":58,"x_max":810,"o":"m 116 289 q 188 121 116 184 q 372 58 260 58 l 752 58 l 752 347 q 737 376 752 357 q 695 422 722 395 q 660 460 668 450 q 637 521 637 488 l 637 579 q 587 722 637 686 q 434 752 544 752 l 174 752 l 174 926 l 495 926 q 710 855 631 926 q 810 651 810 765 l 810 469 q 783 498 807 473 q 752 531 758 522 l 752 648 q 680 806 752 744 q 495 868 608 868 l 231 868 l 231 810 l 434 810 q 628 762 563 810 q 694 584 693 715 l 694 521 q 752 446 694 505 q 810 347 810 386 l 810 0 l 372 0 q 149 79 239 0 q 58 289 59 158 q 150 499 58 420 q 376 579 242 579 l 579 579 l 579 405 l 405 405 q 268 375 305 405 q 231 289 231 344 q 273 203 231 231 q 434 174 315 174 q 587 204 544 174 q 637 347 637 240 l 637 399 q 666 370 642 398 q 694 337 690 341 l 694 318 q 621 158 694 211 q 434 116 563 116 q 240 153 307 116 q 174 289 174 191 q 250 431 174 394 q 376 463 313 463 l 521 463 l 521 521 l 376 521 q 190 456 263 521 q 116 289 116 392 m 761 1100 l 223 1100 l 223 1042 l 761 1042 l 761 1100 m 810 1157 l 810 984 l 174 984 l 174 1157 l 810 1157 z "},"":{"ha":984,"x_min":58,"x_max":926,"o":"m 174 347 q 116 422 174 363 q 58 521 58 482 l 58 872 q 158 1087 58 1008 q 372 1157 243 1157 l 611 1157 q 837 1075 748 1155 q 926 867 926 995 l 926 0 l 752 0 l 752 579 l 289 579 l 289 752 l 752 752 l 752 810 q 703 953 752 917 q 550 984 660 984 l 434 984 q 276 948 320 984 q 231 813 231 913 l 231 469 q 211 490 229 473 q 174 531 192 508 l 174 816 q 240 994 175 946 q 434 1042 305 1042 l 550 1042 q 746 992 681 1042 q 810 813 810 943 l 810 694 l 347 694 l 347 637 l 810 637 l 810 58 l 868 58 l 868 870 q 794 1037 867 974 q 608 1100 720 1100 l 372 1100 q 187 1037 259 1100 q 116 872 116 975 l 116 521 q 145 477 116 505 q 203 414 174 448 q 231 347 231 379 l 231 0 l 58 0 l 58 398 l 84 372 q 114 339 106 350 l 116 337 l 116 58 l 174 58 l 174 347 m 357 1400 l 258 1400 q 493 1277 376 1277 q 729 1400 611 1277 l 626 1400 q 492 1330 558 1330 q 426 1348 457 1330 q 357 1400 395 1366 m 611 1458 l 774 1458 l 774 1360 q 492 1215 634 1215 q 346 1258 422 1215 q 210 1360 271 1301 l 210 1458 l 373 1458 q 491 1396 431 1396 q 611 1458 551 1396 z "},"":{"ha":868,"x_min":58,"x_max":810,"o":"m 116 289 q 188 121 116 184 q 372 58 260 58 l 752 58 l 752 347 q 737 376 752 357 q 695 422 722 395 q 660 460 668 450 q 637 521 637 488 l 637 579 q 587 722 637 686 q 434 752 544 752 l 174 752 l 174 926 l 495 926 q 710 855 631 926 q 810 651 810 765 l 810 469 q 783 498 807 473 q 752 531 758 522 l 752 648 q 680 806 752 744 q 495 868 608 868 l 231 868 l 231 810 l 434 810 q 628 762 563 810 q 694 584 693 715 l 694 521 q 752 446 694 505 q 810 347 810 386 l 810 0 l 372 0 q 149 79 239 0 q 58 289 59 158 q 150 499 58 420 q 376 579 242 579 l 579 579 l 579 405 l 405 405 q 268 375 305 405 q 231 289 231 344 q 273 203 231 231 q 434 174 315 174 q 587 204 544 174 q 637 347 637 240 l 637 399 q 666 370 642 398 q 694 337 690 341 l 694 318 q 621 158 694 211 q 434 116 563 116 q 240 153 307 116 q 174 289 174 191 q 250 431 174 394 q 376 463 313 463 l 521 463 l 521 521 l 376 521 q 190 456 263 521 q 116 289 116 392 m 299 1169 l 200 1169 q 435 1046 318 1046 q 671 1169 553 1046 l 569 1169 q 434 1098 501 1098 q 368 1116 399 1098 q 299 1169 337 1134 m 553 1227 l 716 1227 l 716 1128 q 434 984 576 984 q 289 1026 365 984 q 152 1128 213 1069 l 152 1227 l 315 1227 q 433 1165 373 1165 q 553 1227 493 1165 z "},"":{"ha":984,"x_min":58,"x_max":984,"o":"m 174 347 q 116 422 174 363 q 58 521 58 482 l 58 872 q 158 1087 58 1007 q 372 1157 243 1157 l 611 1157 q 833 1079 741 1157 q 926 867 926 1001 l 926 13 q 922 -16 922 0 q 934 -49 922 -41 q 977 -58 946 -58 l 984 -58 l 984 -231 l 926 -231 q 884 -219 906 -227 q 826 -191 862 -211 q 768 -130 790 -171 q 745 -36 745 -90 q 752 38 745 -9 l 752 579 l 289 579 l 289 752 l 752 752 l 752 810 q 708 948 752 913 q 550 984 664 984 l 434 984 q 276 948 320 984 q 231 810 231 913 l 231 469 l 205 495 q 174 530 178 522 l 174 816 q 239 992 174 943 q 434 1042 304 1042 l 550 1042 q 744 993 680 1042 q 810 813 809 945 l 810 694 l 347 694 l 347 637 l 810 637 l 810 35 q 803 -36 806 12 q 833 -122 803 -91 q 891 -161 862 -150 l 926 -172 l 926 -109 q 861 -38 861 -85 q 868 17 861 -19 l 868 870 q 794 1036 868 972 q 608 1100 720 1100 l 372 1100 q 187 1037 259 1100 q 116 872 116 975 l 116 521 q 145 477 116 505 q 203 414 174 448 q 231 347 231 379 l 231 0 l 58 0 l 58 398 l 84 372 q 103 352 95 360 q 112 341 110 344 q 116 337 114 339 l 116 58 l 174 58 l 174 347 z "},"":{"ha":868,"x_min":58,"x_max":868,"o":"m 810 -107 q 744 -38 744 -84 q 748 0 744 -23 l 752 58 l 752 347 q 737 376 752 357 q 695 422 722 395 q 660 460 668 450 q 637 521 637 488 l 637 579 q 587 722 637 686 q 434 752 544 752 l 174 752 l 174 926 l 495 926 q 710 855 631 926 q 810 651 810 765 l 810 469 q 783 498 807 473 q 752 531 758 522 l 752 648 q 680 806 752 744 q 495 868 608 868 l 231 868 l 231 810 l 434 810 q 629 761 564 810 q 694 584 694 712 l 694 521 q 752 446 694 505 q 810 347 810 386 l 810 0 q 806 -16 806 -6 q 819 -48 806 -39 q 861 -56 832 -56 l 868 -56 l 868 -230 l 810 -230 q 767 -218 788 -226 q 710 -190 745 -210 q 652 -129 674 -169 q 629 -35 629 -88 q 634 0 629 -29 l 372 0 q 149 79 239 0 q 58 289 59 158 q 150 499 58 420 q 376 579 242 579 l 579 579 l 579 405 l 405 405 q 268 375 305 405 q 231 289 231 344 q 273 203 231 231 q 434 174 315 174 q 587 204 544 174 q 637 347 637 240 l 637 399 q 666 370 642 398 q 694 337 690 341 l 694 318 q 621 158 694 211 q 434 116 563 116 q 240 153 307 116 q 174 289 174 191 q 250 431 174 394 q 376 463 313 463 l 521 463 l 521 521 l 376 521 q 190 456 263 521 q 116 289 116 392 q 188 121 116 184 q 372 58 260 58 l 703 58 l 692 0 l 687 -35 q 718 -122 687 -88 q 755 -151 739 -143 q 810 -172 771 -159 l 810 -107 z "},"":{"ha":984,"x_min":58,"x_max":926,"o":"m 58 872 q 148 1078 58 998 q 372 1157 239 1157 l 608 1157 q 836 1076 747 1155 q 926 868 924 998 l 926 810 l 752 810 q 703 953 752 917 q 550 984 660 984 l 434 984 q 281 953 324 984 q 231 810 231 917 l 231 469 q 205 497 230 472 q 174 530 179 522 l 174 816 q 239 992 174 943 q 434 1042 304 1042 l 550 1042 q 731 1003 670 1042 q 806 868 791 965 l 868 868 q 795 1035 867 974 q 608 1100 723 1097 l 372 1100 q 191 1039 266 1100 q 116 868 116 978 l 116 521 q 174 446 116 503 q 231 347 231 388 q 281 204 231 240 q 434 174 324 174 l 550 174 q 703 204 660 174 q 752 347 752 240 l 926 347 l 926 289 q 836 80 926 159 q 612 0 747 0 l 376 0 q 266 14 315 0 q 183 55 217 29 q 129 103 149 81 q 88 158 109 126 q 58 260 58 203 l 58 399 l 84 373 q 114 339 104 339 q 116 337 116 339 l 116 291 q 192 120 116 182 q 376 58 268 58 l 612 58 q 794 120 720 58 q 868 289 868 182 l 807 289 q 734 156 794 197 q 550 116 674 116 l 434 116 q 240 163 295 116 q 174 318 185 210 l 174 347 q 116 422 174 365 q 58 521 58 480 l 58 872 m 673 1348 l 475 1215 l 311 1215 l 311 1314 l 508 1447 l 673 1447 l 673 1348 m 525 1389 l 356 1273 l 459 1273 l 628 1389 l 525 1389 z "},"":{"ha":868,"x_min":58,"x_max":810,"o":"m 58 637 q 145 846 58 765 q 372 926 233 926 l 492 926 q 720 846 631 926 q 810 637 810 767 l 631 637 q 582 725 621 697 q 434 752 544 752 q 281 722 324 752 q 231 579 231 686 l 231 469 q 209 491 227 475 q 174 531 191 508 l 174 584 q 239 761 174 712 q 434 810 304 810 q 593 784 535 810 q 676 694 651 758 l 745 694 q 664 818 728 768 q 492 868 600 868 l 372 868 q 187 805 259 868 q 116 638 116 742 l 116 521 q 145 476 116 503 q 203 414 174 448 q 231 347 231 380 q 281 204 231 240 q 434 174 324 174 q 553 190 511 174 q 610 227 596 205 q 632 289 624 249 l 810 289 q 721 80 810 161 q 492 0 632 0 l 376 0 q 148 80 239 0 q 58 289 58 161 l 58 399 l 84 373 q 116 337 113 341 l 116 291 q 192 120 116 182 q 376 58 268 58 l 492 58 q 662 107 596 58 q 747 231 728 156 l 676 231 q 600 145 655 174 q 434 116 544 116 q 247 158 298 116 q 174 318 174 218 l 174 347 q 145 392 174 365 q 87 454 116 420 q 58 521 58 488 l 58 637 m 615 1117 l 417 984 l 253 984 l 253 1082 l 450 1215 l 615 1215 l 615 1117 m 467 1157 l 298 1042 l 401 1042 l 570 1157 l 467 1157 z "},"":{"ha":984,"x_min":58,"x_max":926,"o":"m 58 872 q 148 1078 58 998 q 372 1157 239 1157 l 608 1157 q 836 1076 747 1155 q 926 868 924 998 l 926 810 l 752 810 q 703 953 752 917 q 550 984 660 984 l 434 984 q 281 953 324 984 q 231 810 231 917 l 231 469 q 205 497 230 472 q 174 530 179 522 l 174 816 q 239 992 174 943 q 434 1042 304 1042 l 550 1042 q 731 1003 670 1042 q 806 868 791 965 l 868 868 q 795 1035 867 974 q 608 1100 723 1097 l 372 1100 q 191 1039 266 1100 q 116 868 116 978 l 116 521 q 174 446 116 503 q 231 347 231 388 q 281 204 231 240 q 434 174 324 174 l 550 174 q 703 204 660 174 q 752 347 752 240 l 926 347 l 926 289 q 836 80 926 159 q 612 0 747 0 l 376 0 q 266 14 315 0 q 183 55 217 29 q 129 103 149 81 q 88 158 109 126 q 58 260 58 203 l 58 399 l 84 373 q 114 339 104 339 q 116 337 116 339 l 116 291 q 192 120 116 182 q 376 58 268 58 l 612 58 q 794 120 720 58 q 868 289 868 182 l 807 289 q 734 156 794 197 q 550 116 674 116 l 434 116 q 240 163 295 116 q 174 318 185 210 l 174 347 q 116 422 174 365 q 58 521 58 480 l 58 872 m 490 1367 l 626 1273 l 729 1273 l 493 1435 l 258 1273 l 357 1273 l 490 1367 m 490 1298 l 373 1215 l 210 1215 l 210 1314 l 492 1505 l 774 1314 l 774 1215 l 611 1215 l 490 1298 z "},"":{"ha":868,"x_min":58,"x_max":810,"o":"m 58 637 q 145 846 58 765 q 372 926 233 926 l 492 926 q 720 846 631 926 q 810 637 810 767 l 631 637 q 582 725 621 697 q 434 752 544 752 q 281 722 324 752 q 231 579 231 686 l 231 469 q 209 491 227 475 q 174 531 191 508 l 174 584 q 239 761 174 712 q 434 810 304 810 q 593 784 535 810 q 676 694 651 758 l 745 694 q 664 818 728 768 q 492 868 600 868 l 372 868 q 187 805 259 868 q 116 638 116 742 l 116 521 q 145 476 116 503 q 203 414 174 448 q 231 347 231 380 q 281 204 231 240 q 434 174 324 174 q 553 190 511 174 q 610 227 596 205 q 632 289 624 249 l 810 289 q 721 80 810 161 q 492 0 632 0 l 376 0 q 148 80 239 0 q 58 289 58 161 l 58 399 l 84 373 q 116 337 113 341 l 116 291 q 192 120 116 182 q 376 58 268 58 l 492 58 q 662 107 596 58 q 747 231 728 156 l 676 231 q 600 145 655 174 q 434 116 544 116 q 247 158 298 116 q 174 318 174 218 l 174 347 q 145 392 174 365 q 87 454 116 420 q 58 521 58 488 l 58 637 m 433 1136 l 569 1042 l 671 1042 l 435 1204 l 200 1042 l 299 1042 l 433 1136 m 433 1066 l 315 984 l 152 984 l 152 1082 l 434 1273 l 716 1082 l 716 984 l 553 984 l 433 1066 z "},"":{"ha":984,"x_min":58,"x_max":926,"o":"m 58 872 q 148 1078 58 998 q 372 1157 239 1157 l 608 1157 q 836 1076 747 1155 q 926 868 924 998 l 926 810 l 752 810 q 703 953 752 917 q 550 984 660 984 l 434 984 q 281 953 324 984 q 231 810 231 917 l 231 469 q 205 497 230 472 q 174 530 179 522 l 174 816 q 239 992 174 943 q 434 1042 304 1042 l 550 1042 q 731 1003 670 1042 q 806 868 791 965 l 868 868 q 795 1035 867 974 q 608 1100 723 1097 l 372 1100 q 191 1039 266 1100 q 116 868 116 978 l 116 521 q 174 446 116 503 q 231 347 231 388 q 281 204 231 240 q 434 174 324 174 l 550 174 q 703 204 660 174 q 752 347 752 240 l 926 347 l 926 289 q 836 80 926 159 q 612 0 747 0 l 376 0 q 266 14 315 0 q 183 55 217 29 q 129 103 149 81 q 88 158 109 126 q 58 260 58 203 l 58 399 l 84 373 q 114 339 104 339 q 116 337 116 339 l 116 291 q 192 120 116 182 q 376 58 268 58 l 612 58 q 794 120 720 58 q 868 289 868 182 l 807 289 q 734 156 794 197 q 550 116 674 116 l 434 116 q 240 163 295 116 q 174 318 185 210 l 174 347 q 116 422 174 365 q 58 521 58 480 l 58 872 m 492 1215 q 431 1241 457 1215 q 405 1302 405 1266 l 405 1389 l 579 1389 l 579 1302 q 553 1241 579 1263 q 492 1215 530 1215 m 492 1273 q 513 1282 505 1273 q 521 1302 521 1291 l 521 1331 l 463 1331 l 463 1302 q 472 1281 463 1289 q 492 1273 480 1273 z "},"":{"ha":868,"x_min":58,"x_max":810,"o":"m 58 637 q 145 846 58 765 q 372 926 233 926 l 492 926 q 720 846 631 926 q 810 637 810 767 l 631 637 q 582 725 621 697 q 434 752 544 752 q 281 722 324 752 q 231 579 231 686 l 231 469 q 209 491 227 475 q 174 531 191 508 l 174 584 q 239 761 174 712 q 434 810 304 810 q 593 784 535 810 q 676 694 651 758 l 745 694 q 664 818 728 768 q 492 868 600 868 l 372 868 q 187 805 259 868 q 116 638 116 742 l 116 521 q 145 476 116 503 q 203 414 174 448 q 231 347 231 380 q 281 204 231 240 q 434 174 324 174 q 553 190 511 174 q 610 227 596 205 q 632 289 624 249 l 810 289 q 721 80 810 161 q 492 0 632 0 l 376 0 q 148 80 239 0 q 58 289 58 161 l 58 399 l 84 373 q 116 337 113 341 l 116 291 q 192 120 116 182 q 376 58 268 58 l 492 58 q 662 107 596 58 q 747 231 728 156 l 676 231 q 600 145 655 174 q 434 116 544 116 q 247 158 298 116 q 174 318 174 218 l 174 347 q 145 392 174 365 q 87 454 116 420 q 58 521 58 488 l 58 637 m 434 984 q 373 1009 399 984 q 347 1071 347 1034 l 347 1157 l 521 1157 l 521 1071 q 495 1010 521 1032 q 434 984 472 984 m 434 1042 q 455 1050 447 1042 q 463 1071 463 1059 l 463 1100 l 405 1100 l 405 1071 q 414 1050 405 1058 q 434 1042 422 1042 z "},"":{"ha":984,"x_min":58,"x_max":926,"o":"m 58 872 q 148 1078 58 998 q 372 1157 239 1157 l 608 1157 q 836 1076 747 1155 q 926 868 924 998 l 926 810 l 752 810 q 703 953 752 917 q 550 984 660 984 l 434 984 q 281 953 324 984 q 231 810 231 917 l 231 469 q 205 497 230 472 q 174 530 179 522 l 174 816 q 239 992 174 943 q 434 1042 304 1042 l 550 1042 q 731 1003 670 1042 q 806 868 791 965 l 868 868 q 795 1035 867 974 q 608 1100 723 1097 l 372 1100 q 191 1039 266 1100 q 116 868 116 978 l 116 521 q 174 446 116 503 q 231 347 231 388 q 281 204 231 240 q 434 174 324 174 l 550 174 q 703 204 660 174 q 752 347 752 240 l 926 347 l 926 289 q 836 80 926 159 q 612 0 747 0 l 376 0 q 266 14 315 0 q 183 55 217 29 q 129 103 149 81 q 88 158 109 126 q 58 260 58 203 l 58 399 l 84 373 q 114 339 104 339 q 116 337 116 339 l 116 291 q 192 120 116 182 q 376 58 268 58 l 612 58 q 794 120 720 58 q 868 289 868 182 l 807 289 q 734 156 794 197 q 550 116 674 116 l 434 116 q 240 163 295 116 q 174 318 185 210 l 174 347 q 116 422 174 365 q 58 521 58 480 l 58 872 m 490 1353 l 357 1447 l 258 1447 l 493 1285 l 729 1447 l 626 1447 l 490 1353 m 490 1422 l 611 1505 l 774 1505 l 774 1406 l 492 1215 l 210 1406 l 210 1505 l 373 1505 l 490 1422 z "},"":{"ha":868,"x_min":58,"x_max":810,"o":"m 58 637 q 145 846 58 765 q 372 926 233 926 l 492 926 q 720 846 631 926 q 810 637 810 767 l 631 637 q 582 725 621 697 q 434 752 544 752 q 281 722 324 752 q 231 579 231 686 l 231 469 q 209 491 227 475 q 174 531 191 508 l 174 584 q 239 761 174 712 q 434 810 304 810 q 593 784 535 810 q 676 694 651 758 l 745 694 q 664 818 728 768 q 492 868 600 868 l 372 868 q 187 805 259 868 q 116 638 116 742 l 116 521 q 145 476 116 503 q 203 414 174 448 q 231 347 231 380 q 281 204 231 240 q 434 174 324 174 q 553 190 511 174 q 610 227 596 205 q 632 289 624 249 l 810 289 q 721 80 810 161 q 492 0 632 0 l 376 0 q 148 80 239 0 q 58 289 58 161 l 58 399 l 84 373 q 116 337 113 341 l 116 291 q 192 120 116 182 q 376 58 268 58 l 492 58 q 662 107 596 58 q 747 231 728 156 l 676 231 q 600 145 655 174 q 434 116 544 116 q 247 158 298 116 q 174 318 174 218 l 174 347 q 145 392 174 365 q 87 454 116 420 q 58 521 58 488 l 58 637 m 433 1121 l 299 1215 l 200 1215 l 435 1053 l 671 1215 l 569 1215 l 433 1121 m 433 1191 l 553 1273 l 716 1273 l 716 1175 l 434 984 l 152 1175 l 152 1273 l 315 1273 l 433 1191 z "},"":{"ha":984,"x_min":58,"x_max":926,"o":"m 174 340 q 156 381 174 359 q 116 422 137 404 q 76 468 94 441 q 58 521 58 495 l 58 1157 l 608 1157 q 836 1078 747 1157 q 926 870 926 998 l 926 288 q 833 78 924 156 q 608 0 741 0 l 58 0 l 58 399 q 79 378 61 395 q 116 337 97 360 l 116 58 l 608 58 q 793 121 719 58 q 868 288 867 184 l 868 868 q 793 1038 868 977 q 608 1100 718 1100 l 116 1100 l 116 521 q 174 446 116 505 q 231 347 231 386 q 281 204 231 240 q 434 174 324 174 l 550 174 q 703 204 660 174 q 752 347 752 240 l 752 810 q 703 953 752 917 q 550 984 660 984 l 231 984 l 231 469 q 174 530 223 480 l 174 1042 l 550 1042 q 746 992 681 1042 q 810 810 810 942 l 810 347 q 746 166 810 216 q 550 116 681 116 l 434 116 q 247 158 305 116 q 174 340 174 226 m 490 1353 l 357 1447 l 258 1447 l 493 1285 l 729 1447 l 626 1447 l 490 1353 m 490 1422 l 611 1505 l 774 1505 l 774 1406 l 492 1215 l 210 1406 l 210 1505 l 373 1505 l 490 1422 z "},"":{"ha":1100,"x_min":58,"x_max":1100,"o":"m 174 347 q 116 422 174 365 q 58 521 58 480 l 58 641 q 158 855 58 768 q 376 926 242 926 l 637 926 l 637 1157 l 810 1157 l 810 0 l 376 0 q 157 73 246 0 q 58 260 68 146 l 58 399 l 84 373 q 116 337 113 341 l 116 291 q 192 120 116 182 q 376 58 268 58 l 752 58 l 752 1100 l 694 1100 l 694 868 l 376 868 q 224 832 281 868 q 133 728 168 796 q 116 634 116 692 l 116 521 q 174 446 116 503 q 231 347 231 388 q 281 204 231 240 q 434 174 324 174 q 587 204 544 174 q 637 347 637 240 l 637 579 q 587 722 637 686 q 434 752 544 752 q 281 722 324 752 q 231 579 231 686 l 231 469 q 204 498 229 473 q 174 531 179 522 l 174 584 q 239 761 174 712 q 434 810 304 810 q 629 762 564 810 q 694 583 693 713 l 694 347 q 630 166 694 216 q 434 116 566 116 q 243 161 313 116 q 174 318 174 205 l 174 347 m 1100 1157 l 1100 958 l 998 858 l 883 974 l 926 1021 l 926 1157 l 1100 1157 m 1042 1100 l 984 1100 l 984 998 l 964 975 l 998 939 l 1042 985 l 1042 1100 z "},"":{"ha":984,"x_min":0,"x_max":926,"o":"m 868 868 q 793 1038 868 977 q 608 1100 718 1100 l 116 1100 l 116 694 l 58 694 l 58 637 l 116 637 l 116 521 q 145 477 116 505 q 203 414 174 448 q 231 347 231 379 q 281 204 231 242 q 434 174 324 174 l 550 174 q 703 204 660 174 q 752 347 752 240 l 752 810 q 703 953 752 917 q 550 984 660 984 l 231 984 l 231 752 l 463 752 l 463 579 l 231 579 l 231 469 q 174 530 223 480 l 174 637 l 405 637 l 405 694 l 174 694 l 174 1042 l 550 1042 q 746 992 681 1042 q 810 810 810 942 l 810 347 q 746 166 810 216 q 550 116 681 116 l 434 116 q 247 158 298 116 q 174 347 174 218 q 116 422 174 363 q 58 521 58 480 l 58 579 l 0 579 l 0 752 l 58 752 l 58 1157 l 608 1157 q 836 1078 747 1157 q 926 870 926 998 l 926 288 q 835 80 926 161 q 608 0 744 0 l 58 0 l 58 399 q 77 379 61 395 q 116 337 94 363 l 116 58 l 608 58 q 794 122 720 58 q 868 288 868 185 l 868 868 z "},"":{"ha":868,"x_min":58,"x_max":868,"o":"m 174 347 q 116 422 174 365 q 58 521 58 480 l 58 641 q 158 855 58 768 q 376 926 242 926 l 694 926 l 694 868 l 376 868 q 133 728 203 868 q 116 634 116 692 l 116 521 q 174 446 116 503 q 231 347 231 388 q 281 204 231 240 q 434 174 324 174 q 587 204 544 174 q 637 347 637 240 l 637 579 q 587 722 637 686 q 434 752 544 752 q 281 722 324 752 q 231 579 231 686 l 231 469 q 204 498 229 473 q 174 531 179 522 l 174 584 q 239 761 174 712 q 434 810 304 810 q 629 761 564 810 q 694 583 694 712 l 694 347 q 630 166 694 216 q 434 116 566 116 q 243 161 313 116 q 174 318 174 205 l 174 347 m 116 291 q 192 120 116 182 q 376 58 268 58 l 496 58 q 637 91 573 58 l 694 136 l 694 58 l 752 58 l 752 926 l 810 926 l 810 984 l 752 984 l 752 1100 l 694 1100 l 694 984 l 289 984 l 289 926 l 231 926 l 231 1042 l 637 1042 l 637 1157 l 810 1157 l 810 1042 l 868 1042 l 868 868 l 810 868 l 810 0 l 637 0 l 637 27 q 496 0 573 0 l 376 0 q 154 75 250 0 q 58 260 58 149 l 58 399 l 84 373 q 116 337 104 353 l 116 291 z "},"":{"ha":984,"x_min":58,"x_max":926,"o":"m 174 347 q 116 422 174 363 q 58 521 58 480 l 58 1157 l 926 1157 l 926 984 l 231 984 l 231 752 l 637 752 l 637 579 l 231 579 l 231 469 q 211 490 229 473 q 174 531 192 508 l 174 637 l 579 637 l 579 694 l 174 694 l 174 1042 l 868 1042 l 868 1100 l 116 1100 l 116 521 q 174 446 116 505 q 231 347 231 386 q 281 204 231 240 q 434 174 324 174 l 926 174 l 926 0 l 58 0 l 58 399 q 79 378 61 395 q 116 337 97 360 l 116 58 l 868 58 l 868 116 l 434 116 q 247 158 305 116 q 174 347 174 224 m 810 1331 l 174 1331 l 174 1273 l 810 1273 l 810 1331 m 868 1389 l 868 1215 l 116 1215 l 116 1389 l 868 1389 z "},"":{"ha":868,"x_min":58,"x_max":810,"o":"m 58 637 q 145 846 58 767 q 376 926 233 926 l 492 926 q 720 846 631 926 q 810 637 810 767 l 810 405 l 289 405 l 289 579 l 637 579 q 587 722 637 686 q 433 752 544 752 q 276 716 320 752 q 231 579 231 680 l 231 469 q 209 491 227 475 q 174 531 191 508 l 174 584 q 239 761 174 712 q 433 810 304 810 q 630 760 566 810 q 694 579 694 710 l 694 521 l 347 521 l 347 463 l 752 463 l 752 635 q 681 804 752 741 q 492 868 609 868 l 376 868 q 187 806 259 868 q 116 637 116 744 l 116 521 q 174 446 116 505 q 231 347 231 386 q 276 209 231 245 q 433 174 320 174 q 582 200 540 174 q 632 289 624 227 l 810 289 q 720 80 810 161 q 495 0 631 0 l 376 0 q 154 75 250 0 q 58 260 58 149 l 58 399 q 88 366 75 382 q 105 344 100 350 q 114 339 110 339 q 116 337 116 339 l 116 291 q 192 120 116 182 q 376 58 268 58 l 495 58 q 659 106 592 58 q 747 231 726 153 l 676 231 q 592 141 648 166 q 433 116 535 116 q 247 158 294 116 q 174 347 174 226 q 159 375 174 357 q 118 421 145 394 q 81 460 91 448 q 58 521 58 488 l 58 637 m 752 1100 l 116 1100 l 116 1042 l 752 1042 l 752 1100 m 810 1157 l 810 984 l 58 984 l 58 1157 l 810 1157 z "},"":{"ha":984,"x_min":58,"x_max":926,"o":"m 174 347 q 116 422 174 363 q 58 521 58 480 l 58 1157 l 926 1157 l 926 984 l 231 984 l 231 752 l 637 752 l 637 579 l 231 579 l 231 469 q 211 490 229 473 q 174 531 192 508 l 174 637 l 579 637 l 579 694 l 174 694 l 174 1042 l 868 1042 l 868 1100 l 116 1100 l 116 521 q 174 446 116 505 q 231 347 231 386 q 281 204 231 240 q 434 174 324 174 l 926 174 l 926 0 l 58 0 l 58 399 q 79 378 61 395 q 116 337 97 360 l 116 58 l 868 58 l 868 116 l 434 116 q 247 158 305 116 q 174 347 174 224 m 357 1400 l 258 1400 q 493 1277 376 1277 q 729 1400 611 1277 l 626 1400 q 492 1330 558 1330 q 426 1348 457 1330 q 357 1400 395 1366 m 611 1458 l 774 1458 l 774 1360 q 492 1215 634 1215 q 346 1258 422 1215 q 210 1360 271 1301 l 210 1458 l 373 1458 q 491 1396 431 1396 q 611 1458 551 1396 z "},"":{"ha":868,"x_min":58,"x_max":810,"o":"m 58 637 q 145 846 58 767 q 376 926 233 926 l 492 926 q 720 846 631 926 q 810 637 810 767 l 810 405 l 289 405 l 289 579 l 637 579 q 587 722 637 686 q 433 752 544 752 q 276 716 320 752 q 231 579 231 680 l 231 469 q 209 491 227 475 q 174 531 191 508 l 174 584 q 239 761 174 712 q 433 810 304 810 q 630 760 566 810 q 694 579 694 710 l 694 521 l 347 521 l 347 463 l 752 463 l 752 635 q 681 804 752 741 q 492 868 609 868 l 376 868 q 187 806 259 868 q 116 637 116 744 l 116 521 q 174 446 116 505 q 231 347 231 386 q 276 209 231 245 q 433 174 320 174 q 582 200 540 174 q 632 289 624 227 l 810 289 q 720 80 810 161 q 495 0 631 0 l 376 0 q 154 75 250 0 q 58 260 58 149 l 58 399 q 88 366 75 382 q 105 344 100 350 q 114 339 110 339 q 116 337 116 339 l 116 291 q 192 120 116 182 q 376 58 268 58 l 495 58 q 659 106 592 58 q 747 231 726 153 l 676 231 q 592 141 648 166 q 433 116 535 116 q 247 158 294 116 q 174 347 174 226 q 159 375 174 357 q 118 421 145 394 q 81 460 91 448 q 58 521 58 488 l 58 637 m 299 1169 l 200 1169 q 435 1046 318 1046 q 671 1169 553 1046 l 569 1169 q 434 1098 501 1098 q 368 1116 399 1098 q 299 1169 337 1134 m 553 1227 l 716 1227 l 716 1128 q 434 984 576 984 q 289 1026 365 984 q 152 1128 213 1069 l 152 1227 l 315 1227 q 433 1165 373 1165 q 553 1227 493 1165 z "},"":{"ha":984,"x_min":58,"x_max":926,"o":"m 174 347 q 116 422 174 363 q 58 521 58 480 l 58 1157 l 926 1157 l 926 984 l 231 984 l 231 752 l 637 752 l 637 579 l 231 579 l 231 469 q 211 490 229 473 q 174 531 192 508 l 174 637 l 579 637 l 579 694 l 174 694 l 174 1042 l 868 1042 l 868 1100 l 116 1100 l 116 521 q 174 446 116 505 q 231 347 231 386 q 281 204 231 240 q 434 174 324 174 l 926 174 l 926 0 l 58 0 l 58 399 q 79 378 61 395 q 116 337 97 360 l 116 58 l 868 58 l 868 116 l 434 116 q 247 158 305 116 q 174 347 174 224 m 492 1215 q 431 1241 457 1215 q 405 1302 405 1266 l 405 1389 l 579 1389 l 579 1302 q 553 1241 579 1263 q 492 1215 530 1215 m 492 1273 q 513 1282 505 1273 q 521 1302 521 1291 l 521 1331 l 463 1331 l 463 1302 q 472 1281 463 1289 q 492 1273 480 1273 z "},"":{"ha":868,"x_min":58,"x_max":810,"o":"m 58 637 q 145 846 58 767 q 376 926 233 926 l 492 926 q 720 846 631 926 q 810 637 810 767 l 810 405 l 289 405 l 289 579 l 637 579 q 587 722 637 686 q 433 752 544 752 q 276 716 320 752 q 231 579 231 680 l 231 469 q 209 491 227 475 q 174 531 191 508 l 174 584 q 239 761 174 712 q 433 810 304 810 q 630 760 566 810 q 694 579 694 710 l 694 521 l 347 521 l 347 463 l 752 463 l 752 635 q 681 804 752 741 q 492 868 609 868 l 376 868 q 187 806 259 868 q 116 637 116 744 l 116 521 q 174 446 116 505 q 231 347 231 386 q 276 209 231 245 q 433 174 320 174 q 582 200 540 174 q 632 289 624 227 l 810 289 q 720 80 810 161 q 495 0 631 0 l 376 0 q 154 75 250 0 q 58 260 58 149 l 58 399 q 88 366 75 382 q 105 344 100 350 q 114 339 110 339 q 116 337 116 339 l 116 291 q 192 120 116 182 q 376 58 268 58 l 495 58 q 659 106 592 58 q 747 231 726 153 l 676 231 q 592 141 648 166 q 433 116 535 116 q 247 158 294 116 q 174 347 174 226 q 159 375 174 357 q 118 421 145 394 q 81 460 91 448 q 58 521 58 488 l 58 637 m 434 984 q 373 1009 399 984 q 347 1071 347 1034 l 347 1157 l 521 1157 l 521 1071 q 495 1010 521 1032 q 434 984 472 984 m 434 1042 q 455 1050 447 1042 q 463 1071 463 1059 l 463 1100 l 405 1100 l 405 1071 q 414 1050 405 1058 q 434 1042 422 1042 z "},"":{"ha":984,"x_min":58,"x_max":926,"o":"m 174 347 q 145 392 174 365 q 87 454 116 420 q 58 521 58 488 l 58 1157 l 926 1157 l 926 985 l 231 985 l 231 752 l 637 752 l 637 579 l 231 579 l 231 469 q 209 491 227 475 q 174 531 191 508 l 174 637 l 579 637 l 579 694 l 174 694 l 174 1042 l 868 1043 l 868 1100 l 116 1100 l 116 521 q 145 476 116 503 q 203 414 174 448 q 231 347 231 380 q 276 209 231 245 q 434 174 320 174 l 926 174 l 926 0 l 676 0 l 674 -16 q 687 -48 674 -39 q 729 -56 700 -56 l 736 -56 l 736 -230 l 679 -230 q 637 -218 660 -227 q 579 -190 613 -210 q 521 -129 544 -171 q 498 -35 498 -88 q 499 0 498 -12 l 58 0 l 58 399 l 84 373 q 116 337 104 353 l 116 58 l 563 59 q 556 -35 556 9 q 586 -122 556 -91 q 644 -161 616 -152 l 679 -172 l 679 -107 q 612 -38 612 -84 q 624 59 612 -6 l 868 59 l 868 116 l 434 116 q 331 124 373 116 q 251 156 289 133 q 193 227 213 179 q 174 347 174 275 z "},"":{"ha":868,"x_min":58,"x_max":810,"o":"m 434 174 q 581 200 538 174 q 632 289 624 227 l 810 289 q 710 72 810 153 q 580 9 652 26 l 574 -30 q 628 -56 574 -56 l 635 -56 l 635 -231 l 577 -231 q 525 -216 551 -227 q 467 -183 499 -204 q 416 -123 435 -162 q 396 -35 396 -84 q 401 0 396 -29 l 376 0 q 156 75 253 0 q 58 260 58 149 l 58 399 q 114 339 107 350 q 116 337 116 339 l 116 291 q 192 120 116 182 q 376 58 268 58 l 467 58 q 454 -35 457 17 q 470 -101 454 -72 q 507 -142 486 -130 q 548 -163 528 -153 q 577 -172 569 -172 l 577 -107 q 530 -81 544 -95 q 515 -41 515 -67 l 530 59 q 674 117 616 68 q 747 231 729 162 l 676 231 q 598 144 651 172 q 433 116 544 116 q 247 158 294 116 q 174 347 174 226 q 158 376 174 357 q 116 422 143 395 q 81 460 90 450 q 58 521 58 488 l 58 637 q 145 846 58 767 q 376 926 233 926 l 492 926 q 720 846 631 926 q 810 637 810 767 l 810 405 l 289 405 l 289 579 l 637 579 q 587 722 637 686 q 434 752 544 752 q 276 717 320 752 q 231 579 231 681 l 231 469 q 209 491 227 475 q 174 531 191 508 l 174 584 q 239 761 174 712 q 434 810 304 810 q 630 760 566 810 q 694 579 694 710 l 694 521 l 347 521 l 347 463 l 752 463 l 752 635 q 681 804 752 741 q 492 868 609 868 l 376 868 q 187 806 259 868 q 116 637 116 744 l 116 521 q 174 446 116 505 q 231 347 231 386 q 276 209 231 245 q 434 174 320 174 z "},"":{"ha":984,"x_min":58,"x_max":926,"o":"m 174 347 q 116 422 174 363 q 58 521 58 480 l 58 1157 l 926 1157 l 926 984 l 231 984 l 231 752 l 637 752 l 637 579 l 231 579 l 231 469 q 211 490 229 473 q 174 531 192 508 l 174 637 l 579 637 l 579 694 l 174 694 l 174 1042 l 868 1042 l 868 1100 l 116 1100 l 116 521 q 174 446 116 505 q 231 347 231 386 q 281 204 231 240 q 434 174 324 174 l 926 174 l 926 0 l 58 0 l 58 399 q 79 378 61 395 q 116 337 97 360 l 116 58 l 868 58 l 868 116 l 434 116 q 247 158 305 116 q 174 347 174 224 m 490 1353 l 357 1447 l 258 1447 l 493 1285 l 729 1447 l 626 1447 l 490 1353 m 490 1422 l 611 1505 l 774 1505 l 774 1406 l 492 1215 l 210 1406 l 210 1505 l 373 1505 l 490 1422 z "},"":{"ha":868,"x_min":58,"x_max":810,"o":"m 58 637 q 145 846 58 767 q 376 926 233 926 l 492 926 q 720 846 631 926 q 810 637 810 767 l 810 405 l 289 405 l 289 579 l 637 579 q 587 722 637 686 q 433 752 544 752 q 276 716 320 752 q 231 579 231 680 l 231 469 q 209 491 227 475 q 174 531 191 508 l 174 584 q 239 761 174 712 q 433 810 304 810 q 630 760 566 810 q 694 579 694 710 l 694 521 l 347 521 l 347 463 l 752 463 l 752 635 q 681 804 752 741 q 492 868 609 868 l 376 868 q 187 806 259 868 q 116 637 116 744 l 116 521 q 174 446 116 505 q 231 347 231 386 q 276 209 231 245 q 433 174 320 174 q 582 200 540 174 q 632 289 624 227 l 810 289 q 720 80 810 161 q 495 0 631 0 l 376 0 q 154 75 250 0 q 58 260 58 149 l 58 399 q 88 366 75 382 q 105 344 100 350 q 114 339 110 339 q 116 337 116 339 l 116 291 q 192 120 116 182 q 376 58 268 58 l 495 58 q 659 106 592 58 q 747 231 726 153 l 676 231 q 592 141 648 166 q 433 116 535 116 q 247 158 294 116 q 174 347 174 226 q 159 375 174 357 q 118 421 145 394 q 81 460 91 448 q 58 521 58 488 l 58 637 m 433 1121 l 299 1215 l 200 1215 l 435 1053 l 671 1215 l 569 1215 l 433 1121 m 433 1191 l 553 1273 l 716 1273 l 716 1175 l 434 984 l 152 1175 l 152 1273 l 315 1273 l 433 1191 z "},"":{"ha":984,"x_min":58,"x_max":926,"o":"m 58 868 q 150 1080 58 1003 q 376 1157 243 1157 l 608 1157 q 833 1079 741 1157 q 926 868 924 1001 l 926 810 l 752 810 q 703 953 752 913 q 550 984 666 984 l 434 984 q 276 948 320 984 q 231 812 231 911 l 231 469 q 174 531 195 505 l 174 810 q 238 992 174 942 q 434 1042 302 1042 l 550 1042 q 731 1003 670 1042 q 806 868 791 965 l 868 868 q 794 1037 867 974 q 608 1100 720 1100 l 376 1100 q 191 1039 266 1100 q 116 870 116 978 l 116 521 q 174 446 116 503 q 231 347 231 388 q 281 204 231 240 q 434 174 324 174 l 550 174 q 703 204 660 174 q 752 347 752 240 l 752 521 l 521 521 l 521 694 l 926 694 l 926 289 q 836 80 926 159 q 612 0 747 0 l 376 0 q 151 78 243 0 q 58 289 59 156 l 58 399 q 84 373 61 395 q 114 339 107 350 q 116 337 116 339 l 116 291 q 192 120 116 182 q 376 58 268 58 l 612 58 q 794 120 720 58 q 868 289 868 182 l 868 637 l 579 637 l 579 579 l 810 579 l 810 347 q 746 166 810 216 q 550 116 681 116 l 434 116 q 247 158 294 116 q 174 347 174 227 q 116 422 174 365 q 58 521 58 480 l 58 868 m 490 1367 l 626 1273 l 729 1273 l 493 1435 l 258 1273 l 357 1273 l 490 1367 m 490 1298 l 373 1215 l 210 1215 l 210 1314 l 492 1505 l 774 1314 l 774 1215 l 611 1215 l 490 1298 z "},"":{"ha":868,"x_min":58,"x_max":810,"o":"m 58 637 q 145 846 58 765 q 372 926 233 926 l 492 926 q 720 846 631 926 q 810 637 810 767 l 810 58 q 718 -152 810 -72 q 492 -231 626 -231 l 174 -231 l 174 -58 l 448 -58 q 599 0 563 -58 l 376 0 q 159 72 245 0 q 58 260 58 161 l 58 399 l 84 373 q 116 337 113 341 l 116 291 q 192 120 116 182 q 376 58 268 58 l 676 58 q 660 -2 670 23 q 626 -56 650 -27 q 558 -101 603 -85 q 448 -116 514 -116 l 231 -116 l 231 -174 l 492 -174 q 676 -111 600 -174 q 752 59 752 -49 l 752 635 q 681 804 752 741 q 492 868 609 868 l 372 868 q 187 805 258 868 q 116 637 116 742 l 116 521 q 174 446 116 503 q 231 347 231 388 q 281 204 231 240 q 434 174 324 174 q 587 204 544 174 q 637 347 637 240 l 637 579 q 587 722 637 686 q 434 752 544 752 q 281 722 324 752 q 231 579 231 686 l 231 469 q 204 498 229 473 q 174 531 179 522 l 174 584 q 239 761 174 712 q 434 810 304 810 q 630 760 566 810 q 694 579 694 710 l 694 347 q 630 166 694 216 q 434 116 566 116 q 247 158 305 116 q 174 318 174 211 l 174 347 q 116 422 174 365 q 58 521 58 480 l 58 637 m 433 1136 l 569 1042 l 671 1042 l 435 1204 l 200 1042 l 299 1042 l 433 1136 m 433 1066 l 315 984 l 152 984 l 152 1082 l 434 1273 l 716 1082 l 716 984 l 553 984 l 433 1066 z "},"":{"ha":984,"x_min":58,"x_max":926,"o":"m 58 868 q 150 1080 58 1003 q 376 1157 243 1157 l 608 1157 q 833 1079 741 1157 q 926 868 924 1001 l 926 810 l 752 810 q 703 953 752 913 q 550 984 666 984 l 434 984 q 276 948 320 984 q 231 812 231 911 l 231 469 q 174 531 195 505 l 174 810 q 238 992 174 942 q 434 1042 302 1042 l 550 1042 q 731 1003 670 1042 q 806 868 791 965 l 868 868 q 794 1037 867 974 q 608 1100 720 1100 l 376 1100 q 191 1039 266 1100 q 116 870 116 978 l 116 521 q 174 446 116 503 q 231 347 231 388 q 281 204 231 240 q 434 174 324 174 l 550 174 q 703 204 660 174 q 752 347 752 240 l 752 521 l 521 521 l 521 694 l 926 694 l 926 289 q 836 80 926 159 q 612 0 747 0 l 376 0 q 151 78 243 0 q 58 289 59 156 l 58 399 q 84 373 61 395 q 114 339 107 350 q 116 337 116 339 l 116 291 q 192 120 116 182 q 376 58 268 58 l 612 58 q 794 120 720 58 q 868 289 868 182 l 868 637 l 579 637 l 579 579 l 810 579 l 810 347 q 746 166 810 216 q 550 116 681 116 l 434 116 q 247 158 294 116 q 174 347 174 227 q 116 422 174 365 q 58 521 58 480 l 58 868 m 357 1400 l 258 1400 q 493 1277 376 1277 q 729 1400 611 1277 l 626 1400 q 492 1330 558 1330 q 426 1348 457 1330 q 357 1400 395 1366 m 611 1458 l 774 1458 l 774 1360 q 492 1215 634 1215 q 346 1258 422 1215 q 210 1360 271 1301 l 210 1458 l 373 1458 q 491 1396 431 1396 q 611 1458 551 1396 z "},"":{"ha":868,"x_min":58,"x_max":810,"o":"m 58 637 q 145 846 58 765 q 372 926 233 926 l 492 926 q 720 846 631 926 q 810 637 810 767 l 810 58 q 718 -152 810 -72 q 492 -231 626 -231 l 174 -231 l 174 -58 l 448 -58 q 599 0 563 -58 l 376 0 q 159 72 245 0 q 58 260 58 161 l 58 399 l 84 373 q 116 337 113 341 l 116 291 q 192 120 116 182 q 376 58 268 58 l 676 58 q 660 -2 670 23 q 626 -56 650 -27 q 558 -101 603 -85 q 448 -116 514 -116 l 231 -116 l 231 -174 l 492 -174 q 676 -111 600 -174 q 752 59 752 -49 l 752 635 q 681 804 752 741 q 492 868 609 868 l 372 868 q 187 805 258 868 q 116 637 116 742 l 116 521 q 174 446 116 503 q 231 347 231 388 q 281 204 231 240 q 434 174 324 174 q 587 204 544 174 q 637 347 637 240 l 637 579 q 587 722 637 686 q 434 752 544 752 q 281 722 324 752 q 231 579 231 686 l 231 469 q 204 498 229 473 q 174 531 179 522 l 174 584 q 239 761 174 712 q 434 810 304 810 q 630 760 566 810 q 694 579 694 710 l 694 347 q 630 166 694 216 q 434 116 566 116 q 247 158 305 116 q 174 318 174 211 l 174 347 q 116 422 174 365 q 58 521 58 480 l 58 637 m 299 1169 l 200 1169 q 435 1046 318 1046 q 671 1169 553 1046 l 569 1169 q 434 1098 501 1098 q 368 1116 399 1098 q 299 1169 337 1134 m 553 1227 l 716 1227 l 716 1128 q 434 984 576 984 q 289 1026 365 984 q 152 1128 213 1069 l 152 1227 l 315 1227 q 433 1165 373 1165 q 553 1227 493 1165 z "},"":{"ha":984,"x_min":58,"x_max":926,"o":"m 58 868 q 150 1080 58 1003 q 376 1157 243 1157 l 608 1157 q 833 1079 741 1157 q 926 868 924 1001 l 926 810 l 752 810 q 703 953 752 913 q 550 984 666 984 l 434 984 q 276 948 320 984 q 231 812 231 911 l 231 469 q 174 531 195 505 l 174 810 q 238 992 174 942 q 434 1042 302 1042 l 550 1042 q 731 1003 670 1042 q 806 868 791 965 l 868 868 q 794 1037 867 974 q 608 1100 720 1100 l 376 1100 q 191 1039 266 1100 q 116 870 116 978 l 116 521 q 174 446 116 503 q 231 347 231 388 q 281 204 231 240 q 434 174 324 174 l 550 174 q 703 204 660 174 q 752 347 752 240 l 752 521 l 521 521 l 521 694 l 926 694 l 926 289 q 836 80 926 159 q 612 0 747 0 l 376 0 q 151 78 243 0 q 58 289 59 156 l 58 399 q 84 373 61 395 q 114 339 107 350 q 116 337 116 339 l 116 291 q 192 120 116 182 q 376 58 268 58 l 612 58 q 794 120 720 58 q 868 289 868 182 l 868 637 l 579 637 l 579 579 l 810 579 l 810 347 q 746 166 810 216 q 550 116 681 116 l 434 116 q 247 158 294 116 q 174 347 174 227 q 116 422 174 365 q 58 521 58 480 l 58 868 m 492 1215 q 431 1241 457 1215 q 405 1302 405 1266 l 405 1389 l 579 1389 l 579 1302 q 553 1241 579 1263 q 492 1215 530 1215 m 492 1273 q 513 1282 505 1273 q 521 1302 521 1291 l 521 1331 l 463 1331 l 463 1302 q 472 1281 463 1289 q 492 1273 480 1273 z "},"":{"ha":868,"x_min":58,"x_max":810,"o":"m 58 637 q 145 846 58 765 q 372 926 233 926 l 492 926 q 720 846 631 926 q 810 637 810 767 l 810 58 q 718 -152 810 -72 q 492 -231 626 -231 l 174 -231 l 174 -58 l 448 -58 q 599 0 563 -58 l 376 0 q 159 72 245 0 q 58 260 58 161 l 58 399 l 84 373 q 116 337 113 341 l 116 291 q 192 120 116 182 q 376 58 268 58 l 676 58 q 660 -2 670 23 q 626 -56 650 -27 q 558 -101 603 -85 q 448 -116 514 -116 l 231 -116 l 231 -174 l 492 -174 q 676 -111 600 -174 q 752 59 752 -49 l 752 635 q 681 804 752 741 q 492 868 609 868 l 372 868 q 187 805 258 868 q 116 637 116 742 l 116 521 q 174 446 116 503 q 231 347 231 388 q 281 204 231 240 q 434 174 324 174 q 587 204 544 174 q 637 347 637 240 l 637 579 q 587 722 637 686 q 434 752 544 752 q 281 722 324 752 q 231 579 231 686 l 231 469 q 204 498 229 473 q 174 531 179 522 l 174 584 q 239 761 174 712 q 434 810 304 810 q 630 760 566 810 q 694 579 694 710 l 694 347 q 630 166 694 216 q 434 116 566 116 q 247 158 305 116 q 174 318 174 211 l 174 347 q 116 422 174 365 q 58 521 58 480 l 58 637 m 434 984 q 373 1009 399 984 q 347 1071 347 1034 l 347 1157 l 521 1157 l 521 1071 q 495 1010 521 1032 q 434 984 472 984 m 434 1042 q 455 1050 447 1042 q 463 1071 463 1059 l 463 1100 l 405 1100 l 405 1071 q 414 1050 405 1058 q 434 1042 422 1042 z "},"":{"ha":984,"x_min":58,"x_max":926,"o":"m 58 868 q 150 1080 58 1003 q 376 1157 243 1157 l 608 1157 q 833 1079 741 1157 q 926 868 924 1001 l 926 810 l 752 810 q 703 953 752 913 q 550 984 666 984 l 434 984 q 276 948 320 984 q 231 812 231 911 l 231 469 q 174 531 195 505 l 174 810 q 238 992 174 942 q 434 1042 302 1042 l 550 1042 q 731 1003 670 1042 q 806 868 791 965 l 868 868 q 794 1037 867 974 q 608 1100 720 1100 l 376 1100 q 191 1039 266 1100 q 116 870 116 978 l 116 521 q 174 446 116 503 q 231 347 231 388 q 281 204 231 240 q 434 174 324 174 l 550 174 q 703 204 660 174 q 752 347 752 240 l 752 521 l 521 521 l 521 694 l 926 694 l 926 289 q 836 80 926 159 q 612 0 747 0 l 376 0 q 151 78 243 0 q 58 289 59 156 l 58 399 q 84 373 61 395 q 114 339 107 350 q 116 337 116 339 l 116 291 q 192 120 116 182 q 376 58 268 58 l 612 58 q 794 120 720 58 q 868 289 868 182 l 868 637 l 579 637 l 579 579 l 810 579 l 810 347 q 746 166 810 216 q 550 116 681 116 l 434 116 q 247 158 294 116 q 174 347 174 227 q 116 422 174 365 q 58 521 58 480 l 58 868 m 600 -58 l 600 -258 l 499 -357 l 383 -242 l 427 -194 l 427 -58 l 600 -58 m 543 -116 l 485 -116 l 485 -217 l 464 -240 l 499 -276 l 543 -230 l 543 -116 z "},"":{"ha":868,"x_min":58,"x_max":810,"o":"m 58 637 q 145 846 58 765 q 372 926 233 926 l 492 926 q 720 846 631 926 q 810 637 810 767 l 810 58 q 718 -152 810 -72 q 492 -231 626 -231 l 174 -231 l 174 -58 l 448 -58 q 599 0 563 -58 l 376 0 q 159 72 245 0 q 58 260 58 161 l 58 399 l 84 373 q 116 337 113 341 l 116 291 q 192 120 116 182 q 376 58 268 58 l 676 58 q 660 -2 670 23 q 626 -56 650 -27 q 558 -101 603 -85 q 448 -116 514 -116 l 231 -116 l 231 -174 l 492 -174 q 676 -111 600 -174 q 752 59 752 -49 l 752 635 q 681 804 752 741 q 492 868 609 868 l 372 868 q 187 805 258 868 q 116 637 116 742 l 116 521 q 174 446 116 503 q 231 347 231 388 q 281 204 231 240 q 434 174 324 174 q 587 204 544 174 q 637 347 637 240 l 637 579 q 587 722 637 686 q 434 752 544 752 q 281 722 324 752 q 231 579 231 686 l 231 469 q 204 498 229 473 q 174 531 179 522 l 174 584 q 239 761 174 712 q 434 810 304 810 q 630 760 566 810 q 694 579 694 710 l 694 347 q 630 166 694 216 q 434 116 566 116 q 247 158 305 116 q 174 318 174 211 l 174 347 q 116 422 174 365 q 58 521 58 480 l 58 637 m 521 1183 l 521 984 l 347 984 l 347 1120 l 304 1168 l 420 1283 l 521 1183 m 405 1143 l 405 1042 l 463 1042 l 463 1156 l 420 1202 l 385 1166 l 405 1143 z "},"":{"ha":984,"x_min":58,"x_max":926,"o":"m 174 347 q 116 422 174 363 q 58 521 58 480 l 58 1157 l 231 1157 l 231 752 l 752 752 l 752 1157 l 926 1157 l 926 0 l 752 0 l 752 579 l 231 579 l 231 470 l 205 496 q 174 531 185 516 l 174 637 l 810 637 l 810 58 l 868 58 l 868 1100 l 810 1100 l 810 694 l 174 694 l 174 1100 l 116 1100 l 116 521 q 174 446 116 505 q 231 347 231 386 l 231 0 l 58 0 l 58 399 q 79 378 61 395 q 116 337 97 360 l 116 58 l 174 58 l 174 347 m 490 1367 l 626 1273 l 729 1273 l 493 1435 l 258 1273 l 357 1273 l 490 1367 m 490 1298 l 373 1215 l 210 1215 l 210 1314 l 492 1505 l 774 1314 l 774 1215 l 611 1215 l 490 1298 z "},"":{"ha":868,"x_min":58,"x_max":810,"o":"m 174 349 q 116 424 174 365 q 58 522 58 483 l 58 1157 l 231 1157 l 231 926 l 492 926 q 717 848 625 926 q 810 637 809 770 l 810 0 l 637 0 l 637 579 q 587 722 637 686 q 448 752 547 749 l 418 752 q 273 714 314 749 q 231 579 231 679 l 231 470 q 204 499 229 475 q 174 532 179 524 l 174 584 q 237 760 175 713 q 415 810 298 807 l 451 810 q 633 758 571 807 q 694 579 694 709 l 694 58 l 752 58 l 752 635 q 676 806 752 744 q 492 868 600 868 l 174 868 l 174 1100 l 116 1100 l 116 522 q 145 478 116 506 q 203 415 174 450 q 231 349 231 380 l 231 0 l 58 0 l 58 399 l 84 373 q 116 337 113 341 l 116 58 l 174 58 l 174 349 m 433 1367 l 569 1273 l 671 1273 l 435 1435 l 200 1273 l 299 1273 l 433 1367 m 433 1298 l 315 1215 l 152 1215 l 152 1314 l 434 1505 l 716 1314 l 716 1215 l 553 1215 l 433 1298 z "},"":{"ha":984,"x_min":0,"x_max":984,"o":"m 810 694 l 174 694 l 174 926 l 810 926 l 810 694 m 174 347 q 145 391 174 362 q 87 455 116 420 q 58 521 58 490 l 58 868 l 0 868 l 0 1042 l 58 1042 l 58 1157 l 231 1157 l 231 1042 l 752 1042 l 752 1157 l 926 1157 l 926 1042 l 984 1042 l 984 868 l 926 868 l 926 0 l 752 1 l 752 579 l 231 579 l 231 470 l 205 496 q 174 531 185 516 l 174 637 l 810 637 l 810 58 l 868 58 l 868 926 l 926 926 l 926 984 l 868 984 l 868 1100 l 810 1100 l 810 984 l 174 984 l 174 1100 l 116 1100 l 116 984 l 58 984 l 58 926 l 116 926 l 116 521 q 174 446 116 505 q 231 347 231 386 l 231 0 l 58 1 l 58 399 l 84 373 q 116 337 107 349 l 116 58 l 174 58 l 174 347 m 752 868 l 231 868 l 231 752 l 752 752 l 752 868 z "},"":{"ha":868,"x_min":0,"x_max":810,"o":"m 752 635 q 676 806 752 744 q 492 868 600 868 l 174 868 l 174 926 l 492 926 q 720 846 629 926 q 810 637 810 765 l 810 0 l 637 0 l 637 579 q 595 715 637 677 q 448 752 553 752 l 418 752 q 273 715 315 752 q 231 579 231 677 l 231 470 q 204 499 229 475 q 174 532 179 524 l 174 584 q 238 760 174 710 q 415 810 302 810 l 451 810 q 635 755 576 810 q 694 579 694 700 l 694 58 l 752 58 l 752 635 m 174 349 q 116 424 174 365 q 58 522 58 483 l 58 868 l 0 868 l 0 1042 l 58 1042 l 58 1157 l 231 1157 l 231 1042 l 637 1042 l 637 926 l 579 926 l 579 984 l 174 984 l 174 1100 l 116 1100 l 116 984 l 58 984 l 58 920 l 116 920 l 116 522 q 145 479 116 508 q 203 414 174 450 q 231 349 231 379 l 231 0 l 58 0 l 58 399 l 84 373 q 116 337 104 353 l 116 58 l 174 58 l 174 349 z "},"":{"ha":289,"x_min":-72,"x_max":362,"o":"m 174 347 q 116 422 174 365 q 58 521 58 480 l 58 1157 l 231 1157 l 231 469 q 204 498 229 473 q 174 531 179 522 l 174 1100 l 116 1100 l 116 521 q 174 446 116 503 q 231 347 231 388 l 231 0 l 58 0 l 58 399 l 84 373 q 116 337 113 341 l 116 58 l 174 58 l 174 347 m 208 1247 q 136 1272 175 1247 q 82 1298 97 1298 q 12 1238 43 1298 l 0 1215 l -72 1340 l -59 1360 q 82 1471 12 1471 q 155 1446 117 1471 q 208 1421 192 1421 q 278 1481 247 1421 l 289 1505 l 362 1379 l 350 1359 q 208 1247 284 1247 m 82 1356 q 141 1330 106 1356 q 208 1305 177 1305 q 313 1380 263 1305 l 289 1421 q 208 1363 250 1363 q 148 1388 184 1363 q 82 1413 113 1413 q -23 1340 26 1413 l 1 1298 q 82 1356 41 1356 z "},"":{"ha":289,"x_min":-72,"x_max":362,"o":"m 174 347 q 145 391 174 362 q 87 455 116 420 q 58 521 58 490 l 58 926 l 231 926 l 231 469 q 174 530 223 480 l 174 868 l 116 868 l 116 521 q 145 477 116 505 q 203 413 174 448 q 231 347 231 378 l 231 0 l 58 0 l 58 399 q 82 374 62 395 q 114 339 103 353 q 116 337 116 339 l 116 58 l 174 58 l 174 347 m 208 1040 q 136 1066 175 1040 q 82 1091 97 1091 q 12 1032 43 1091 l 0 1008 l -72 1133 l -59 1153 q 82 1264 12 1264 q 155 1239 117 1264 q 208 1214 192 1214 q 278 1275 247 1214 l 289 1298 l 362 1172 l 350 1152 q 208 1040 284 1040 m 82 1149 q 141 1123 106 1149 q 208 1098 177 1098 q 313 1173 263 1098 l 289 1214 q 208 1156 250 1156 q 148 1181 184 1156 q 82 1207 113 1207 q -23 1133 26 1207 l 1 1091 q 82 1149 41 1149 z "},"":{"ha":289,"x_min":-58,"x_max":347,"o":"m 174 347 q 116 422 174 365 q 58 521 58 480 l 58 1157 l 231 1157 l 231 469 q 204 498 229 473 q 174 531 179 522 l 174 1100 l 116 1100 l 116 521 q 174 446 116 503 q 231 347 231 388 l 231 0 l 58 0 l 58 399 l 84 373 q 116 337 113 341 l 116 58 l 174 58 l 174 347 m 289 1331 l 0 1331 l 0 1273 l 289 1273 l 289 1331 m 347 1389 l 347 1215 l -58 1215 l -58 1389 l 347 1389 z "},"":{"ha":289,"x_min":-58,"x_max":347,"o":"m 174 347 q 145 391 174 362 q 87 455 116 420 q 58 521 58 490 l 58 926 l 231 926 l 231 470 q 205 495 218 483 l 174 530 l 174 868 l 116 868 l 116 521 q 145 477 116 505 q 203 413 174 448 q 231 347 231 378 l 231 0 l 58 0 l 58 399 q 82 374 62 395 q 114 339 103 353 q 116 337 116 339 l 116 58 l 174 58 l 174 347 m 289 1100 l 0 1100 l 0 1042 l 289 1042 l 289 1100 m 347 1157 l 347 984 l -58 984 l -58 1157 l 347 1157 z "},"":{"ha":289,"x_min":-94,"x_max":383,"o":"m 54 1400 l -46 1400 q 61 1307 16 1337 q 146 1277 106 1277 q 231 1307 187 1277 q 339 1400 276 1337 l 236 1400 q 179 1345 197 1360 q 145 1330 161 1330 q 111 1345 129 1330 q 54 1400 93 1360 m 220 1458 l 383 1458 l 383 1359 q 145 1215 243 1215 q -94 1359 46 1215 l -94 1458 l 69 1458 q 95 1431 84 1442 q 114 1412 106 1419 q 130 1400 123 1405 q 144 1396 137 1396 q 158 1400 150 1396 q 174 1412 165 1405 q 194 1431 182 1419 q 220 1458 205 1442 m 174 347 q 116 422 174 365 q 58 521 58 480 l 58 1157 l 231 1157 l 231 469 q 204 498 229 473 q 174 531 179 522 l 174 1100 l 116 1100 l 116 521 q 174 446 116 503 q 231 347 231 388 l 231 0 l 58 0 l 58 399 l 84 373 q 116 337 113 341 l 116 58 l 174 58 l 174 347 z "},"":{"ha":289,"x_min":-94,"x_max":383,"o":"m 174 347 q 145 391 174 362 q 87 455 116 420 q 58 521 58 490 l 58 926 l 231 926 l 231 470 q 205 495 218 483 l 174 530 l 174 868 l 116 868 l 116 521 q 145 477 116 505 q 203 413 174 448 q 231 347 231 378 l 231 0 l 58 0 l 58 399 q 82 374 62 395 q 114 339 103 353 q 116 337 116 339 l 116 58 l 174 58 l 174 347 m 54 1169 l -46 1169 q 61 1076 16 1105 q 146 1046 106 1046 q 231 1076 187 1046 q 339 1169 276 1105 l 236 1169 q 179 1113 197 1128 q 145 1098 161 1098 q 111 1113 129 1098 q 54 1169 93 1128 m 220 1227 l 383 1227 l 383 1127 q 145 984 243 984 q -94 1127 46 984 l -94 1227 l 69 1227 q 95 1199 84 1211 q 114 1181 106 1188 q 130 1169 123 1173 q 144 1165 137 1165 q 158 1169 150 1165 q 174 1181 165 1173 q 194 1199 182 1188 q 220 1227 205 1211 z "},"":{"ha":289,"x_min":51,"x_max":289,"o":"m 116 521 q 174 446 116 503 q 231 347 231 388 l 231 13 q 227 -16 227 0 q 239 -49 227 -41 q 282 -58 252 -58 l 289 -58 l 289 -231 l 231 -231 q 190 -219 211 -227 q 132 -191 168 -211 q 73 -130 95 -171 q 51 -36 51 -90 q 58 38 51 -9 l 58 399 l 84 373 q 116 337 113 341 l 116 35 q 109 -36 111 12 q 139 -122 109 -91 q 197 -161 168 -150 l 231 -172 l 231 -109 q 166 -38 166 -85 q 174 17 166 -19 l 174 347 q 116 422 174 365 q 58 521 58 480 l 58 1157 l 231 1157 l 231 469 q 204 498 229 473 q 174 531 179 522 l 174 1100 l 116 1100 l 116 521 z "},"":{"ha":289,"x_min":35,"x_max":289,"o":"m 145 984 q 84 1009 110 984 q 58 1071 58 1034 l 58 1157 l 231 1157 l 231 1071 q 205 1010 231 1032 q 145 984 182 984 m 145 1042 q 166 1050 158 1042 q 174 1071 174 1059 l 174 1100 l 116 1100 l 116 1071 q 124 1050 116 1058 q 145 1042 133 1042 m 116 521 q 174 446 116 503 q 231 347 231 388 l 231 13 q 230 12 231 13 q 221 -23 221 -7 q 233 -50 221 -42 q 282 -58 245 -58 l 289 -58 l 289 -231 l 231 -231 q 91 -162 140 -214 q 36 -45 36 -110 q 46 0 36 -25 q 58 38 56 25 l 58 399 l 84 373 q 116 337 113 341 l 116 35 q 104 0 114 26 q 94 -43 94 -26 q 118 -106 94 -77 q 163 -148 142 -136 q 197 -165 184 -161 l 231 -172 l 231 -109 q 197 -95 210 -101 q 171 -75 184 -88 q 159 -42 159 -61 q 166 -7 159 -29 q 174 17 174 14 l 174 347 q 116 422 174 365 q 58 521 58 480 l 58 926 l 231 926 l 231 469 q 204 498 229 473 q 174 531 179 522 l 174 868 l 116 868 l 116 521 z "},"":{"ha":289,"x_min":58,"x_max":231,"o":"m 174 347 q 116 422 174 365 q 58 521 58 480 l 58 1157 l 231 1157 l 231 469 q 204 498 229 473 q 174 531 179 522 l 174 1100 l 116 1100 l 116 521 q 174 446 116 503 q 231 347 231 388 l 231 0 l 58 0 l 58 399 l 84 373 q 116 337 113 341 l 116 58 l 174 58 l 174 347 m 145 1215 q 84 1241 110 1215 q 58 1302 58 1266 l 58 1389 l 231 1389 l 231 1302 q 205 1241 231 1263 q 145 1215 182 1215 m 145 1273 q 166 1282 158 1273 q 174 1302 174 1291 l 174 1331 l 116 1331 l 116 1302 q 124 1281 116 1289 q 145 1273 133 1273 z "},"":{"ha":289,"x_min":58,"x_max":231,"o":"m 174 347 q 145 391 174 362 q 87 455 116 420 q 58 521 58 490 l 58 926 l 231 926 l 231 469 q 174 530 223 480 l 174 868 l 116 868 l 116 521 q 145 477 116 505 q 203 413 174 448 q 231 347 231 378 l 231 0 l 58 0 l 58 399 q 82 374 62 395 q 114 339 103 353 q 116 337 116 339 l 116 58 l 174 58 l 174 347 z "},"":{"ha":694,"x_min":58,"x_max":694,"o":"m 579 347 q 521 422 579 365 q 463 521 463 480 l 463 1157 l 637 1157 l 637 469 q 609 498 634 473 q 579 531 584 522 l 579 1100 l 521 1100 l 521 521 q 579 446 521 503 q 637 347 637 388 l 637 289 q 547 80 637 159 q 323 0 457 0 l 58 0 l 58 174 l 260 174 q 418 204 373 174 q 463 320 463 234 l 463 399 q 521 337 503 359 l 521 320 q 456 161 521 207 q 260 116 392 116 l 116 116 l 116 58 l 323 58 q 505 120 431 58 q 579 289 579 182 l 579 347 m 411 1367 l 547 1273 l 650 1273 l 414 1435 l 178 1273 l 278 1273 l 411 1367 m 411 1298 l 294 1215 l 130 1215 l 130 1315 l 412 1505 l 694 1315 l 694 1215 l 531 1215 l 411 1298 z "},"":{"ha":347,"x_min":-123,"x_max":441,"o":"m 231 347 q 203 392 231 365 q 145 454 174 420 q 116 521 116 488 l 116 926 l 289 926 l 289 469 q 268 490 286 473 q 231 530 250 508 l 231 868 l 174 868 l 174 521 q 203 476 174 503 q 260 414 231 448 q 289 347 289 380 l 289 58 q 205 -147 289 -69 q 0 -231 120 -224 l 0 -52 q 85 -16 54 -45 q 116 88 116 13 l 116 399 q 174 337 156 359 l 174 88 q 58 -98 174 -56 l 58 -163 q 181 -88 130 -143 q 231 58 231 -33 l 231 347 m 158 1143 l 294 1049 l 396 1049 l 161 1211 l -75 1049 l 25 1049 l 158 1143 m 158 1073 l 41 991 l -123 991 l -123 1089 l 159 1280 l 441 1089 l 441 991 l 278 991 l 158 1073 z "}}}
